<?xml version="1.0" encoding="UTF-8" standalone="no"?>
<!DOCTYPE svg PUBLIC "-//W3C//DTD SVG 1.1//EN"
 "http://www.w3.org/Graphics/SVG/1.1/DTD/svg11.dtd">
<!-- Generated by graphviz version 3.0.0 (0)
 -->
<!-- Title: get_bezier_surface Pages: 1 -->
<svg width="488pt" height="28pt"
 viewBox="0.00 0.00 488.00 28.00" xmlns="http://www.w3.org/2000/svg" xmlns:xlink="http://www.w3.org/1999/xlink">
<g id="graph0" class="graph" transform="scale(1 1) rotate(0) translate(4 24)">
<title>get_bezier_surface</title>
<polygon fill="white" stroke="transparent" points="-4,4 -4,-24 484,-24 484,4 -4,4"/>
<!-- Node1 -->
<g id="node1" class="node">
<title>Node1</title>
<g id="a_node1"><a xlink:title=" ">
<polygon fill="#bfbfbf" stroke="black" points="0,-0.5 0,-19.5 109,-19.5 109,-0.5 0,-0.5"/>
<text text-anchor="middle" x="54.5" y="-7.5" font-family="Helvetica,sans-Serif" font-size="10.00">get_bezier_surface</text>
</a>
</g>
</g>
<!-- Node2 -->
<g id="node2" class="node">
<title>Node2</title>
<g id="a_node2"><a xlink:href="curves_8cpp.html#acd318fe2ec3011922c3f4d9d7590b168" target="_top" xlink:title=" ">
<polygon fill="white" stroke="black" points="145,-0.5 145,-19.5 245,-19.5 245,-0.5 145,-0.5"/>
<text text-anchor="middle" x="195" y="-7.5" font-family="Helvetica,sans-Serif" font-size="10.00">get_bezier_patch</text>
</a>
</g>
</g>
<!-- Node1&#45;&gt;Node2 -->
<g id="edge1" class="edge">
<title>Node1&#45;&gt;Node2</title>
<path fill="none" stroke="midnightblue" d="M109.05,-10C117.38,-10 126.04,-10 134.49,-10"/>
<polygon fill="midnightblue" stroke="midnightblue" points="134.67,-13.5 144.67,-10 134.67,-6.5 134.67,-13.5"/>
</g>
<!-- Node3 -->
<g id="node3" class="node">
<title>Node3</title>
<g id="a_node3"><a xlink:href="curves_8cpp.html#ae1f2aea35fc8ca6d56097bc3b7824c07" target="_top" xlink:title=" ">
<polygon fill="white" stroke="black" points="281,-0.5 281,-19.5 379,-19.5 379,-0.5 281,-0.5"/>
<text text-anchor="middle" x="330" y="-7.5" font-family="Helvetica,sans-Serif" font-size="10.00">get_bezier_point</text>
</a>
</g>
</g>
<!-- Node2&#45;&gt;Node3 -->
<g id="edge2" class="edge">
<title>Node2&#45;&gt;Node3</title>
<path fill="none" stroke="midnightblue" d="M245.15,-10C253.46,-10 262.16,-10 270.68,-10"/>
<polygon fill="midnightblue" stroke="midnightblue" points="270.94,-13.5 280.94,-10 270.94,-6.5 270.94,-13.5"/>
</g>
<!-- Node4 -->
<g id="node4" class="node">
<title>Node4</title>
<g id="a_node4"><a xlink:href="curves_8cpp.html#af68f8da25ecf53c589aa5d47f1f8e164" target="_top" xlink:title=" ">
<polygon fill="white" stroke="black" points="415,-0.5 415,-19.5 480,-19.5 480,-0.5 415,-0.5"/>
<text text-anchor="middle" x="447.5" y="-7.5" font-family="Helvetica,sans-Serif" font-size="10.00">get_curve</text>
</a>
</g>
</g>
<!-- Node3&#45;&gt;Node4 -->
<g id="edge3" class="edge">
<title>Node3&#45;&gt;Node4</title>
<path fill="none" stroke="midnightblue" d="M379.31,-10C387.75,-10 396.45,-10 404.69,-10"/>
<polygon fill="midnightblue" stroke="midnightblue" points="404.82,-13.5 414.82,-10 404.82,-6.5 404.82,-13.5"/>
</g>
</g>
</svg>
