<?xml version="1.0" encoding="UTF-8" standalone="no"?>
<!DOCTYPE svg PUBLIC "-//W3C//DTD SVG 1.1//EN"
 "http://www.w3.org/Graphics/SVG/1.1/DTD/svg11.dtd">
<!-- Generated by graphviz version 3.0.0 (0)
 -->
<!-- Title: src/curves.cpp Pages: 1 -->
<svg width="359pt" height="140pt"
 viewBox="0.00 0.00 359.34 140.00" xmlns="http://www.w3.org/2000/svg" xmlns:xlink="http://www.w3.org/1999/xlink">
<g id="graph0" class="graph" transform="scale(1 1) rotate(0) translate(4 136)">
<title>src/curves.cpp</title>
<polygon fill="white" stroke="transparent" points="-4,4 -4,-136 355.34,-136 355.34,4 -4,4"/>
<!-- Node1 -->
<g id="node1" class="node">
<title>Node1</title>
<g id="a_node1"><a xlink:title=" ">
<polygon fill="#bfbfbf" stroke="black" points="92.84,-112.5 92.84,-131.5 178.84,-131.5 178.84,-112.5 92.84,-112.5"/>
<text text-anchor="middle" x="135.84" y="-119.5" font-family="Helvetica,sans-Serif" font-size="10.00">src/curves.cpp</text>
</a>
</g>
</g>
<!-- Node2 -->
<g id="node2" class="node">
<title>Node2</title>
<g id="a_node2"><a xlink:title=" ">
<polygon fill="white" stroke="#bfbfbf" points="62.84,-0.5 62.84,-19.5 140.84,-19.5 140.84,-0.5 62.84,-0.5"/>
<text text-anchor="middle" x="101.84" y="-7.5" font-family="Helvetica,sans-Serif" font-size="10.00">glm/glm.hpp</text>
</a>
</g>
</g>
<!-- Node1&#45;&gt;Node2 -->
<g id="edge1" class="edge">
<title>Node1&#45;&gt;Node2</title>
<path fill="none" stroke="midnightblue" d="M92.52,-118.67C62.54,-114.52 24.61,-103.69 4.84,-76 -12.8,-51.3 23.37,-33.26 56.44,-22.53"/>
<polygon fill="midnightblue" stroke="midnightblue" points="57.56,-25.85 66.09,-19.57 55.51,-19.16 57.56,-25.85"/>
</g>
<!-- Node3 -->
<g id="node3" class="node">
<title>Node3</title>
<g id="a_node3"><a xlink:title=" ">
<polygon fill="white" stroke="#bfbfbf" points="13.84,-56.5 13.84,-75.5 131.84,-75.5 131.84,-56.5 13.84,-56.5"/>
<text text-anchor="middle" x="72.84" y="-63.5" font-family="Helvetica,sans-Serif" font-size="10.00">glm/gtc/type_ptr.hpp</text>
</a>
</g>
</g>
<!-- Node1&#45;&gt;Node3 -->
<g id="edge2" class="edge">
<title>Node1&#45;&gt;Node3</title>
<path fill="none" stroke="midnightblue" d="M125.71,-112.32C116.31,-104.26 102.09,-92.08 90.77,-82.37"/>
<polygon fill="midnightblue" stroke="midnightblue" points="93.01,-79.68 83.14,-75.83 88.46,-85 93.01,-79.68"/>
</g>
<!-- Node4 -->
<g id="node4" class="node">
<title>Node4</title>
<g id="a_node4"><a xlink:title=" ">
<polygon fill="white" stroke="#bfbfbf" points="149.84,-56.5 149.84,-75.5 249.84,-75.5 249.84,-56.5 149.84,-56.5"/>
<text text-anchor="middle" x="199.84" y="-63.5" font-family="Helvetica,sans-Serif" font-size="10.00">GL/freeglut_std.h</text>
</a>
</g>
</g>
<!-- Node1&#45;&gt;Node4 -->
<g id="edge3" class="edge">
<title>Node1&#45;&gt;Node4</title>
<path fill="none" stroke="midnightblue" d="M146.12,-112.32C155.67,-104.26 170.12,-92.08 181.62,-82.37"/>
<polygon fill="midnightblue" stroke="midnightblue" points="183.98,-84.96 189.37,-75.83 179.47,-79.61 183.98,-84.96"/>
</g>
<!-- Node5 -->
<g id="node5" class="node">
<title>Node5</title>
<g id="a_node5"><a xlink:href="curves_8h.html" target="_top" xlink:title=" ">
<polygon fill="white" stroke="black" points="267.84,-56.5 267.84,-75.5 325.84,-75.5 325.84,-56.5 267.84,-56.5"/>
<text text-anchor="middle" x="296.84" y="-63.5" font-family="Helvetica,sans-Serif" font-size="10.00">curves.h</text>
</a>
</g>
</g>
<!-- Node1&#45;&gt;Node5 -->
<g id="edge4" class="edge">
<title>Node1&#45;&gt;Node5</title>
<path fill="none" stroke="midnightblue" d="M161.35,-112.44C188.43,-103.36 231.43,-88.94 261.7,-78.78"/>
<polygon fill="midnightblue" stroke="midnightblue" points="263.08,-82.01 271.44,-75.52 260.85,-75.38 263.08,-82.01"/>
</g>
<!-- Node5&#45;&gt;Node2 -->
<g id="edge7" class="edge">
<title>Node5&#45;&gt;Node2</title>
<path fill="none" stroke="midnightblue" d="M267.64,-56.92C234.53,-47.74 180.28,-32.72 142.91,-22.37"/>
<polygon fill="midnightblue" stroke="midnightblue" points="143.41,-18.88 132.84,-19.59 141.55,-25.63 143.41,-18.88"/>
</g>
<!-- Node6 -->
<g id="node6" class="node">
<title>Node6</title>
<g id="a_node6"><a xlink:title=" ">
<polygon fill="white" stroke="#bfbfbf" points="243.84,-0.5 243.84,-19.5 285.84,-19.5 285.84,-0.5 243.84,-0.5"/>
<text text-anchor="middle" x="264.84" y="-7.5" font-family="Helvetica,sans-Serif" font-size="10.00">array</text>
</a>
</g>
</g>
<!-- Node5&#45;&gt;Node6 -->
<g id="edge5" class="edge">
<title>Node5&#45;&gt;Node6</title>
<path fill="none" stroke="midnightblue" d="M291.55,-56.08C287.12,-48.61 280.67,-37.72 275.22,-28.52"/>
<polygon fill="midnightblue" stroke="midnightblue" points="278.13,-26.57 270.02,-19.75 272.11,-30.14 278.13,-26.57"/>
</g>
<!-- Node7 -->
<g id="node7" class="node">
<title>Node7</title>
<g id="a_node7"><a xlink:title=" ">
<polygon fill="white" stroke="#bfbfbf" points="304.34,-0.5 304.34,-19.5 351.34,-19.5 351.34,-0.5 304.34,-0.5"/>
<text text-anchor="middle" x="327.84" y="-7.5" font-family="Helvetica,sans-Serif" font-size="10.00">vector</text>
</a>
</g>
</g>
<!-- Node5&#45;&gt;Node7 -->
<g id="edge6" class="edge">
<title>Node5&#45;&gt;Node7</title>
<path fill="none" stroke="midnightblue" d="M301.95,-56.08C306.24,-48.61 312.49,-37.72 317.78,-28.52"/>
<polygon fill="midnightblue" stroke="midnightblue" points="320.87,-30.17 322.81,-19.75 314.8,-26.68 320.87,-30.17"/>
</g>
</g>
</svg>
