<?xml version="1.0" encoding="UTF-8" standalone="no"?>
<!DOCTYPE svg PUBLIC "-//W3C//DTD SVG 1.1//EN"
 "http://www.w3.org/Graphics/SVG/1.1/DTD/svg11.dtd">
<!-- Generated by graphviz version 3.0.0 (0)
 -->
<!-- Title: get_curve_global_point Pages: 1 -->
<svg width="926pt" height="66pt"
 viewBox="0.00 0.00 926.00 66.00" xmlns="http://www.w3.org/2000/svg" xmlns:xlink="http://www.w3.org/1999/xlink">
<g id="graph0" class="graph" transform="scale(1 1) rotate(0) translate(4 62)">
<title>get_curve_global_point</title>
<polygon fill="white" stroke="transparent" points="-4,4 -4,-62 922,-62 922,4 -4,4"/>
<!-- Node1 -->
<g id="node1" class="node">
<title>Node1</title>
<g id="a_node1"><a xlink:title=" ">
<polygon fill="#bfbfbf" stroke="black" points="788,-19.5 788,-38.5 918,-38.5 918,-19.5 788,-19.5"/>
<text text-anchor="middle" x="853" y="-26.5" font-family="Helvetica,sans-Serif" font-size="10.00">get_curve_global_point</text>
</a>
</g>
</g>
<!-- Node2 -->
<g id="node2" class="node">
<title>Node2</title>
<g id="a_node2"><a xlink:href="curves_8cpp.html#aca4aaefe66ab2cbc9d44054ab8929c0d" target="_top" xlink:title=" ">
<polygon fill="white" stroke="black" points="629,-38.5 629,-57.5 752,-57.5 752,-38.5 629,-38.5"/>
<text text-anchor="middle" x="690.5" y="-45.5" font-family="Helvetica,sans-Serif" font-size="10.00">align_global_pos_mat</text>
</a>
</g>
</g>
<!-- Node1&#45;&gt;Node2 -->
<g id="edge1" class="edge">
<title>Node1&#45;&gt;Node2</title>
<path fill="none" stroke="midnightblue" d="M777.7,-37.8C769.17,-38.81 760.55,-39.83 752.22,-40.81"/>
<polygon fill="midnightblue" stroke="midnightblue" points="778.12,-41.27 787.64,-36.62 777.3,-34.32 778.12,-41.27"/>
</g>
<!-- Node9 -->
<g id="node9" class="node">
<title>Node9</title>
<g id="a_node9"><a xlink:href="curves_8cpp.html#ad812fc50a0384335487e258a6f61714e" target="_top" xlink:title=" ">
<polygon fill="white" stroke="black" points="502.5,-0.5 502.5,-19.5 579.5,-19.5 579.5,-0.5 502.5,-0.5"/>
<text text-anchor="middle" x="541" y="-7.5" font-family="Helvetica,sans-Serif" font-size="10.00">renderCurve</text>
</a>
</g>
</g>
<!-- Node1&#45;&gt;Node9 -->
<g id="edge9" class="edge">
<title>Node1&#45;&gt;Node9</title>
<path fill="none" stroke="midnightblue" d="M777.59,-24.44C715.25,-20.62 628.81,-15.32 579.83,-12.32"/>
<polygon fill="midnightblue" stroke="midnightblue" points="777.57,-27.94 787.77,-25.06 778,-20.96 777.57,-27.94"/>
</g>
<!-- Node3 -->
<g id="node3" class="node">
<title>Node3</title>
<g id="a_node3"><a xlink:href="curves_8cpp.html#af213e79ca700e91ea886085a4149a848" target="_top" xlink:title=" ">
<polygon fill="white" stroke="black" points="489,-38.5 489,-57.5 593,-57.5 593,-38.5 489,-38.5"/>
<text text-anchor="middle" x="541" y="-45.5" font-family="Helvetica,sans-Serif" font-size="10.00">advance_in_curve</text>
</a>
</g>
</g>
<!-- Node2&#45;&gt;Node3 -->
<g id="edge2" class="edge">
<title>Node2&#45;&gt;Node3</title>
<path fill="none" stroke="midnightblue" d="M618.39,-48C609.93,-48 601.42,-48 593.31,-48"/>
<polygon fill="midnightblue" stroke="midnightblue" points="618.65,-51.5 628.65,-48 618.65,-44.5 618.65,-51.5"/>
</g>
<!-- Node4 -->
<g id="node4" class="node">
<title>Node4</title>
<g id="a_node4"><a xlink:href="group___operations.html#ga887f20c10a27832ea24178203a47fcc2" target="_top" xlink:title=" ">
<polygon fill="white" stroke="black" points="348,-19.5 348,-38.5 453,-38.5 453,-19.5 348,-19.5"/>
<text text-anchor="middle" x="400.5" y="-26.5" font-family="Helvetica,sans-Serif" font-size="10.00">operations_render</text>
</a>
</g>
</g>
<!-- Node3&#45;&gt;Node4 -->
<g id="edge3" class="edge">
<title>Node3&#45;&gt;Node4</title>
<path fill="none" stroke="midnightblue" d="M478.65,-39.58C470.22,-38.43 461.63,-37.25 453.39,-36.12"/>
<polygon fill="midnightblue" stroke="midnightblue" points="478.44,-43.09 488.82,-40.98 479.39,-36.15 478.44,-43.09"/>
</g>
<!-- Node5 -->
<g id="node5" class="node">
<title>Node5</title>
<g id="a_node5"><a xlink:href="group__engine.html#ga91c42686f3245f22fb6b17ba5372d92c" target="_top" xlink:title=" ">
<polygon fill="white" stroke="black" points="209.5,-38.5 209.5,-57.5 286.5,-57.5 286.5,-38.5 209.5,-38.5"/>
<text text-anchor="middle" x="248" y="-45.5" font-family="Helvetica,sans-Serif" font-size="10.00">renderScene</text>
</a>
</g>
</g>
<!-- Node4&#45;&gt;Node5 -->
<g id="edge4" class="edge">
<title>Node4&#45;&gt;Node5</title>
<path fill="none" stroke="midnightblue" d="M337.66,-36.81C320.35,-38.99 302.07,-41.3 286.63,-43.25"/>
<polygon fill="midnightblue" stroke="midnightblue" points="338.22,-40.26 347.71,-35.54 337.35,-33.32 338.22,-40.26"/>
</g>
<!-- Node8 -->
<g id="node8" class="node">
<title>Node8</title>
<g id="a_node8"><a xlink:href="group__engine.html#ga2b6a8884687b3fe271b099a450a82d24" target="_top" xlink:title=" ">
<polygon fill="white" stroke="black" points="184,-0.5 184,-19.5 312,-19.5 312,-0.5 184,-0.5"/>
<text text-anchor="middle" x="248" y="-7.5" font-family="Helvetica,sans-Serif" font-size="10.00">xml_load_and_set_env</text>
</a>
</g>
</g>
<!-- Node4&#45;&gt;Node8 -->
<g id="edge7" class="edge">
<title>Node4&#45;&gt;Node8</title>
<path fill="none" stroke="midnightblue" d="M337.58,-21.18C329.16,-20.12 320.51,-19.03 312.07,-17.96"/>
<polygon fill="midnightblue" stroke="midnightblue" points="337.35,-24.68 347.71,-22.46 338.22,-17.74 337.35,-24.68"/>
</g>
<!-- Node6 -->
<g id="node6" class="node">
<title>Node6</title>
<g id="a_node6"><a xlink:href="group__engine.html#ga98eaf946471acbd931de5d52ca83b3d1" target="_top" xlink:title=" ">
<polygon fill="white" stroke="black" points="77,-19.5 77,-38.5 148,-38.5 148,-19.5 77,-19.5"/>
<text text-anchor="middle" x="112.5" y="-26.5" font-family="Helvetica,sans-Serif" font-size="10.00">engine_run</text>
</a>
</g>
</g>
<!-- Node5&#45;&gt;Node6 -->
<g id="edge5" class="edge">
<title>Node5&#45;&gt;Node6</title>
<path fill="none" stroke="midnightblue" d="M199.2,-41.2C182.29,-38.79 163.61,-36.13 148.02,-33.91"/>
<polygon fill="midnightblue" stroke="midnightblue" points="199.06,-44.71 209.46,-42.66 200.05,-37.78 199.06,-44.71"/>
</g>
<!-- Node7 -->
<g id="node7" class="node">
<title>Node7</title>
<g id="a_node7"><a xlink:href="group__engine.html#ga3c04138a5bfe5d72780bb7e82a18e627" target="_top" xlink:title=" ">
<polygon fill="white" stroke="black" points="0,-19.5 0,-38.5 41,-38.5 41,-19.5 0,-19.5"/>
<text text-anchor="middle" x="20.5" y="-26.5" font-family="Helvetica,sans-Serif" font-size="10.00">main</text>
</a>
</g>
</g>
<!-- Node6&#45;&gt;Node7 -->
<g id="edge6" class="edge">
<title>Node6&#45;&gt;Node7</title>
<path fill="none" stroke="midnightblue" d="M66.88,-29C57.87,-29 48.84,-29 41.24,-29"/>
<polygon fill="midnightblue" stroke="midnightblue" points="66.96,-32.5 76.96,-29 66.96,-25.5 66.96,-32.5"/>
</g>
<!-- Node8&#45;&gt;Node6 -->
<g id="edge8" class="edge">
<title>Node8&#45;&gt;Node6</title>
<path fill="none" stroke="midnightblue" d="M173.71,-20.43C164.82,-21.7 156.09,-22.94 148.16,-24.07"/>
<polygon fill="midnightblue" stroke="midnightblue" points="174.36,-23.87 183.77,-19 173.38,-16.94 174.36,-23.87"/>
</g>
<!-- Node9&#45;&gt;Node4 -->
<g id="edge10" class="edge">
<title>Node9&#45;&gt;Node4</title>
<path fill="none" stroke="midnightblue" d="M491.9,-16.6C479.35,-18.32 465.78,-20.18 453.06,-21.93"/>
<polygon fill="midnightblue" stroke="midnightblue" points="492.72,-20.02 502.15,-15.19 491.77,-13.08 492.72,-20.02"/>
</g>
</g>
</svg>
