<?xml version="1.0" encoding="UTF-8" standalone="no"?>
<!DOCTYPE svg PUBLIC "-//W3C//DTD SVG 1.1//EN"
 "http://www.w3.org/Graphics/SVG/1.1/DTD/svg11.dtd">
<!-- Generated by graphviz version 3.0.0 (0)
 -->
<!-- Title: renderCurve Pages: 1 -->
<svg width="376pt" height="66pt"
 viewBox="0.00 0.00 376.00 66.00" xmlns="http://www.w3.org/2000/svg" xmlns:xlink="http://www.w3.org/1999/xlink">
<g id="graph0" class="graph" transform="scale(1 1) rotate(0) translate(4 62)">
<title>renderCurve</title>
<polygon fill="white" stroke="transparent" points="-4,4 -4,-62 372,-62 372,4 -4,4"/>
<!-- Node1 -->
<g id="node1" class="node">
<title>Node1</title>
<g id="a_node1"><a xlink:title=" ">
<polygon fill="#bfbfbf" stroke="black" points="0,-19.5 0,-38.5 77,-38.5 77,-19.5 0,-19.5"/>
<text text-anchor="middle" x="38.5" y="-26.5" font-family="Helvetica,sans-Serif" font-size="10.00">renderCurve</text>
</a>
</g>
</g>
<!-- Node2 -->
<g id="node2" class="node">
<title>Node2</title>
<g id="a_node2"><a xlink:href="curves_8cpp.html#abe9fa1f2a311f275f92f5b46fb2f8490" target="_top" xlink:title=" ">
<polygon fill="white" stroke="black" points="113,-19.5 113,-38.5 243,-38.5 243,-19.5 113,-19.5"/>
<text text-anchor="middle" x="178" y="-26.5" font-family="Helvetica,sans-Serif" font-size="10.00">get_curve_global_point</text>
</a>
</g>
</g>
<!-- Node1&#45;&gt;Node2 -->
<g id="edge1" class="edge">
<title>Node1&#45;&gt;Node2</title>
<path fill="none" stroke="midnightblue" d="M77.07,-29C85.1,-29 93.85,-29 102.73,-29"/>
<polygon fill="midnightblue" stroke="midnightblue" points="102.77,-32.5 112.77,-29 102.77,-25.5 102.77,-32.5"/>
</g>
<!-- Node3 -->
<g id="node3" class="node">
<title>Node3</title>
<g id="a_node3"><a xlink:href="curves_8cpp.html#af68f8da25ecf53c589aa5d47f1f8e164" target="_top" xlink:title=" ">
<polygon fill="white" stroke="black" points="291,-38.5 291,-57.5 356,-57.5 356,-38.5 291,-38.5"/>
<text text-anchor="middle" x="323.5" y="-45.5" font-family="Helvetica,sans-Serif" font-size="10.00">get_curve</text>
</a>
</g>
</g>
<!-- Node2&#45;&gt;Node3 -->
<g id="edge2" class="edge">
<title>Node2&#45;&gt;Node3</title>
<path fill="none" stroke="midnightblue" d="M243.2,-37.5C256.01,-39.2 269.15,-40.94 280.95,-42.5"/>
<polygon fill="midnightblue" stroke="midnightblue" points="280.57,-45.98 290.94,-43.82 281.48,-39.04 280.57,-45.98"/>
</g>
<!-- Node4 -->
<g id="node4" class="node">
<title>Node4</title>
<g id="a_node4"><a xlink:href="curves_8cpp.html#afa648d7de8c941b50b26f02755a955b9" target="_top" xlink:title=" ">
<polygon fill="white" stroke="black" points="279,-0.5 279,-19.5 368,-19.5 368,-0.5 279,-0.5"/>
<text text-anchor="middle" x="323.5" y="-7.5" font-family="Helvetica,sans-Serif" font-size="10.00">get_curve_info</text>
</a>
</g>
</g>
<!-- Node2&#45;&gt;Node4 -->
<g id="edge3" class="edge">
<title>Node2&#45;&gt;Node4</title>
<path fill="none" stroke="midnightblue" d="M243.2,-20.5C251.79,-19.36 260.53,-18.21 268.92,-17.09"/>
<polygon fill="midnightblue" stroke="midnightblue" points="269.48,-20.55 278.94,-15.77 268.56,-13.61 269.48,-20.55"/>
</g>
</g>
</svg>
