<?xml version="1.0" encoding="UTF-8" standalone="no"?>
<!DOCTYPE svg PUBLIC "-//W3C//DTD SVG 1.1//EN"
 "http://www.w3.org/Graphics/SVG/1.1/DTD/svg11.dtd">
<!-- Generated by graphviz version 3.0.0 (0)
 -->
<!-- Title: src/engine.cpp Pages: 1 -->
<svg width="682pt" height="140pt"
 viewBox="0.00 0.00 682.00 140.00" xmlns="http://www.w3.org/2000/svg" xmlns:xlink="http://www.w3.org/1999/xlink">
<g id="graph0" class="graph" transform="scale(1 1) rotate(0) translate(4 136)">
<title>src/engine.cpp</title>
<polygon fill="white" stroke="transparent" points="-4,4 -4,-136 678,-136 678,4 -4,4"/>
<!-- Node1 -->
<g id="node1" class="node">
<title>Node1</title>
<g id="a_node1"><a xlink:title=" ">
<polygon fill="#bfbfbf" stroke="black" points="311.5,-112.5 311.5,-131.5 398.5,-131.5 398.5,-112.5 311.5,-112.5"/>
<text text-anchor="middle" x="355" y="-119.5" font-family="Helvetica,sans-Serif" font-size="10.00">src/engine.cpp</text>
</a>
</g>
</g>
<!-- Node2 -->
<g id="node2" class="node">
<title>Node2</title>
<g id="a_node2"><a xlink:title=" ">
<polygon fill="white" stroke="#bfbfbf" points="0,-56.5 0,-75.5 64,-75.5 64,-56.5 0,-56.5"/>
<text text-anchor="middle" x="32" y="-63.5" font-family="Helvetica,sans-Serif" font-size="10.00">GL/glew.h</text>
</a>
</g>
</g>
<!-- Node1&#45;&gt;Node2 -->
<g id="edge1" class="edge">
<title>Node1&#45;&gt;Node2</title>
<path fill="none" stroke="midnightblue" d="M311.39,-114.84C257.86,-107.1 164.11,-92.98 74.28,-76.15"/>
<polygon fill="midnightblue" stroke="midnightblue" points="74.67,-72.67 64.19,-74.25 73.37,-79.55 74.67,-72.67"/>
</g>
<!-- Node3 -->
<g id="node3" class="node">
<title>Node3</title>
<g id="a_node3"><a xlink:title=" ">
<polygon fill="white" stroke="#bfbfbf" points="82,-56.5 82,-75.5 142,-75.5 142,-56.5 82,-56.5"/>
<text text-anchor="middle" x="112" y="-63.5" font-family="Helvetica,sans-Serif" font-size="10.00">GL/glut.h</text>
</a>
</g>
</g>
<!-- Node1&#45;&gt;Node3 -->
<g id="edge2" class="edge">
<title>Node1&#45;&gt;Node3</title>
<path fill="none" stroke="midnightblue" d="M315.87,-112.49C276.87,-103.97 215,-90.4 152.29,-76.28"/>
<polygon fill="midnightblue" stroke="midnightblue" points="152.75,-72.79 142.23,-74.01 151.21,-79.62 152.75,-72.79"/>
</g>
<!-- Node4 -->
<g id="node4" class="node">
<title>Node4</title>
<g id="a_node4"><a xlink:title=" ">
<polygon fill="white" stroke="#bfbfbf" points="160.5,-56.5 160.5,-75.5 229.5,-75.5 229.5,-56.5 160.5,-56.5"/>
<text text-anchor="middle" x="195" y="-63.5" font-family="Helvetica,sans-Serif" font-size="10.00">tinyxml2.h</text>
</a>
</g>
</g>
<!-- Node1&#45;&gt;Node4 -->
<g id="edge3" class="edge">
<title>Node1&#45;&gt;Node4</title>
<path fill="none" stroke="midnightblue" d="M329.65,-112.44C302.73,-103.36 260,-88.94 229.91,-78.78"/>
<polygon fill="midnightblue" stroke="midnightblue" points="230.83,-75.4 220.23,-75.52 228.59,-82.03 230.83,-75.4"/>
</g>
<!-- Node5 -->
<g id="node5" class="node">
<title>Node5</title>
<g id="a_node5"><a xlink:title=" ">
<polygon fill="white" stroke="#bfbfbf" points="248,-56.5 248,-75.5 298,-75.5 298,-56.5 248,-56.5"/>
<text text-anchor="middle" x="273" y="-63.5" font-family="Helvetica,sans-Serif" font-size="10.00">stdio.h</text>
</a>
</g>
</g>
<!-- Node1&#45;&gt;Node5 -->
<g id="edge4" class="edge">
<title>Node1&#45;&gt;Node5</title>
<path fill="none" stroke="midnightblue" d="M341.83,-112.32C329.15,-103.98 309.77,-91.21 294.79,-81.35"/>
<polygon fill="midnightblue" stroke="midnightblue" points="296.42,-78.23 286.14,-75.65 292.57,-84.08 296.42,-78.23"/>
</g>
<!-- Node6 -->
<g id="node6" class="node">
<title>Node6</title>
<g id="a_node6"><a xlink:title=" ">
<polygon fill="white" stroke="#bfbfbf" points="361.5,-0.5 361.5,-19.5 408.5,-19.5 408.5,-0.5 361.5,-0.5"/>
<text text-anchor="middle" x="385" y="-7.5" font-family="Helvetica,sans-Serif" font-size="10.00">vector</text>
</a>
</g>
</g>
<!-- Node1&#45;&gt;Node6 -->
<g id="edge5" class="edge">
<title>Node1&#45;&gt;Node6</title>
<path fill="none" stroke="midnightblue" d="M350.95,-112.29C345.61,-99.54 337.7,-75.21 345,-56 349.34,-44.6 358.03,-34.24 366.21,-26.34"/>
<polygon fill="midnightblue" stroke="midnightblue" points="368.64,-28.86 373.73,-19.57 363.96,-23.66 368.64,-28.86"/>
</g>
<!-- Node7 -->
<g id="node7" class="node">
<title>Node7</title>
<g id="a_node7"><a xlink:href="parsing_8h.html" target="_top" xlink:title=" ">
<polygon fill="white" stroke="black" points="354,-56.5 354,-75.5 416,-75.5 416,-56.5 354,-56.5"/>
<text text-anchor="middle" x="385" y="-63.5" font-family="Helvetica,sans-Serif" font-size="10.00">parsing.h</text>
</a>
</g>
</g>
<!-- Node1&#45;&gt;Node7 -->
<g id="edge6" class="edge">
<title>Node1&#45;&gt;Node7</title>
<path fill="none" stroke="midnightblue" d="M359.95,-112.08C364.1,-104.61 370.15,-93.72 375.27,-84.52"/>
<polygon fill="midnightblue" stroke="midnightblue" points="378.34,-86.19 380.14,-75.75 372.22,-82.79 378.34,-86.19"/>
</g>
<!-- Node8 -->
<g id="node8" class="node">
<title>Node8</title>
<g id="a_node8"><a xlink:title=" ">
<polygon fill="white" stroke="#bfbfbf" points="434.5,-56.5 434.5,-75.5 481.5,-75.5 481.5,-56.5 434.5,-56.5"/>
<text text-anchor="middle" x="458" y="-63.5" font-family="Helvetica,sans-Serif" font-size="10.00">cmath</text>
</a>
</g>
</g>
<!-- Node1&#45;&gt;Node8 -->
<g id="edge8" class="edge">
<title>Node1&#45;&gt;Node8</title>
<path fill="none" stroke="midnightblue" d="M371.55,-112.32C387.99,-103.7 413.43,-90.36 432.47,-80.39"/>
<polygon fill="midnightblue" stroke="midnightblue" points="434.26,-83.4 441.49,-75.65 431.01,-77.2 434.26,-83.4"/>
</g>
<!-- Node9 -->
<g id="node9" class="node">
<title>Node9</title>
<g id="a_node9"><a xlink:href="curves_8h.html" target="_top" xlink:title=" ">
<polygon fill="white" stroke="black" points="500,-56.5 500,-75.5 558,-75.5 558,-56.5 500,-56.5"/>
<text text-anchor="middle" x="529" y="-63.5" font-family="Helvetica,sans-Serif" font-size="10.00">curves.h</text>
</a>
</g>
</g>
<!-- Node1&#45;&gt;Node9 -->
<g id="edge9" class="edge">
<title>Node1&#45;&gt;Node9</title>
<path fill="none" stroke="midnightblue" d="M382.57,-112.44C412.1,-103.28 459.12,-88.69 491.88,-78.52"/>
<polygon fill="midnightblue" stroke="midnightblue" points="493.04,-81.82 501.56,-75.52 490.97,-75.14 493.04,-81.82"/>
</g>
<!-- Node11 -->
<g id="node11" class="node">
<title>Node11</title>
<g id="a_node11"><a xlink:title=" ">
<polygon fill="white" stroke="#bfbfbf" points="547,-0.5 547,-19.5 625,-19.5 625,-0.5 547,-0.5"/>
<text text-anchor="middle" x="586" y="-7.5" font-family="Helvetica,sans-Serif" font-size="10.00">glm/glm.hpp</text>
</a>
</g>
</g>
<!-- Node1&#45;&gt;Node11 -->
<g id="edge13" class="edge">
<title>Node1&#45;&gt;Node11</title>
<path fill="none" stroke="midnightblue" d="M398.93,-116.96C453.69,-111.05 543,-98.26 567,-76 579.65,-64.27 584.04,-44.62 585.48,-30"/>
<polygon fill="midnightblue" stroke="midnightblue" points="589,-29.78 586.11,-19.59 582.02,-29.36 589,-29.78"/>
</g>
<!-- Node12 -->
<g id="node12" class="node">
<title>Node12</title>
<g id="a_node12"><a xlink:title=" ">
<polygon fill="white" stroke="#bfbfbf" points="614,-56.5 614,-75.5 674,-75.5 674,-56.5 614,-56.5"/>
<text text-anchor="middle" x="644" y="-63.5" font-family="Helvetica,sans-Serif" font-size="10.00">iostream</text>
</a>
</g>
</g>
<!-- Node1&#45;&gt;Node12 -->
<g id="edge14" class="edge">
<title>Node1&#45;&gt;Node12</title>
<path fill="none" stroke="midnightblue" d="M398.86,-113.22C447.93,-104.45 529.74,-89.64 600,-76 601.25,-75.76 602.52,-75.51 603.8,-75.26"/>
<polygon fill="midnightblue" stroke="midnightblue" points="604.6,-78.67 613.72,-73.28 603.23,-71.8 604.6,-78.67"/>
</g>
<!-- Node7&#45;&gt;Node6 -->
<g id="edge7" class="edge">
<title>Node7&#45;&gt;Node6</title>
<path fill="none" stroke="midnightblue" d="M385,-56.08C385,-49.01 385,-38.86 385,-29.99"/>
<polygon fill="midnightblue" stroke="midnightblue" points="388.5,-29.75 385,-19.75 381.5,-29.75 388.5,-29.75"/>
</g>
<!-- Node9&#45;&gt;Node6 -->
<g id="edge11" class="edge">
<title>Node9&#45;&gt;Node6</title>
<path fill="none" stroke="midnightblue" d="M506.18,-56.44C482.17,-47.44 444.17,-33.19 417.13,-23.05"/>
<polygon fill="midnightblue" stroke="midnightblue" points="418.3,-19.75 407.71,-19.52 415.84,-26.3 418.3,-19.75"/>
</g>
<!-- Node10 -->
<g id="node10" class="node">
<title>Node10</title>
<g id="a_node10"><a xlink:title=" ">
<polygon fill="white" stroke="#bfbfbf" points="487,-0.5 487,-19.5 529,-19.5 529,-0.5 487,-0.5"/>
<text text-anchor="middle" x="508" y="-7.5" font-family="Helvetica,sans-Serif" font-size="10.00">array</text>
</a>
</g>
</g>
<!-- Node9&#45;&gt;Node10 -->
<g id="edge10" class="edge">
<title>Node9&#45;&gt;Node10</title>
<path fill="none" stroke="midnightblue" d="M525.53,-56.08C522.69,-48.77 518.57,-38.18 515.04,-29.1"/>
<polygon fill="midnightblue" stroke="midnightblue" points="518.29,-27.8 511.4,-19.75 511.77,-30.34 518.29,-27.8"/>
</g>
<!-- Node9&#45;&gt;Node11 -->
<g id="edge12" class="edge">
<title>Node9&#45;&gt;Node11</title>
<path fill="none" stroke="midnightblue" d="M538.16,-56.32C546.5,-48.42 559.03,-36.55 569.18,-26.94"/>
<polygon fill="midnightblue" stroke="midnightblue" points="571.82,-29.25 576.68,-19.83 567.01,-24.17 571.82,-29.25"/>
</g>
</g>
</svg>
