<?xml version="1.0" encoding="UTF-8" standalone="no"?>
<!DOCTYPE svg PUBLIC "-//W3C//DTD SVG 1.1//EN"
 "http://www.w3.org/Graphics/SVG/1.1/DTD/svg11.dtd">
<!-- Generated by graphviz version 3.0.0 (0)
 -->
<!-- Title: src/generator.cpp Pages: 1 -->
<svg width="899pt" height="140pt"
 viewBox="0.00 0.00 898.61 140.00" xmlns="http://www.w3.org/2000/svg" xmlns:xlink="http://www.w3.org/1999/xlink">
<g id="graph0" class="graph" transform="scale(1 1) rotate(0) translate(4 136)">
<title>src/generator.cpp</title>
<polygon fill="white" stroke="transparent" points="-4,4 -4,-136 894.61,-136 894.61,4 -4,4"/>
<!-- Node1 -->
<g id="node1" class="node">
<title>Node1</title>
<g id="a_node1"><a xlink:title=" ">
<polygon fill="#bfbfbf" stroke="black" points="447,-112.5 447,-131.5 548,-131.5 548,-112.5 447,-112.5"/>
<text text-anchor="middle" x="497.5" y="-119.5" font-family="Helvetica,sans-Serif" font-size="10.00">src/generator.cpp</text>
</a>
</g>
</g>
<!-- Node2 -->
<g id="node2" class="node">
<title>Node2</title>
<g id="a_node2"><a xlink:title=" ">
<polygon fill="white" stroke="#bfbfbf" points="0,-56.5 0,-75.5 51,-75.5 51,-56.5 0,-56.5"/>
<text text-anchor="middle" x="25.5" y="-63.5" font-family="Helvetica,sans-Serif" font-size="10.00">math.h</text>
</a>
</g>
</g>
<!-- Node1&#45;&gt;Node2 -->
<g id="edge1" class="edge">
<title>Node1&#45;&gt;Node2</title>
<path fill="none" stroke="midnightblue" d="M446.69,-118.23C366.69,-113.34 206.42,-101.35 61.02,-75.81"/>
<polygon fill="midnightblue" stroke="midnightblue" points="61.48,-72.34 51.02,-74.03 60.25,-79.23 61.48,-72.34"/>
</g>
<!-- Node3 -->
<g id="node3" class="node">
<title>Node3</title>
<g id="a_node3"><a xlink:title=" ">
<polygon fill="white" stroke="#bfbfbf" points="69.5,-56.5 69.5,-75.5 119.5,-75.5 119.5,-56.5 69.5,-56.5"/>
<text text-anchor="middle" x="94.5" y="-63.5" font-family="Helvetica,sans-Serif" font-size="10.00">stdio.h</text>
</a>
</g>
</g>
<!-- Node1&#45;&gt;Node3 -->
<g id="edge2" class="edge">
<title>Node1&#45;&gt;Node3</title>
<path fill="none" stroke="midnightblue" d="M446.72,-117.03C377.22,-111.11 248.44,-98.39 129.65,-75.99"/>
<polygon fill="midnightblue" stroke="midnightblue" points="130.14,-72.52 119.66,-74.07 128.83,-79.39 130.14,-72.52"/>
</g>
<!-- Node4 -->
<g id="node4" class="node">
<title>Node4</title>
<g id="a_node4"><a xlink:title=" ">
<polygon fill="white" stroke="#bfbfbf" points="138,-56.5 138,-75.5 191,-75.5 191,-56.5 138,-56.5"/>
<text text-anchor="middle" x="164.5" y="-63.5" font-family="Helvetica,sans-Serif" font-size="10.00">string.h</text>
</a>
</g>
</g>
<!-- Node1&#45;&gt;Node4 -->
<g id="edge3" class="edge">
<title>Node1&#45;&gt;Node4</title>
<path fill="none" stroke="midnightblue" d="M446.87,-114.95C389.45,-107.74 292.86,-94.53 201.19,-76.19"/>
<polygon fill="midnightblue" stroke="midnightblue" points="201.68,-72.72 191.19,-74.16 200.29,-79.58 201.68,-72.72"/>
</g>
<!-- Node5 -->
<g id="node5" class="node">
<title>Node5</title>
<g id="a_node5"><a xlink:title=" ">
<polygon fill="white" stroke="#bfbfbf" points="209,-56.5 209,-75.5 262,-75.5 262,-56.5 209,-56.5"/>
<text text-anchor="middle" x="235.5" y="-63.5" font-family="Helvetica,sans-Serif" font-size="10.00">stdlib.h</text>
</a>
</g>
</g>
<!-- Node1&#45;&gt;Node5 -->
<g id="edge4" class="edge">
<title>Node1&#45;&gt;Node5</title>
<path fill="none" stroke="midnightblue" d="M454.68,-112.48C410.13,-103.57 338.37,-89.09 276.5,-76 275.22,-75.73 273.91,-75.45 272.59,-75.17"/>
<polygon fill="midnightblue" stroke="midnightblue" points="272.91,-71.66 262.39,-72.96 271.43,-78.5 272.91,-71.66"/>
</g>
<!-- Node6 -->
<g id="node6" class="node">
<title>Node6</title>
<g id="a_node6"><a xlink:title=" ">
<polygon fill="white" stroke="#bfbfbf" points="316.5,-0.5 316.5,-19.5 394.5,-19.5 394.5,-0.5 316.5,-0.5"/>
<text text-anchor="middle" x="355.5" y="-7.5" font-family="Helvetica,sans-Serif" font-size="10.00">glm/glm.hpp</text>
</a>
</g>
</g>
<!-- Node1&#45;&gt;Node6 -->
<g id="edge5" class="edge">
<title>Node1&#45;&gt;Node6</title>
<path fill="none" stroke="midnightblue" d="M446.88,-115.89C397.15,-109.69 326.34,-97.34 309.5,-76 296.25,-59.21 315.81,-38.98 333.37,-25.59"/>
<polygon fill="midnightblue" stroke="midnightblue" points="335.6,-28.3 341.67,-19.62 331.51,-22.62 335.6,-28.3"/>
</g>
<!-- Node7 -->
<g id="node7" class="node">
<title>Node7</title>
<g id="a_node7"><a xlink:title=" ">
<polygon fill="white" stroke="#bfbfbf" points="319,-56.5 319,-75.5 450,-75.5 450,-56.5 319,-56.5"/>
<text text-anchor="middle" x="384.5" y="-63.5" font-family="Helvetica,sans-Serif" font-size="10.00">glm/gtx/string_cast.hpp</text>
</a>
</g>
</g>
<!-- Node1&#45;&gt;Node7 -->
<g id="edge6" class="edge">
<title>Node1&#45;&gt;Node7</title>
<path fill="none" stroke="midnightblue" d="M479.59,-112.44C461.25,-103.68 432.49,-89.94 411.41,-79.86"/>
<polygon fill="midnightblue" stroke="midnightblue" points="412.85,-76.67 402.32,-75.52 409.83,-82.99 412.85,-76.67"/>
</g>
<!-- Node8 -->
<g id="node8" class="node">
<title>Node8</title>
<g id="a_node8"><a xlink:title=" ">
<polygon fill="white" stroke="#bfbfbf" points="707,-0.5 707,-19.5 754,-19.5 754,-0.5 707,-0.5"/>
<text text-anchor="middle" x="730.5" y="-7.5" font-family="Helvetica,sans-Serif" font-size="10.00">vector</text>
</a>
</g>
</g>
<!-- Node1&#45;&gt;Node8 -->
<g id="edge7" class="edge">
<title>Node1&#45;&gt;Node8</title>
<path fill="none" stroke="midnightblue" d="M548.18,-118.76C647.64,-113.86 860.63,-100.57 882.5,-76 918.44,-35.62 819.2,-19.47 764.25,-13.76"/>
<polygon fill="midnightblue" stroke="midnightblue" points="764.52,-10.27 754.23,-12.78 763.84,-17.23 764.52,-10.27"/>
</g>
<!-- Node9 -->
<g id="node9" class="node">
<title>Node9</title>
<g id="a_node9"><a xlink:title=" ">
<polygon fill="white" stroke="#bfbfbf" points="544.5,-56.5 544.5,-75.5 588.5,-75.5 588.5,-56.5 544.5,-56.5"/>
<text text-anchor="middle" x="566.5" y="-63.5" font-family="Helvetica,sans-Serif" font-size="10.00">string</text>
</a>
</g>
</g>
<!-- Node1&#45;&gt;Node9 -->
<g id="edge8" class="edge">
<title>Node1&#45;&gt;Node9</title>
<path fill="none" stroke="midnightblue" d="M508.59,-112.32C518.99,-104.18 534.76,-91.84 547.22,-82.09"/>
<polygon fill="midnightblue" stroke="midnightblue" points="549.49,-84.75 555.21,-75.83 545.18,-79.24 549.49,-84.75"/>
</g>
<!-- Node10 -->
<g id="node10" class="node">
<title>Node10</title>
<g id="a_node10"><a xlink:title=" ">
<polygon fill="white" stroke="#bfbfbf" points="606.5,-56.5 606.5,-75.5 662.5,-75.5 662.5,-56.5 606.5,-56.5"/>
<text text-anchor="middle" x="634.5" y="-63.5" font-family="Helvetica,sans-Serif" font-size="10.00">sstream</text>
</a>
</g>
</g>
<!-- Node1&#45;&gt;Node10 -->
<g id="edge9" class="edge">
<title>Node1&#45;&gt;Node10</title>
<path fill="none" stroke="midnightblue" d="M519.21,-112.44C541.85,-103.52 577.57,-89.44 603.25,-79.32"/>
<polygon fill="midnightblue" stroke="midnightblue" points="604.87,-82.44 612.89,-75.52 602.31,-75.93 604.87,-82.44"/>
</g>
<!-- Node11 -->
<g id="node11" class="node">
<title>Node11</title>
<g id="a_node11"><a xlink:title=" ">
<polygon fill="white" stroke="#bfbfbf" points="681,-56.5 681,-75.5 736,-75.5 736,-56.5 681,-56.5"/>
<text text-anchor="middle" x="708.5" y="-63.5" font-family="Helvetica,sans-Serif" font-size="10.00">fstream</text>
</a>
</g>
</g>
<!-- Node1&#45;&gt;Node11 -->
<g id="edge10" class="edge">
<title>Node1&#45;&gt;Node11</title>
<path fill="none" stroke="midnightblue" d="M530.93,-112.44C569.1,-102.68 631.36,-86.74 671.1,-76.57"/>
<polygon fill="midnightblue" stroke="midnightblue" points="672.12,-79.92 680.94,-74.05 670.38,-73.14 672.12,-79.92"/>
</g>
<!-- Node12 -->
<g id="node12" class="node">
<title>Node12</title>
<g id="a_node12"><a xlink:title=" ">
<polygon fill="white" stroke="#bfbfbf" points="754,-56.5 754,-75.5 795,-75.5 795,-56.5 754,-56.5"/>
<text text-anchor="middle" x="774.5" y="-63.5" font-family="Helvetica,sans-Serif" font-size="10.00">tuple</text>
</a>
</g>
</g>
<!-- Node1&#45;&gt;Node12 -->
<g id="edge11" class="edge">
<title>Node1&#45;&gt;Node12</title>
<path fill="none" stroke="midnightblue" d="M548.23,-113.64C596.45,-106.24 671.16,-93.69 744.17,-76.1"/>
<polygon fill="midnightblue" stroke="midnightblue" points="745.11,-79.48 753.99,-73.7 743.45,-72.68 745.11,-79.48"/>
</g>
<!-- Node13 -->
<g id="node13" class="node">
<title>Node13</title>
<g id="a_node13"><a xlink:title=" ">
<polygon fill="white" stroke="#bfbfbf" points="813.5,-56.5 813.5,-75.5 873.5,-75.5 873.5,-56.5 813.5,-56.5"/>
<text text-anchor="middle" x="843.5" y="-63.5" font-family="Helvetica,sans-Serif" font-size="10.00">iostream</text>
</a>
</g>
</g>
<!-- Node1&#45;&gt;Node13 -->
<g id="edge12" class="edge">
<title>Node1&#45;&gt;Node13</title>
<path fill="none" stroke="midnightblue" d="M548.23,-114.85C607.25,-107.4 707.81,-93.84 803.48,-76.07"/>
<polygon fill="midnightblue" stroke="midnightblue" points="804.13,-79.5 813.32,-74.22 802.84,-72.62 804.13,-79.5"/>
</g>
<!-- Node14 -->
<g id="node14" class="node">
<title>Node14</title>
<g id="a_node14"><a xlink:href="curves_8h.html" target="_top" xlink:title=" ">
<polygon fill="white" stroke="black" points="468.5,-56.5 468.5,-75.5 526.5,-75.5 526.5,-56.5 468.5,-56.5"/>
<text text-anchor="middle" x="497.5" y="-63.5" font-family="Helvetica,sans-Serif" font-size="10.00">curves.h</text>
</a>
</g>
</g>
<!-- Node1&#45;&gt;Node14 -->
<g id="edge13" class="edge">
<title>Node1&#45;&gt;Node14</title>
<path fill="none" stroke="midnightblue" d="M497.5,-112.08C497.5,-105.01 497.5,-94.86 497.5,-85.99"/>
<polygon fill="midnightblue" stroke="midnightblue" points="501,-85.75 497.5,-75.75 494,-85.75 501,-85.75"/>
</g>
<!-- Node14&#45;&gt;Node6 -->
<g id="edge16" class="edge">
<title>Node14&#45;&gt;Node6</title>
<path fill="none" stroke="midnightblue" d="M475,-56.44C451.42,-47.48 414.18,-33.31 387.54,-23.18"/>
<polygon fill="midnightblue" stroke="midnightblue" points="388.49,-19.8 377.9,-19.52 386,-26.34 388.49,-19.8"/>
</g>
<!-- Node14&#45;&gt;Node8 -->
<g id="edge15" class="edge">
<title>Node14&#45;&gt;Node8</title>
<path fill="none" stroke="midnightblue" d="M526.54,-58.1C529.57,-57.39 532.6,-56.68 535.5,-56 591.94,-42.8 657.62,-27.7 696.54,-18.77"/>
<polygon fill="midnightblue" stroke="midnightblue" points="697.81,-22.07 706.78,-16.43 696.25,-15.25 697.81,-22.07"/>
</g>
<!-- Node15 -->
<g id="node15" class="node">
<title>Node15</title>
<g id="a_node15"><a xlink:title=" ">
<polygon fill="white" stroke="#bfbfbf" points="476.5,-0.5 476.5,-19.5 518.5,-19.5 518.5,-0.5 476.5,-0.5"/>
<text text-anchor="middle" x="497.5" y="-7.5" font-family="Helvetica,sans-Serif" font-size="10.00">array</text>
</a>
</g>
</g>
<!-- Node14&#45;&gt;Node15 -->
<g id="edge14" class="edge">
<title>Node14&#45;&gt;Node15</title>
<path fill="none" stroke="midnightblue" d="M497.5,-56.08C497.5,-49.01 497.5,-38.86 497.5,-29.99"/>
<polygon fill="midnightblue" stroke="midnightblue" points="501,-29.75 497.5,-19.75 494,-29.75 501,-29.75"/>
</g>
</g>
</svg>
