<?xml version="1.0" encoding="UTF-8" standalone="no"?>
<!DOCTYPE svg PUBLIC "-//W3C//DTD SVG 1.1//EN"
 "http://www.w3.org/Graphics/SVG/1.1/DTD/svg11.dtd">
<!-- Generated by graphviz version 3.0.0 (0)
 -->
<!-- Title: main Pages: 1 -->
<!--zoomable 408 -->
<svg id="main" version="1.1" xmlns="http://www.w3.org/2000/svg" xmlns:xlink="http://www.w3.org/1999/xlink" xml:space="preserve" onload="init(evt)">
<style type="text/css"><![CDATA[
.edge:hover path { stroke: red; }
.edge:hover polygon { stroke: red; fill: red; }
]]></style>
<script type="text/javascript"><![CDATA[
var edges = document.getElementsByTagName('g');
if (edges && edges.length) {
  for (var i=0;i<edges.length;i++) {
    if (edges[i].id.substr(0,4)=='edge') {
      edges[i].setAttribute('class','edge');
    }
  }
}
]]></script>
        <defs>
                <circle id="rim" cx="0" cy="0" r="7"/>
                <circle id="rim2" cx="0" cy="0" r="3.5"/>
                <g id="zoomPlus">
                        <use xlink:href="#rim" fill="#404040">
                                <set attributeName="fill" to="#808080" begin="zoomplus.mouseover" end="zoomplus.mouseout"/>
                        </use>
                        <path d="M-4,0h8M0,-4v8" fill="none" stroke="white" stroke-width="1.5" pointer-events="none"/>
                </g>
                <g id="zoomMin">
                        <use xlink:href="#rim" fill="#404040">
                                <set attributeName="fill" to="#808080" begin="zoomminus.mouseover" end="zoomminus.mouseout"/>
                        </use>
                        <path d="M-4,0h8" fill="none" stroke="white" stroke-width="1.5" pointer-events="none"/>
                </g>
                <g id="dirArrow">
                        <path fill="none" stroke="white" stroke-width="1.5" d="M0,-3.0v7 M-2.5,-0.5L0,-3.0L2.5,-0.5"/>
                </g>
               <g id="resetDef">
                       <use xlink:href="#rim2" fill="#404040">
                               <set attributeName="fill" to="#808080" begin="reset.mouseover" end="reset.mouseout"/>
                       </use>
               </g>
        </defs>

<script type="text/javascript">
var viewWidth = 769;
var viewHeight = 408;
var sectionId = 'dynsection-1';
</script>
<script xlink:href="svgpan.js"/>
<svg id="graph" class="graph">
<g id="viewport">
<title>main</title>
<polygon fill="white" stroke="transparent" points="-4,4 -4,-404 765,-404 765,4 -4,4"/>
<!-- Node1 -->
<g id="node1" class="node">
<title>Node1</title>
<g id="a_node1"><a xlink:title=" ">
<polygon fill="#bfbfbf" stroke="black" points="0,-190.5 0,-209.5 41,-209.5 41,-190.5 0,-190.5"/>
<text text-anchor="middle" x="20.5" y="-197.5" font-family="Helvetica,sans-Serif" font-size="10.00">main</text>
</a>
</g>
</g>
<!-- Node2 -->
<g id="node2" class="node">
<title>Node2</title>
<g id="a_node2"><a xlink:href="group__sphere.html#ga6a7ebb50b44e4785bda364ba2bdb12d7" target="_top" xlink:title=" ">
<polygon fill="white" stroke="black" points="78.5,-313.5 78.5,-332.5 191.5,-332.5 191.5,-313.5 78.5,-313.5"/>
<text text-anchor="middle" x="135" y="-320.5" font-family="Helvetica,sans-Serif" font-size="10.00">model_bezier_write</text>
</a>
</g>
</g>
<!-- Node1&#45;&gt;Node2 -->
<g id="edge1" class="edge">
<title>Node1&#45;&gt;Node2</title>
<path fill="none" stroke="midnightblue" d="M27.46,-209.71C36.94,-224.76 56.49,-254.25 77,-276 87.8,-287.45 101.34,-298.73 112.52,-307.36"/>
<polygon fill="midnightblue" stroke="midnightblue" points="110.43,-310.17 120.52,-313.41 114.65,-304.58 110.43,-310.17"/>
</g>
<!-- Node9 -->
<g id="node9" class="node">
<title>Node9</title>
<g id="a_node9"><a xlink:href="group__cone.html#ga91bcf93d6d83f4837ac94093d869af78" target="_top" xlink:title=" ">
<polygon fill="white" stroke="black" points="82,-247.5 82,-266.5 188,-266.5 188,-247.5 82,-247.5"/>
<text text-anchor="middle" x="135" y="-254.5" font-family="Helvetica,sans-Serif" font-size="10.00">model_cone_write</text>
</a>
</g>
</g>
<!-- Node1&#45;&gt;Node9 -->
<g id="edge8" class="edge">
<title>Node1&#45;&gt;Node9</title>
<path fill="none" stroke="midnightblue" d="M40.33,-209.54C58.26,-218.62 85.47,-232.41 105.95,-242.79"/>
<polygon fill="midnightblue" stroke="midnightblue" points="104.61,-246.03 115.11,-247.43 107.77,-239.79 104.61,-246.03"/>
</g>
<!-- Node14 -->
<g id="node14" class="node">
<title>Node14</title>
<g id="a_node14"><a xlink:href="group__cube.html#gad6fe75a034b53925563817d6efd139a0" target="_top" xlink:title=" ">
<polygon fill="white" stroke="black" points="82,-190.5 82,-209.5 188,-209.5 188,-190.5 82,-190.5"/>
<text text-anchor="middle" x="135" y="-197.5" font-family="Helvetica,sans-Serif" font-size="10.00">model_cube_write</text>
</a>
</g>
</g>
<!-- Node1&#45;&gt;Node14 -->
<g id="edge15" class="edge">
<title>Node1&#45;&gt;Node14</title>
<path fill="none" stroke="midnightblue" d="M41.1,-200C49.77,-200 60.51,-200 71.57,-200"/>
<polygon fill="midnightblue" stroke="midnightblue" points="71.76,-203.5 81.76,-200 71.76,-196.5 71.76,-203.5"/>
</g>
<!-- Node17 -->
<g id="node17" class="node">
<title>Node17</title>
<g id="a_node17"><a xlink:href="group__plane.html#ga5e8bda3b029f10d274a294c697a622cd" target="_top" xlink:title=" ">
<polygon fill="white" stroke="black" points="80,-133.5 80,-152.5 190,-152.5 190,-133.5 80,-133.5"/>
<text text-anchor="middle" x="135" y="-140.5" font-family="Helvetica,sans-Serif" font-size="10.00">model_plane_write</text>
</a>
</g>
</g>
<!-- Node1&#45;&gt;Node17 -->
<g id="edge20" class="edge">
<title>Node1&#45;&gt;Node17</title>
<path fill="none" stroke="midnightblue" d="M40.33,-190.46C58.26,-181.38 85.47,-167.59 105.95,-157.21"/>
<polygon fill="midnightblue" stroke="midnightblue" points="107.77,-160.21 115.11,-152.57 104.61,-153.97 107.77,-160.21"/>
</g>
<!-- Node20 -->
<g id="node20" class="node">
<title>Node20</title>
<g id="a_node20"><a xlink:href="group__sphere.html#gac12b373e99ed20d69a86f42d7fbba274" target="_top" xlink:title=" ">
<polygon fill="white" stroke="black" points="77,-57.5 77,-76.5 193,-76.5 193,-57.5 77,-57.5"/>
<text text-anchor="middle" x="135" y="-64.5" font-family="Helvetica,sans-Serif" font-size="10.00">model_sphere_write</text>
</a>
</g>
</g>
<!-- Node1&#45;&gt;Node20 -->
<g id="edge25" class="edge">
<title>Node1&#45;&gt;Node20</title>
<path fill="none" stroke="midnightblue" d="M27.88,-190.28C37.77,-175.47 57.66,-146.59 77,-124 89.28,-109.66 104.44,-94.61 116.04,-83.58"/>
<polygon fill="midnightblue" stroke="midnightblue" points="118.53,-86.04 123.42,-76.64 113.74,-80.94 118.53,-86.04"/>
</g>
<!-- Node3 -->
<g id="node3" class="node">
<title>Node3</title>
<g id="a_node3"><a xlink:href="curves_8cpp.html#ad80a7305d57dbb5359a411d6e7a9e307" target="_top" xlink:title=" ">
<polygon fill="white" stroke="black" points="243,-342.5 243,-361.5 352,-361.5 352,-342.5 243,-342.5"/>
<text text-anchor="middle" x="297.5" y="-349.5" font-family="Helvetica,sans-Serif" font-size="10.00">get_bezier_surface</text>
</a>
</g>
</g>
<!-- Node2&#45;&gt;Node3 -->
<g id="edge2" class="edge">
<title>Node2&#45;&gt;Node3</title>
<path fill="none" stroke="midnightblue" d="M189,-332.58C203.32,-335.16 218.95,-337.99 233.75,-340.66"/>
<polygon fill="midnightblue" stroke="midnightblue" points="233.37,-344.15 243.83,-342.48 234.61,-337.26 233.37,-344.15"/>
</g>
<!-- Node7 -->
<g id="node7" class="node">
<title>Node7</title>
<g id="a_node7"><a xlink:href="group__points.html#gab0ec2dac46ec7ee44911b8bcf1e9dad0" target="_top" xlink:title=" ">
<polygon fill="white" stroke="black" points="259,-228.5 259,-247.5 336,-247.5 336,-228.5 259,-228.5"/>
<text text-anchor="middle" x="297.5" y="-235.5" font-family="Helvetica,sans-Serif" font-size="10.00">points_write</text>
</a>
</g>
</g>
<!-- Node2&#45;&gt;Node7 -->
<g id="edge6" class="edge">
<title>Node2&#45;&gt;Node7</title>
<path fill="none" stroke="midnightblue" d="M146.94,-313.3C163.56,-299.05 196.67,-272.45 229,-257 235.27,-254 242.11,-251.4 248.94,-249.16"/>
<polygon fill="midnightblue" stroke="midnightblue" points="250.33,-252.39 258.88,-246.13 248.29,-245.69 250.33,-252.39"/>
</g>
<!-- Node8 -->
<g id="node8" class="node">
<title>Node8</title>
<g id="a_node8"><a xlink:href="group__sphere.html#gaea877a3a75fd71b0cf07e993d4b6fe16" target="_top" xlink:title=" ">
<polygon fill="white" stroke="black" points="260.5,-380.5 260.5,-399.5 334.5,-399.5 334.5,-380.5 260.5,-380.5"/>
<text text-anchor="middle" x="297.5" y="-387.5" font-family="Helvetica,sans-Serif" font-size="10.00">read_Bezier</text>
</a>
</g>
</g>
<!-- Node2&#45;&gt;Node8 -->
<g id="edge7" class="edge">
<title>Node2&#45;&gt;Node8</title>
<path fill="none" stroke="midnightblue" d="M152,-332.53C170.17,-343.04 200.94,-359.94 229,-371 235.85,-373.7 243.24,-376.19 250.52,-378.41"/>
<polygon fill="midnightblue" stroke="midnightblue" points="249.74,-381.83 260.32,-381.27 251.7,-375.11 249.74,-381.83"/>
</g>
<!-- Node4 -->
<g id="node4" class="node">
<title>Node4</title>
<g id="a_node4"><a xlink:href="curves_8cpp.html#acd318fe2ec3011922c3f4d9d7590b168" target="_top" xlink:title=" ">
<polygon fill="white" stroke="black" points="414,-342.5 414,-361.5 514,-361.5 514,-342.5 414,-342.5"/>
<text text-anchor="middle" x="464" y="-349.5" font-family="Helvetica,sans-Serif" font-size="10.00">get_bezier_patch</text>
</a>
</g>
</g>
<!-- Node3&#45;&gt;Node4 -->
<g id="edge3" class="edge">
<title>Node3&#45;&gt;Node4</title>
<path fill="none" stroke="midnightblue" d="M352.36,-352C368.74,-352 386.82,-352 403.54,-352"/>
<polygon fill="midnightblue" stroke="midnightblue" points="403.75,-355.5 413.75,-352 403.75,-348.5 403.75,-355.5"/>
</g>
<!-- Node5 -->
<g id="node5" class="node">
<title>Node5</title>
<g id="a_node5"><a xlink:href="curves_8cpp.html#ae1f2aea35fc8ca6d56097bc3b7824c07" target="_top" xlink:title=" ">
<polygon fill="white" stroke="black" points="562,-342.5 562,-361.5 660,-361.5 660,-342.5 562,-342.5"/>
<text text-anchor="middle" x="611" y="-349.5" font-family="Helvetica,sans-Serif" font-size="10.00">get_bezier_point</text>
</a>
</g>
</g>
<!-- Node4&#45;&gt;Node5 -->
<g id="edge4" class="edge">
<title>Node4&#45;&gt;Node5</title>
<path fill="none" stroke="midnightblue" d="M514.09,-352C526.16,-352 539.19,-352 551.65,-352"/>
<polygon fill="midnightblue" stroke="midnightblue" points="551.94,-355.5 561.94,-352 551.94,-348.5 551.94,-355.5"/>
</g>
<!-- Node6 -->
<g id="node6" class="node">
<title>Node6</title>
<g id="a_node6"><a xlink:href="curves_8cpp.html#af68f8da25ecf53c589aa5d47f1f8e164" target="_top" xlink:title=" ">
<polygon fill="white" stroke="black" points="696,-342.5 696,-361.5 761,-361.5 761,-342.5 696,-342.5"/>
<text text-anchor="middle" x="728.5" y="-349.5" font-family="Helvetica,sans-Serif" font-size="10.00">get_curve</text>
</a>
</g>
</g>
<!-- Node5&#45;&gt;Node6 -->
<g id="edge5" class="edge">
<title>Node5&#45;&gt;Node6</title>
<path fill="none" stroke="midnightblue" d="M660.31,-352C668.75,-352 677.45,-352 685.69,-352"/>
<polygon fill="midnightblue" stroke="midnightblue" points="685.82,-355.5 695.82,-352 685.82,-348.5 685.82,-355.5"/>
</g>
<!-- Node9&#45;&gt;Node7 -->
<g id="edge14" class="edge">
<title>Node9&#45;&gt;Node7</title>
<path fill="none" stroke="midnightblue" d="M188.11,-250.83C207.66,-248.52 229.77,-245.9 248.89,-243.64"/>
<polygon fill="midnightblue" stroke="midnightblue" points="249.36,-247.1 258.88,-242.45 248.54,-240.15 249.36,-247.1"/>
</g>
<!-- Node10 -->
<g id="node10" class="node">
<title>Node10</title>
<g id="a_node10"><a xlink:href="group__cone.html#ga5b5f2964e2c773066361e823daa9211d" target="_top" xlink:title=" ">
<polygon fill="white" stroke="black" points="234,-304.5 234,-323.5 361,-323.5 361,-304.5 234,-304.5"/>
<text text-anchor="middle" x="297.5" y="-311.5" font-family="Helvetica,sans-Serif" font-size="10.00">model_cone_nVertices</text>
</a>
</g>
</g>
<!-- Node9&#45;&gt;Node10 -->
<g id="edge9" class="edge">
<title>Node9&#45;&gt;Node10</title>
<path fill="none" stroke="midnightblue" d="M157.53,-266.61C176.21,-274.76 204.09,-286.44 229,-295 235.81,-297.34 243.07,-299.61 250.22,-301.72"/>
<polygon fill="midnightblue" stroke="midnightblue" points="249.26,-305.09 259.83,-304.5 251.19,-298.36 249.26,-305.09"/>
</g>
<!-- Node11 -->
<g id="node11" class="node">
<title>Node11</title>
<g id="a_node11"><a xlink:href="group__cone.html#gaed448e670b4c08b141dc96be90fc444a" target="_top" xlink:title=" ">
<polygon fill="white" stroke="black" points="237.5,-266.5 237.5,-285.5 357.5,-285.5 357.5,-266.5 237.5,-266.5"/>
<text text-anchor="middle" x="297.5" y="-273.5" font-family="Helvetica,sans-Serif" font-size="10.00">model_cone_vertices</text>
</a>
</g>
</g>
<!-- Node9&#45;&gt;Node11 -->
<g id="edge10" class="edge">
<title>Node9&#45;&gt;Node11</title>
<path fill="none" stroke="midnightblue" d="M188.11,-263.17C200.66,-264.65 214.25,-266.26 227.44,-267.82"/>
<polygon fill="midnightblue" stroke="midnightblue" points="227.07,-271.31 237.42,-269.01 227.9,-264.35 227.07,-271.31"/>
</g>
<!-- Node12 -->
<g id="node12" class="node">
<title>Node12</title>
<g id="a_node12"><a xlink:href="group__cone.html#ga30e1b3df23e49e33821bac9f6bf679db" target="_top" xlink:title=" ">
<polygon fill="white" stroke="black" points="407.5,-228.5 407.5,-247.5 520.5,-247.5 520.5,-228.5 407.5,-228.5"/>
<text text-anchor="middle" x="464" y="-235.5" font-family="Helvetica,sans-Serif" font-size="10.00">model_cone_vertex</text>
</a>
</g>
</g>
<!-- Node11&#45;&gt;Node12 -->
<g id="edge11" class="edge">
<title>Node11&#45;&gt;Node12</title>
<path fill="none" stroke="midnightblue" d="M340.01,-266.41C361.82,-261.37 388.73,-255.16 411.82,-249.82"/>
<polygon fill="midnightblue" stroke="midnightblue" points="412.83,-253.18 421.79,-247.52 411.26,-246.36 412.83,-253.18"/>
</g>
<!-- Node13 -->
<g id="node13" class="node">
<title>Node13</title>
<g id="a_node13"><a xlink:href="group__points.html#ga127fb8e56ec1e38505cdd9ea6efa2cf6" target="_top" xlink:title=" ">
<polygon fill="white" stroke="black" points="569.5,-190.5 569.5,-209.5 652.5,-209.5 652.5,-190.5 569.5,-190.5"/>
<text text-anchor="middle" x="611" y="-197.5" font-family="Helvetica,sans-Serif" font-size="10.00">points_vertex</text>
</a>
</g>
</g>
<!-- Node11&#45;&gt;Node13 -->
<g id="edge13" class="edge">
<title>Node11&#45;&gt;Node13</title>
<path fill="none" stroke="midnightblue" d="M357.71,-279.17C404.66,-279.78 471.26,-276.35 526,-257 550.96,-248.18 575.54,-230.09 591.6,-216.64"/>
<polygon fill="midnightblue" stroke="midnightblue" points="594.32,-218.92 599.6,-209.74 589.74,-213.63 594.32,-218.92"/>
</g>
<!-- Node12&#45;&gt;Node13 -->
<g id="edge12" class="edge">
<title>Node12&#45;&gt;Node13</title>
<path fill="none" stroke="midnightblue" d="M501.59,-228.41C520.47,-223.46 543.69,-217.38 563.79,-212.11"/>
<polygon fill="midnightblue" stroke="midnightblue" points="564.89,-215.44 573.67,-209.52 563.11,-208.67 564.89,-215.44"/>
</g>
<!-- Node14&#45;&gt;Node7 -->
<g id="edge19" class="edge">
<title>Node14&#45;&gt;Node7</title>
<path fill="none" stroke="midnightblue" d="M176.5,-209.59C198.5,-214.8 225.84,-221.27 248.86,-226.72"/>
<polygon fill="midnightblue" stroke="midnightblue" points="248.23,-230.17 258.77,-229.07 249.84,-223.36 248.23,-230.17"/>
</g>
<!-- Node15 -->
<g id="node15" class="node">
<title>Node15</title>
<g id="a_node15"><a xlink:href="group__cube.html#ga029b7906dd04b97c96cca5dd9a9db601" target="_top" xlink:title=" ">
<polygon fill="white" stroke="black" points="234,-152.5 234,-171.5 361,-171.5 361,-152.5 234,-152.5"/>
<text text-anchor="middle" x="297.5" y="-159.5" font-family="Helvetica,sans-Serif" font-size="10.00">model_cube_nVertices</text>
</a>
</g>
</g>
<!-- Node14&#45;&gt;Node15 -->
<g id="edge16" class="edge">
<title>Node14&#45;&gt;Node15</title>
<path fill="none" stroke="midnightblue" d="M176.5,-190.41C197.68,-185.4 223.8,-179.21 246.26,-173.89"/>
<polygon fill="midnightblue" stroke="midnightblue" points="247.37,-177.23 256.29,-171.52 245.75,-170.42 247.37,-177.23"/>
</g>
<!-- Node16 -->
<g id="node16" class="node">
<title>Node16</title>
<g id="a_node16"><a xlink:href="group__cube.html#ga035b5ad854abdbc786a8b78882d390c1" target="_top" xlink:title=" ">
<polygon fill="white" stroke="black" points="404,-190.5 404,-209.5 524,-209.5 524,-190.5 404,-190.5"/>
<text text-anchor="middle" x="464" y="-197.5" font-family="Helvetica,sans-Serif" font-size="10.00">model_cube_vertices</text>
</a>
</g>
</g>
<!-- Node14&#45;&gt;Node16 -->
<g id="edge17" class="edge">
<title>Node14&#45;&gt;Node16</title>
<path fill="none" stroke="midnightblue" d="M188.18,-200C243.86,-200 332.35,-200 393.81,-200"/>
<polygon fill="midnightblue" stroke="midnightblue" points="393.82,-203.5 403.82,-200 393.82,-196.5 393.82,-203.5"/>
</g>
<!-- Node16&#45;&gt;Node13 -->
<g id="edge18" class="edge">
<title>Node16&#45;&gt;Node13</title>
<path fill="none" stroke="midnightblue" d="M524.4,-200C535.89,-200 547.84,-200 559.04,-200"/>
<polygon fill="midnightblue" stroke="midnightblue" points="559.08,-203.5 569.08,-200 559.08,-196.5 559.08,-203.5"/>
</g>
<!-- Node17&#45;&gt;Node7 -->
<g id="edge24" class="edge">
<title>Node17&#45;&gt;Node7</title>
<path fill="none" stroke="midnightblue" d="M152.27,-152.63C180.39,-169.28 238.25,-203.52 271.5,-223.2"/>
<polygon fill="midnightblue" stroke="midnightblue" points="269.8,-226.26 280.18,-228.34 273.36,-220.24 269.8,-226.26"/>
</g>
<!-- Node18 -->
<g id="node18" class="node">
<title>Node18</title>
<g id="a_node18"><a xlink:href="group__plane.html#ga2dc797b7bd5ac0ed0f270d481d977a55" target="_top" xlink:title=" ">
<polygon fill="white" stroke="black" points="232,-114.5 232,-133.5 363,-133.5 363,-114.5 232,-114.5"/>
<text text-anchor="middle" x="297.5" y="-121.5" font-family="Helvetica,sans-Serif" font-size="10.00">model_plane_nVertices</text>
</a>
</g>
</g>
<!-- Node17&#45;&gt;Node18 -->
<g id="edge21" class="edge">
<title>Node17&#45;&gt;Node18</title>
<path fill="none" stroke="midnightblue" d="M190.34,-136.57C200.47,-135.37 211.22,-134.1 221.83,-132.84"/>
<polygon fill="midnightblue" stroke="midnightblue" points="222.43,-136.29 231.95,-131.64 221.61,-129.34 222.43,-136.29"/>
</g>
<!-- Node19 -->
<g id="node19" class="node">
<title>Node19</title>
<g id="a_node19"><a xlink:href="group__plane.html#ga2860798c8a53cfdf27dcecdfb1616940" target="_top" xlink:title=" ">
<polygon fill="white" stroke="black" points="402,-124.5 402,-143.5 526,-143.5 526,-124.5 402,-124.5"/>
<text text-anchor="middle" x="464" y="-131.5" font-family="Helvetica,sans-Serif" font-size="10.00">model_plane_vertices</text>
</a>
</g>
</g>
<!-- Node17&#45;&gt;Node19 -->
<g id="edge22" class="edge">
<title>Node17&#45;&gt;Node19</title>
<path fill="none" stroke="midnightblue" d="M153.53,-133.42C171.77,-124.05 201.45,-110.41 229,-105 288.75,-93.26 305.75,-96.19 366,-105 387.28,-108.11 410.37,-114.87 428.69,-121.08"/>
<polygon fill="midnightblue" stroke="midnightblue" points="427.73,-124.46 438.33,-124.45 430.04,-117.85 427.73,-124.46"/>
</g>
<!-- Node19&#45;&gt;Node13 -->
<g id="edge23" class="edge">
<title>Node19&#45;&gt;Node13</title>
<path fill="none" stroke="midnightblue" d="M486.08,-143.6C510.68,-154.79 551.53,-173.38 579.56,-186.14"/>
<polygon fill="midnightblue" stroke="midnightblue" points="578.34,-189.43 588.89,-190.39 581.24,-183.06 578.34,-189.43"/>
</g>
<!-- Node20&#45;&gt;Node7 -->
<g id="edge30" class="edge">
<title>Node20&#45;&gt;Node7</title>
<path fill="none" stroke="midnightblue" d="M147.24,-76.85C159.31,-87.72 178.67,-106.07 193,-124 211.71,-147.4 209.32,-158.4 229,-181 242.6,-196.61 260.62,-211.61 274.62,-222.3"/>
<polygon fill="midnightblue" stroke="midnightblue" points="272.64,-225.18 282.75,-228.36 276.83,-219.58 272.64,-225.18"/>
</g>
<!-- Node21 -->
<g id="node21" class="node">
<title>Node21</title>
<g id="a_node21"><a xlink:href="group__sphere.html#ga093e996c7f18f239228d66ffa2b35078" target="_top" xlink:title=" ">
<polygon fill="white" stroke="black" points="229,-38.5 229,-57.5 366,-57.5 366,-38.5 229,-38.5"/>
<text text-anchor="middle" x="297.5" y="-45.5" font-family="Helvetica,sans-Serif" font-size="10.00">model_sphere_nVertices</text>
</a>
</g>
</g>
<!-- Node20&#45;&gt;Node21 -->
<g id="edge26" class="edge">
<title>Node20&#45;&gt;Node21</title>
<path fill="none" stroke="midnightblue" d="M193.04,-60.25C201.39,-59.26 210.11,-58.23 218.8,-57.2"/>
<polygon fill="midnightblue" stroke="midnightblue" points="219.42,-60.65 228.94,-56 218.6,-53.7 219.42,-60.65"/>
</g>
<!-- Node22 -->
<g id="node22" class="node">
<title>Node22</title>
<g id="a_node22"><a xlink:href="group__sphere.html#gaaa3b03bbb79c4d88b3eee338eeec15b2" target="_top" xlink:title=" ">
<polygon fill="white" stroke="black" points="232.5,-0.5 232.5,-19.5 362.5,-19.5 362.5,-0.5 232.5,-0.5"/>
<text text-anchor="middle" x="297.5" y="-7.5" font-family="Helvetica,sans-Serif" font-size="10.00">model_sphere_vertices</text>
</a>
</g>
</g>
<!-- Node20&#45;&gt;Node22 -->
<g id="edge27" class="edge">
<title>Node20&#45;&gt;Node22</title>
<path fill="none" stroke="midnightblue" d="M157.53,-57.39C176.21,-49.24 204.09,-37.56 229,-29 235.81,-26.66 243.07,-24.39 250.22,-22.28"/>
<polygon fill="midnightblue" stroke="midnightblue" points="251.19,-25.64 259.83,-19.5 249.26,-18.91 251.19,-25.64"/>
</g>
<!-- Node23 -->
<g id="node23" class="node">
<title>Node23</title>
<g id="a_node23"><a xlink:href="group__sphere.html#ga8cfa785fa5a63f8e74b5d21f24721c4c" target="_top" xlink:title=" ">
<polygon fill="white" stroke="black" points="403,-29.5 403,-48.5 525,-48.5 525,-29.5 403,-29.5"/>
<text text-anchor="middle" x="464" y="-36.5" font-family="Helvetica,sans-Serif" font-size="10.00">model_sphere_vertex</text>
</a>
</g>
</g>
<!-- Node22&#45;&gt;Node23 -->
<g id="edge28" class="edge">
<title>Node22&#45;&gt;Node23</title>
<path fill="none" stroke="midnightblue" d="M352.82,-19.58C367.64,-22.19 383.82,-25.04 399.12,-27.74"/>
<polygon fill="midnightblue" stroke="midnightblue" points="398.56,-31.19 409.02,-29.48 399.78,-24.3 398.56,-31.19"/>
</g>
<!-- Node23&#45;&gt;Node13 -->
<g id="edge29" class="edge">
<title>Node23&#45;&gt;Node13</title>
<path fill="none" stroke="midnightblue" d="M473.64,-48.59C497.35,-74.92 563.76,-148.65 594.29,-182.55"/>
<polygon fill="midnightblue" stroke="midnightblue" points="591.93,-185.17 601.23,-190.26 597.13,-180.48 591.93,-185.17"/>
</g>
</g>
</svg>
        <g id="navigator" transform="translate(0 0)" fill="#404254">
                <rect fill="#f2f5e9" fill-opacity="0.5" stroke="#606060" stroke-width=".5" x="0" y="0" width="60" height="60"/>
                <use id="zoomplus" xlink:href="#zoomPlus" x="17" y="9" onmousedown="handleZoom(evt,'in')"/>
                <use id="zoomminus" xlink:href="#zoomMin" x="42" y="9" onmousedown="handleZoom(evt,'out')"/>
                <use id="reset" xlink:href="#resetDef" x="30" y="36" onmousedown="handleReset()"/>
                <g id="arrowUp" xlink:href="#dirArrow" transform="translate(30 24)" onmousedown="handlePan(0,-1)">
                  <use xlink:href="#rim" fill="#404040">
                        <set attributeName="fill" to="#808080" begin="arrowUp.mouseover" end="arrowUp.mouseout"/>
                  </use>
                  <path fill="none" stroke="white" stroke-width="1.5" d="M0,-3.0v7 M-2.5,-0.5L0,-3.0L2.5,-0.5"/>
                </g>
                <g id="arrowRight" xlink:href="#dirArrow" transform="rotate(90) translate(36 -43)" onmousedown="handlePan(1,0)">
                  <use xlink:href="#rim" fill="#404040">
                        <set attributeName="fill" to="#808080" begin="arrowRight.mouseover" end="arrowRight.mouseout"/>
                  </use>
                  <path fill="none" stroke="white" stroke-width="1.5" d="M0,-3.0v7 M-2.5,-0.5L0,-3.0L2.5,-0.5"/>
                </g>
                <g id="arrowDown" xlink:href="#dirArrow" transform="rotate(180) translate(-30 -48)" onmousedown="handlePan(0,1)">
                  <use xlink:href="#rim" fill="#404040">
                        <set attributeName="fill" to="#808080" begin="arrowDown.mouseover" end="arrowDown.mouseout"/>
                  </use>
                  <path fill="none" stroke="white" stroke-width="1.5" d="M0,-3.0v7 M-2.5,-0.5L0,-3.0L2.5,-0.5"/>
                </g>
                <g id="arrowLeft" xlink:href="#dirArrow" transform="rotate(270) translate(-36 17)" onmousedown="handlePan(-1,0)">
                  <use xlink:href="#rim" fill="#404040">
                        <set attributeName="fill" to="#808080" begin="arrowLeft.mouseover" end="arrowLeft.mouseout"/>
                  </use>
                  <path fill="none" stroke="white" stroke-width="1.5" d="M0,-3.0v7 M-2.5,-0.5L0,-3.0L2.5,-0.5"/>
                </g>
        </g>
        <svg viewBox="0 0 15 15" width="100%" height="30px" preserveAspectRatio="xMaxYMin meet">
         <g id="arrow_out" transform="scale(0.3 0.3)">
          <a xlink:href="generator_8cpp_a0ddf1224851353fc92bfbff6f499fa97_cgraph_org.svg" target="_base">
           <rect id="button" ry="5" rx="5" y="6" x="6" height="38" width="38"
                fill="#f2f5e9" fill-opacity="0.5" stroke="#606060" stroke-width="1.0"/>
           <path id="arrow"
             d="M 11.500037,31.436501 C 11.940474,20.09759 22.043105,11.32322 32.158766,21.979434 L 37.068811,17.246167 C 37.068811,17.246167 37.088388,32 37.088388,32 L 22.160133,31.978069 C 22.160133,31.978069 26.997745,27.140456 26.997745,27.140456 C 18.528582,18.264221 13.291696,25.230495 11.500037,31.436501 z"
             style="fill:#404040;"/>
          </a>
         </g>
        </svg>
</svg>
