<?xml version="1.0" encoding="UTF-8" standalone="no"?>
<!DOCTYPE svg PUBLIC "-//W3C//DTD SVG 1.1//EN"
 "http://www.w3.org/Graphics/SVG/1.1/DTD/svg11.dtd">
<!-- Generated by graphviz version 3.0.0 (0)
 -->
<!-- Title: env_load_defaults Pages: 1 -->
<svg width="462pt" height="66pt"
 viewBox="0.00 0.00 462.00 66.00" xmlns="http://www.w3.org/2000/svg" xmlns:xlink="http://www.w3.org/1999/xlink">
<g id="graph0" class="graph" transform="scale(1 1) rotate(0) translate(4 62)">
<title>env_load_defaults</title>
<polygon fill="white" stroke="transparent" points="-4,4 -4,-62 458,-62 458,4 -4,4"/>
<!-- Node1 -->
<g id="node1" class="node">
<title>Node1</title>
<g id="a_node1"><a xlink:title=" ">
<polygon fill="#bfbfbf" stroke="black" points="348,-19.5 348,-38.5 454,-38.5 454,-19.5 348,-19.5"/>
<text text-anchor="middle" x="401" y="-26.5" font-family="Helvetica,sans-Serif" font-size="10.00">env_load_defaults</text>
</a>
</g>
</g>
<!-- Node2 -->
<g id="node2" class="node">
<title>Node2</title>
<g id="a_node2"><a xlink:href="group__input.html#gac7632fff72011e8c11ae504a4596a7f7" target="_top" xlink:title=" ">
<polygon fill="white" stroke="black" points="206,-38.5 206,-57.5 290,-57.5 290,-38.5 206,-38.5"/>
<text text-anchor="middle" x="248" y="-45.5" font-family="Helvetica,sans-Serif" font-size="10.00">keyboardFunc</text>
</a>
</g>
</g>
<!-- Node1&#45;&gt;Node2 -->
<g id="edge1" class="edge">
<title>Node1&#45;&gt;Node2</title>
<path fill="none" stroke="midnightblue" d="M337.34,-36.88C321.48,-38.88 304.85,-40.97 290.35,-42.8"/>
<polygon fill="midnightblue" stroke="midnightblue" points="338.13,-40.31 347.61,-35.59 337.25,-33.37 338.13,-40.31"/>
</g>
<!-- Node5 -->
<g id="node5" class="node">
<title>Node5</title>
<g id="a_node5"><a xlink:href="group__engine.html#ga2b6a8884687b3fe271b099a450a82d24" target="_top" xlink:title=" ">
<polygon fill="white" stroke="black" points="184,-0.5 184,-19.5 312,-19.5 312,-0.5 184,-0.5"/>
<text text-anchor="middle" x="248" y="-7.5" font-family="Helvetica,sans-Serif" font-size="10.00">xml_load_and_set_env</text>
</a>
</g>
</g>
<!-- Node1&#45;&gt;Node5 -->
<g id="edge4" class="edge">
<title>Node1&#45;&gt;Node5</title>
<path fill="none" stroke="midnightblue" d="M337.55,-21.14C329.18,-20.09 320.6,-19.01 312.22,-17.95"/>
<polygon fill="midnightblue" stroke="midnightblue" points="337.25,-24.63 347.61,-22.41 338.13,-17.69 337.25,-24.63"/>
</g>
<!-- Node3 -->
<g id="node3" class="node">
<title>Node3</title>
<g id="a_node3"><a xlink:href="group__engine.html#ga98eaf946471acbd931de5d52ca83b3d1" target="_top" xlink:title=" ">
<polygon fill="white" stroke="black" points="77,-19.5 77,-38.5 148,-38.5 148,-19.5 77,-19.5"/>
<text text-anchor="middle" x="112.5" y="-26.5" font-family="Helvetica,sans-Serif" font-size="10.00">engine_run</text>
</a>
</g>
</g>
<!-- Node2&#45;&gt;Node3 -->
<g id="edge2" class="edge">
<title>Node2&#45;&gt;Node3</title>
<path fill="none" stroke="midnightblue" d="M195.69,-40.7C179.89,-38.45 162.87,-36.03 148.43,-33.97"/>
<polygon fill="midnightblue" stroke="midnightblue" points="195.46,-44.2 205.86,-42.14 196.45,-37.27 195.46,-44.2"/>
</g>
<!-- Node4 -->
<g id="node4" class="node">
<title>Node4</title>
<g id="a_node4"><a xlink:href="group__engine.html#ga3c04138a5bfe5d72780bb7e82a18e627" target="_top" xlink:title=" ">
<polygon fill="white" stroke="black" points="0,-19.5 0,-38.5 41,-38.5 41,-19.5 0,-19.5"/>
<text text-anchor="middle" x="20.5" y="-26.5" font-family="Helvetica,sans-Serif" font-size="10.00">main</text>
</a>
</g>
</g>
<!-- Node3&#45;&gt;Node4 -->
<g id="edge3" class="edge">
<title>Node3&#45;&gt;Node4</title>
<path fill="none" stroke="midnightblue" d="M66.88,-29C57.87,-29 48.84,-29 41.24,-29"/>
<polygon fill="midnightblue" stroke="midnightblue" points="66.96,-32.5 76.96,-29 66.96,-25.5 66.96,-32.5"/>
</g>
<!-- Node5&#45;&gt;Node3 -->
<g id="edge5" class="edge">
<title>Node5&#45;&gt;Node3</title>
<path fill="none" stroke="midnightblue" d="M173.71,-20.43C164.82,-21.7 156.09,-22.94 148.16,-24.07"/>
<polygon fill="midnightblue" stroke="midnightblue" points="174.36,-23.87 183.77,-19 173.38,-16.94 174.36,-23.87"/>
</g>
</g>
</svg>
