<?xml version="1.0" encoding="UTF-8" standalone="no"?>
<!DOCTYPE svg PUBLIC "-//W3C//DTD SVG 1.1//EN"
 "http://www.w3.org/Graphics/SVG/1.1/DTD/svg11.dtd">
<!-- Generated by graphviz version 3.0.0 (0)
 -->
<!-- Title: operations_load_xml Pages: 1 -->
<svg width="1070pt" height="106pt"
 viewBox="0.00 0.00 1070.00 105.50" xmlns="http://www.w3.org/2000/svg" xmlns:xlink="http://www.w3.org/1999/xlink">
<g id="graph0" class="graph" transform="scale(1 1) rotate(0) translate(4 101.5)">
<title>operations_load_xml</title>
<polygon fill="white" stroke="transparent" points="-4,4 -4,-101.5 1066,-101.5 1066,4 -4,4"/>
<!-- Node1 -->
<g id="node1" class="node">
<title>Node1</title>
<g id="a_node1"><a xlink:title=" ">
<polygon fill="#bfbfbf" stroke="black" points="0,-9.5 0,-28.5 119,-28.5 119,-9.5 0,-9.5"/>
<text text-anchor="middle" x="59.5" y="-16.5" font-family="Helvetica,sans-Serif" font-size="10.00">operations_load_xml</text>
</a>
</g>
</g>
<!-- Node2 -->
<g id="node2" class="node">
<title>Node2</title>
<g id="a_node2"><a xlink:href="group___groups.html#ga72c2d5ef943a89f829c08f6707e7669d" target="_top" xlink:title=" ">
<polygon fill="white" stroke="black" points="155,-28.5 155,-47.5 290,-47.5 290,-28.5 155,-28.5"/>
<text text-anchor="middle" x="222.5" y="-35.5" font-family="Helvetica,sans-Serif" font-size="10.00">operations_push_groups</text>
</a>
</g>
</g>
<!-- Node1&#45;&gt;Node2 -->
<g id="edge1" class="edge">
<title>Node1&#45;&gt;Node2</title>
<path fill="none" stroke="midnightblue" d="M119.08,-25.91C127.42,-26.9 136.09,-27.92 144.71,-28.94"/>
<polygon fill="midnightblue" stroke="midnightblue" points="144.44,-32.43 154.78,-30.13 145.26,-25.48 144.44,-32.43"/>
</g>
<!-- Node8 -->
<g id="node8" class="node">
<title>Node8</title>
<g id="a_node8"><a xlink:href="group___transforms.html#gaa15fe56d7980e7877845f3bc09125017" target="_top" xlink:title=" ">
<polygon fill="white" stroke="black" points="912,-23 912,-53 1062,-53 1062,-23 912,-23"/>
<text text-anchor="start" x="920" y="-41" font-family="Helvetica,sans-Serif" font-size="10.00">operations_push_transform</text>
<text text-anchor="middle" x="987" y="-30" font-family="Helvetica,sans-Serif" font-size="10.00">_attributes</text>
</a>
</g>
</g>
<!-- Node1&#45;&gt;Node8 -->
<g id="edge10" class="edge">
<title>Node1&#45;&gt;Node8</title>
<path fill="none" stroke="midnightblue" d="M119.15,-13.76C187.22,-8.13 302.89,0 402.5,0 402.5,0 402.5,0 605.5,0 707.79,0 824.79,-13.77 901.73,-24.73"/>
<polygon fill="midnightblue" stroke="midnightblue" points="901.45,-28.22 911.85,-26.18 902.45,-21.29 901.45,-28.22"/>
</g>
<!-- Node2&#45;&gt;Node2 -->
<g id="edge2" class="edge">
<title>Node2&#45;&gt;Node2</title>
<path fill="none" stroke="midnightblue" d="M197.53,-47.76C185.38,-56.57 193.71,-66 222.5,-66 241.85,-66 251.95,-61.74 252.81,-56.27"/>
<polygon fill="midnightblue" stroke="midnightblue" points="255.75,-54.37 247.47,-47.76 249.82,-58.09 255.75,-54.37"/>
</g>
<!-- Node3 -->
<g id="node3" class="node">
<title>Node3</title>
<g id="a_node3"><a xlink:href="group___models.html#gaca17d77a06e750f5cd95c1b79e1a8a30" target="_top" xlink:title=" ">
<polygon fill="white" stroke="black" points="334.5,-66.5 334.5,-85.5 472.5,-85.5 472.5,-66.5 334.5,-66.5"/>
<text text-anchor="middle" x="403.5" y="-73.5" font-family="Helvetica,sans-Serif" font-size="10.00">operations_push_models</text>
</a>
</g>
</g>
<!-- Node2&#45;&gt;Node3 -->
<g id="edge3" class="edge">
<title>Node2&#45;&gt;Node3</title>
<path fill="none" stroke="midnightblue" d="M268.67,-47.59C292.72,-52.69 322.47,-59.01 347.82,-64.39"/>
<polygon fill="midnightblue" stroke="midnightblue" points="347.15,-67.83 357.66,-66.48 348.6,-60.98 347.15,-67.83"/>
</g>
<!-- Node5 -->
<g id="node5" class="node">
<title>Node5</title>
<g id="a_node5"><a xlink:href="group___transforms.html#gaaa78b92f0257bb4755731622692de0cb" target="_top" xlink:title=" ">
<polygon fill="white" stroke="black" points="326,-28.5 326,-47.5 481,-47.5 481,-28.5 326,-28.5"/>
<text text-anchor="middle" x="403.5" y="-35.5" font-family="Helvetica,sans-Serif" font-size="10.00">operations_push_transforms</text>
</a>
</g>
</g>
<!-- Node2&#45;&gt;Node5 -->
<g id="edge5" class="edge">
<title>Node2&#45;&gt;Node5</title>
<path fill="none" stroke="midnightblue" d="M290.15,-38C298.51,-38 307.16,-38 315.77,-38"/>
<polygon fill="midnightblue" stroke="midnightblue" points="315.84,-41.5 325.84,-38 315.84,-34.5 315.84,-41.5"/>
</g>
<!-- Node4 -->
<g id="node4" class="node">
<title>Node4</title>
<g id="a_node4"><a xlink:href="group___models.html#ga5dc84f3f40c0bb6ad63dc2da3793ddd9" target="_top" xlink:title=" ">
<polygon fill="white" stroke="black" points="538,-66.5 538,-85.5 671,-85.5 671,-66.5 538,-66.5"/>
<text text-anchor="middle" x="604.5" y="-73.5" font-family="Helvetica,sans-Serif" font-size="10.00">operations_push_model</text>
</a>
</g>
</g>
<!-- Node3&#45;&gt;Node4 -->
<g id="edge4" class="edge">
<title>Node3&#45;&gt;Node4</title>
<path fill="none" stroke="midnightblue" d="M472.71,-76C490.38,-76 509.51,-76 527.55,-76"/>
<polygon fill="midnightblue" stroke="midnightblue" points="527.74,-79.5 537.74,-76 527.74,-72.5 527.74,-79.5"/>
</g>
<!-- Node6 -->
<g id="node6" class="node">
<title>Node6</title>
<g id="a_node6"><a xlink:href="group___transforms.html#ga3ceb952cabab7fc6918d4a676d53508d" target="_top" xlink:title=" ">
<polygon fill="white" stroke="black" points="517,-28.5 517,-47.5 692,-47.5 692,-28.5 517,-28.5"/>
<text text-anchor="middle" x="604.5" y="-35.5" font-family="Helvetica,sans-Serif" font-size="10.00">operations_push_transformation</text>
</a>
</g>
</g>
<!-- Node5&#45;&gt;Node6 -->
<g id="edge6" class="edge">
<title>Node5&#45;&gt;Node6</title>
<path fill="none" stroke="midnightblue" d="M481.15,-38C489.57,-38 498.23,-38 506.85,-38"/>
<polygon fill="midnightblue" stroke="midnightblue" points="506.94,-41.5 516.94,-38 506.94,-34.5 506.94,-41.5"/>
</g>
<!-- Node7 -->
<g id="node7" class="node">
<title>Node7</title>
<g id="a_node7"><a xlink:href="group___transforms.html#ga5078bb9f7411d7f9f26c535a52ae7c6b" target="_top" xlink:title=" ">
<polygon fill="white" stroke="black" points="728,-67 728,-97 876,-97 876,-67 728,-67"/>
<text text-anchor="start" x="736" y="-85" font-family="Helvetica,sans-Serif" font-size="10.00">operations_push_extended</text>
<text text-anchor="middle" x="802" y="-74" font-family="Helvetica,sans-Serif" font-size="10.00">_translate_attributes</text>
</a>
</g>
</g>
<!-- Node6&#45;&gt;Node7 -->
<g id="edge7" class="edge">
<title>Node6&#45;&gt;Node7</title>
<path fill="none" stroke="midnightblue" d="M649.52,-47.59C663.14,-50.58 678.2,-53.9 692,-57 702.99,-59.47 714.59,-62.1 725.97,-64.7"/>
<polygon fill="midnightblue" stroke="midnightblue" points="725.36,-68.15 735.89,-66.96 726.92,-61.32 725.36,-68.15"/>
</g>
<!-- Node6&#45;&gt;Node8 -->
<g id="edge9" class="edge">
<title>Node6&#45;&gt;Node8</title>
<path fill="none" stroke="midnightblue" d="M692.32,-38C755.06,-38 839.38,-38 901.57,-38"/>
<polygon fill="midnightblue" stroke="midnightblue" points="901.74,-41.5 911.74,-38 901.74,-34.5 901.74,-41.5"/>
</g>
<!-- Node7&#45;&gt;Node8 -->
<g id="edge8" class="edge">
<title>Node7&#45;&gt;Node8</title>
<path fill="none" stroke="midnightblue" d="M865.47,-66.98C880.99,-63.25 897.75,-59.22 913.7,-55.38"/>
<polygon fill="midnightblue" stroke="midnightblue" points="914.6,-58.77 923.5,-53.03 912.96,-51.96 914.6,-58.77"/>
</g>
</g>
</svg>
