<?xml version="1.0" encoding="UTF-8" standalone="no"?>
<!DOCTYPE svg PUBLIC "-//W3C//DTD SVG 1.1//EN"
 "http://www.w3.org/Graphics/SVG/1.1/DTD/svg11.dtd">
<!-- Generated by graphviz version 3.0.0 (0)
 -->
<!-- Title: operations_render Pages: 1 -->
<svg width="715pt" height="256pt"
 viewBox="0.00 0.00 715.00 256.00" xmlns="http://www.w3.org/2000/svg" xmlns:xlink="http://www.w3.org/1999/xlink">
<g id="graph0" class="graph" transform="scale(1 1) rotate(0) translate(4 252)">
<title>operations_render</title>
<polygon fill="white" stroke="transparent" points="-4,4 -4,-252 711,-252 711,4 -4,4"/>
<!-- Node1 -->
<g id="node1" class="node">
<title>Node1</title>
<g id="a_node1"><a xlink:title=" ">
<polygon fill="#bfbfbf" stroke="black" points="0,-114.5 0,-133.5 105,-133.5 105,-114.5 0,-114.5"/>
<text text-anchor="middle" x="52.5" y="-121.5" font-family="Helvetica,sans-Serif" font-size="10.00">operations_render</text>
</a>
</g>
</g>
<!-- Node2 -->
<g id="node2" class="node">
<title>Node2</title>
<g id="a_node2"><a xlink:href="curves_8cpp.html#af213e79ca700e91ea886085a4149a848" target="_top" xlink:title=" ">
<polygon fill="white" stroke="black" points="147,-228.5 147,-247.5 251,-247.5 251,-228.5 147,-228.5"/>
<text text-anchor="middle" x="199" y="-235.5" font-family="Helvetica,sans-Serif" font-size="10.00">advance_in_curve</text>
</a>
</g>
</g>
<!-- Node1&#45;&gt;Node2 -->
<g id="edge1" class="edge">
<title>Node1&#45;&gt;Node2</title>
<path fill="none" stroke="midnightblue" d="M59.78,-133.57C72.73,-152.56 104.29,-195.25 141,-219 144.12,-221.02 147.47,-222.84 150.93,-224.48"/>
<polygon fill="midnightblue" stroke="midnightblue" points="149.69,-227.76 160.27,-228.43 152.42,-221.31 149.69,-227.76"/>
</g>
<!-- Node7 -->
<g id="node7" class="node">
<title>Node7</title>
<g id="a_node7"><a xlink:href="engine_8cpp.html#a072c434cfd125e58ac1cec9a5725688a" target="_top" xlink:title=" ">
<polygon fill="white" stroke="black" points="141,-190.5 141,-209.5 257,-209.5 257,-190.5 141,-190.5"/>
<text text-anchor="middle" x="199" y="-197.5" font-family="Helvetica,sans-Serif" font-size="10.00">advance_in_rotation</text>
</a>
</g>
</g>
<!-- Node1&#45;&gt;Node7 -->
<g id="edge6" class="edge">
<title>Node1&#45;&gt;Node7</title>
<path fill="none" stroke="midnightblue" d="M65.94,-133.58C82.38,-145.89 112.59,-167.29 141,-181 145.41,-183.13 150.11,-185.11 154.86,-186.94"/>
<polygon fill="midnightblue" stroke="midnightblue" points="153.98,-190.34 164.58,-190.45 156.36,-183.76 153.98,-190.34"/>
</g>
<!-- Node8 -->
<g id="node8" class="node">
<title>Node8</title>
<g id="a_node8"><a xlink:href="group__model_engine.html#ga56beba311d0a6fcbda9aeb516fe67f8f" target="_top" xlink:title=" ">
<polygon fill="white" stroke="black" points="164,-152.5 164,-171.5 234,-171.5 234,-152.5 164,-152.5"/>
<text text-anchor="middle" x="199" y="-159.5" font-family="Helvetica,sans-Serif" font-size="10.00">allocModel</text>
</a>
</g>
</g>
<!-- Node1&#45;&gt;Node8 -->
<g id="edge7" class="edge">
<title>Node1&#45;&gt;Node8</title>
<path fill="none" stroke="midnightblue" d="M89.96,-133.59C109.36,-138.69 133.37,-145 153.82,-150.38"/>
<polygon fill="midnightblue" stroke="midnightblue" points="152.98,-153.78 163.54,-152.94 154.76,-147.01 152.98,-153.78"/>
</g>
<!-- Node9 -->
<g id="node9" class="node">
<title>Node9</title>
<g id="a_node9"><a xlink:href="group__spherical.html#ga2a22d15f7463ccd8f8d1aa65e7578983" target="_top" xlink:title=" ">
<polygon fill="white" stroke="black" points="142.5,-114.5 142.5,-133.5 255.5,-133.5 255.5,-114.5 142.5,-114.5"/>
<text text-anchor="middle" x="199" y="-121.5" font-family="Helvetica,sans-Serif" font-size="10.00">cartesian2Spherical</text>
</a>
</g>
</g>
<!-- Node1&#45;&gt;Node9 -->
<g id="edge8" class="edge">
<title>Node1&#45;&gt;Node9</title>
<path fill="none" stroke="midnightblue" d="M105.26,-124C113.97,-124 123.11,-124 132.12,-124"/>
<polygon fill="midnightblue" stroke="midnightblue" points="132.2,-127.5 142.2,-124 132.2,-120.5 132.2,-127.5"/>
</g>
<!-- Node10 -->
<g id="node10" class="node">
<title>Node10</title>
<g id="a_node10"><a xlink:href="curves_8cpp.html#ad812fc50a0384335487e258a6f61714e" target="_top" xlink:title=" ">
<polygon fill="white" stroke="black" points="316,-133.5 316,-152.5 393,-152.5 393,-133.5 316,-133.5"/>
<text text-anchor="middle" x="354.5" y="-140.5" font-family="Helvetica,sans-Serif" font-size="10.00">renderCurve</text>
</a>
</g>
</g>
<!-- Node1&#45;&gt;Node10 -->
<g id="edge9" class="edge">
<title>Node1&#45;&gt;Node10</title>
<path fill="none" stroke="midnightblue" d="M88.98,-114.49C104.78,-110.73 123.69,-106.86 141,-105 192.26,-99.5 206.35,-95.39 257,-105 281.25,-109.6 307.21,-120.17 326.08,-129"/>
<polygon fill="midnightblue" stroke="midnightblue" points="324.73,-132.24 335.26,-133.42 327.77,-125.93 324.73,-132.24"/>
</g>
<!-- Node11 -->
<g id="node11" class="node">
<title>Node11</title>
<g id="a_node11"><a xlink:href="group__model_engine.html#gae7de75a0850ac9069b4a3710b63a102c" target="_top" xlink:title=" ">
<polygon fill="white" stroke="black" points="160,-38.5 160,-57.5 238,-57.5 238,-38.5 160,-38.5"/>
<text text-anchor="middle" x="199" y="-45.5" font-family="Helvetica,sans-Serif" font-size="10.00">renderModel</text>
</a>
</g>
</g>
<!-- Node1&#45;&gt;Node11 -->
<g id="edge11" class="edge">
<title>Node1&#45;&gt;Node11</title>
<path fill="none" stroke="midnightblue" d="M68.32,-114.34C85.45,-103.37 114.65,-85.3 141,-72 148.28,-68.33 156.26,-64.72 163.87,-61.47"/>
<polygon fill="midnightblue" stroke="midnightblue" points="165.37,-64.63 173.26,-57.55 162.68,-58.17 165.37,-64.63"/>
</g>
<!-- Node12 -->
<g id="node12" class="node">
<title>Node12</title>
<g id="a_node12"><a xlink:href="group__engine.html#ga260fbd3d70764684657bbf1a617ddf99" target="_top" xlink:title=" ">
<polygon fill="white" stroke="black" points="162,-0.5 162,-19.5 236,-19.5 236,-0.5 162,-0.5"/>
<text text-anchor="middle" x="199" y="-7.5" font-family="Helvetica,sans-Serif" font-size="10.00">vbo_indices</text>
</a>
</g>
</g>
<!-- Node1&#45;&gt;Node12 -->
<g id="edge12" class="edge">
<title>Node1&#45;&gt;Node12</title>
<path fill="none" stroke="midnightblue" d="M59.78,-114.43C72.73,-95.44 104.29,-52.75 141,-29 144.55,-26.71 148.4,-24.66 152.37,-22.85"/>
<polygon fill="midnightblue" stroke="midnightblue" points="153.83,-26.03 161.76,-19.02 151.18,-19.55 153.83,-26.03"/>
</g>
<!-- Node3 -->
<g id="node3" class="node">
<title>Node3</title>
<g id="a_node3"><a xlink:href="curves_8cpp.html#aca4aaefe66ab2cbc9d44054ab8929c0d" target="_top" xlink:title=" ">
<polygon fill="white" stroke="black" points="293,-199.5 293,-218.5 416,-218.5 416,-199.5 293,-199.5"/>
<text text-anchor="middle" x="354.5" y="-206.5" font-family="Helvetica,sans-Serif" font-size="10.00">align_global_pos_mat</text>
</a>
</g>
</g>
<!-- Node2&#45;&gt;Node3 -->
<g id="edge2" class="edge">
<title>Node2&#45;&gt;Node3</title>
<path fill="none" stroke="midnightblue" d="M250.69,-228.42C264.25,-225.86 279.04,-223.07 293.07,-220.42"/>
<polygon fill="midnightblue" stroke="midnightblue" points="293.95,-223.81 303.13,-218.52 292.65,-216.93 293.95,-223.81"/>
</g>
<!-- Node4 -->
<g id="node4" class="node">
<title>Node4</title>
<g id="a_node4"><a xlink:href="curves_8cpp.html#abe9fa1f2a311f275f92f5b46fb2f8490" target="_top" xlink:title=" ">
<polygon fill="white" stroke="black" points="452,-152.5 452,-171.5 582,-171.5 582,-152.5 452,-152.5"/>
<text text-anchor="middle" x="517" y="-159.5" font-family="Helvetica,sans-Serif" font-size="10.00">get_curve_global_point</text>
</a>
</g>
</g>
<!-- Node3&#45;&gt;Node4 -->
<g id="edge3" class="edge">
<title>Node3&#45;&gt;Node4</title>
<path fill="none" stroke="midnightblue" d="M387.98,-199.49C412.59,-192.28 446.62,-182.32 473.42,-174.47"/>
<polygon fill="midnightblue" stroke="midnightblue" points="474.68,-177.75 483.29,-171.58 472.71,-171.03 474.68,-177.75"/>
</g>
<!-- Node5 -->
<g id="node5" class="node">
<title>Node5</title>
<g id="a_node5"><a xlink:href="curves_8cpp.html#af68f8da25ecf53c589aa5d47f1f8e164" target="_top" xlink:title=" ">
<polygon fill="white" stroke="black" points="630,-171.5 630,-190.5 695,-190.5 695,-171.5 630,-171.5"/>
<text text-anchor="middle" x="662.5" y="-178.5" font-family="Helvetica,sans-Serif" font-size="10.00">get_curve</text>
</a>
</g>
</g>
<!-- Node4&#45;&gt;Node5 -->
<g id="edge4" class="edge">
<title>Node4&#45;&gt;Node5</title>
<path fill="none" stroke="midnightblue" d="M582.2,-170.5C595.01,-172.2 608.15,-173.94 619.95,-175.5"/>
<polygon fill="midnightblue" stroke="midnightblue" points="619.57,-178.98 629.94,-176.82 620.48,-172.04 619.57,-178.98"/>
</g>
<!-- Node6 -->
<g id="node6" class="node">
<title>Node6</title>
<g id="a_node6"><a xlink:href="curves_8cpp.html#afa648d7de8c941b50b26f02755a955b9" target="_top" xlink:title=" ">
<polygon fill="white" stroke="black" points="618,-133.5 618,-152.5 707,-152.5 707,-133.5 618,-133.5"/>
<text text-anchor="middle" x="662.5" y="-140.5" font-family="Helvetica,sans-Serif" font-size="10.00">get_curve_info</text>
</a>
</g>
</g>
<!-- Node4&#45;&gt;Node6 -->
<g id="edge5" class="edge">
<title>Node4&#45;&gt;Node6</title>
<path fill="none" stroke="midnightblue" d="M582.2,-153.5C590.79,-152.36 599.53,-151.21 607.92,-150.09"/>
<polygon fill="midnightblue" stroke="midnightblue" points="608.48,-153.55 617.94,-148.77 607.56,-146.61 608.48,-153.55"/>
</g>
<!-- Node10&#45;&gt;Node4 -->
<g id="edge10" class="edge">
<title>Node10&#45;&gt;Node4</title>
<path fill="none" stroke="midnightblue" d="M393.13,-147.45C407.63,-149.17 424.75,-151.2 441.53,-153.18"/>
<polygon fill="midnightblue" stroke="midnightblue" points="441.56,-156.71 451.91,-154.41 442.39,-149.76 441.56,-156.71"/>
</g>
</g>
</svg>
