<?xml version="1.0" encoding="UTF-8" standalone="no"?>
<!DOCTYPE svg PUBLIC "-//W3C//DTD SVG 1.1//EN"
 "http://www.w3.org/Graphics/SVG/1.1/DTD/svg11.dtd">
<!-- Generated by graphviz version 3.0.0 (0)
 -->
<!-- Title: Engine Pages: 1 -->
<svg width="149pt" height="101pt"
 viewBox="0.00 0.00 149.00 101.00" xmlns="http://www.w3.org/2000/svg" xmlns:xlink="http://www.w3.org/1999/xlink">
<g id="graph0" class="graph" transform="scale(1 1) rotate(0) translate(4 97)">
<title>Engine</title>
<polygon fill="white" stroke="transparent" points="-4,4 -4,-97 145,-97 145,4 -4,4"/>
<!-- Node3 -->
<g id="node1" class="node">
<title>Node3</title>
<g id="a_node1"><a xlink:href="group__camera.html" target="_top" xlink:title=" ">
<polygon fill="white" stroke="black" points="141,-93 86,-93 86,-74 141,-74 141,-93"/>
<text text-anchor="middle" x="113.5" y="-81" font-family="Helvetica,sans-Serif" font-size="10.00">Camera</text>
</a>
</g>
</g>
<!-- Node1 -->
<g id="node2" class="node">
<title>Node1</title>
<g id="a_node2"><a xlink:title=" ">
<polygon fill="#bfbfbf" stroke="black" points="50,-56 0,-56 0,-37 50,-37 50,-56"/>
<text text-anchor="middle" x="25" y="-44" font-family="Helvetica,sans-Serif" font-size="10.00">Engine</text>
</a>
</g>
</g>
<!-- Node1&#45;&gt;Node3 -->
<g id="edge2" class="edge">
<title>Node1&#45;&gt;Node3</title>
<path fill="none" stroke="black" d="M57.74,-60.08C68.44,-64.65 80.16,-69.67 90,-73.88"/>
<polygon fill="black" stroke="black" points="58.85,-56.74 48.28,-56.03 56.09,-63.18 58.85,-56.74"/>
</g>
<!-- Node4 -->
<g id="node3" class="node">
<title>Node4</title>
<g id="a_node3"><a xlink:href="group__input.html" target="_top" xlink:title=" ">
<polygon fill="white" stroke="black" points="134,-56 93,-56 93,-37 134,-37 134,-56"/>
<text text-anchor="middle" x="113.5" y="-44" font-family="Helvetica,sans-Serif" font-size="10.00">Input</text>
</a>
</g>
</g>
<!-- Node1&#45;&gt;Node4 -->
<g id="edge3" class="edge">
<title>Node1&#45;&gt;Node4</title>
<path fill="none" stroke="black" d="M60.35,-46.5C71.41,-46.5 83.28,-46.5 92.9,-46.5"/>
<polygon fill="black" stroke="black" points="60.1,-43 50.1,-46.5 60.1,-50 60.1,-43"/>
</g>
<!-- Node2 -->
<g id="node4" class="node">
<title>Node2</title>
<g id="a_node4"><a xlink:href="group__model_engine.html" target="_top" xlink:title=" ">
<polygon fill="white" stroke="black" points="137,-19 90,-19 90,0 137,0 137,-19"/>
<text text-anchor="middle" x="113.5" y="-7" font-family="Helvetica,sans-Serif" font-size="10.00">Model</text>
</a>
</g>
</g>
<!-- Node1&#45;&gt;Node2 -->
<g id="edge1" class="edge">
<title>Node1&#45;&gt;Node2</title>
<path fill="none" stroke="black" d="M57.74,-32.92C68.44,-28.35 80.16,-23.33 90,-19.12"/>
<polygon fill="black" stroke="black" points="56.09,-29.82 48.28,-36.97 58.85,-36.26 56.09,-29.82"/>
</g>
</g>
</svg>
