<?xml version="1.0" encoding="UTF-8" standalone="no"?>
<!DOCTYPE svg PUBLIC "-//W3C//DTD SVG 1.1//EN"
 "http://www.w3.org/Graphics/SVG/1.1/DTD/svg11.dtd">
<!-- Generated by graphviz version 3.0.0 (0)
 -->
<!-- Title: model_cone_vertices Pages: 1 -->
<svg width="396pt" height="47pt"
 viewBox="0.00 0.00 396.00 47.00" xmlns="http://www.w3.org/2000/svg" xmlns:xlink="http://www.w3.org/1999/xlink">
<g id="graph0" class="graph" transform="scale(1 1) rotate(0) translate(4 43)">
<title>model_cone_vertices</title>
<polygon fill="white" stroke="transparent" points="-4,4 -4,-43 392,-43 392,4 -4,4"/>
<!-- Node1 -->
<g id="node1" class="node">
<title>Node1</title>
<g id="a_node1"><a xlink:title=" ">
<polygon fill="#bfbfbf" stroke="black" points="0,-0.5 0,-19.5 120,-19.5 120,-0.5 0,-0.5"/>
<text text-anchor="middle" x="60" y="-7.5" font-family="Helvetica,sans-Serif" font-size="10.00">model_cone_vertices</text>
</a>
</g>
</g>
<!-- Node2 -->
<g id="node2" class="node">
<title>Node2</title>
<g id="a_node2"><a xlink:href="group__cone.html#ga30e1b3df23e49e33821bac9f6bf679db" target="_top" xlink:title=" ">
<polygon fill="white" stroke="black" points="156,-19.5 156,-38.5 269,-38.5 269,-19.5 156,-19.5"/>
<text text-anchor="middle" x="212.5" y="-26.5" font-family="Helvetica,sans-Serif" font-size="10.00">model_cone_vertex</text>
</a>
</g>
</g>
<!-- Node1&#45;&gt;Node2 -->
<g id="edge1" class="edge">
<title>Node1&#45;&gt;Node2</title>
<path fill="none" stroke="midnightblue" d="M120.05,-17.45C128.36,-18.5 136.95,-19.59 145.39,-20.65"/>
<polygon fill="midnightblue" stroke="midnightblue" points="145.21,-24.16 155.57,-21.94 146.09,-17.21 145.21,-24.16"/>
</g>
<!-- Node3 -->
<g id="node3" class="node">
<title>Node3</title>
<g id="a_node3"><a xlink:href="group__points.html#ga127fb8e56ec1e38505cdd9ea6efa2cf6" target="_top" xlink:title=" ">
<polygon fill="white" stroke="black" points="305,-0.5 305,-19.5 388,-19.5 388,-0.5 305,-0.5"/>
<text text-anchor="middle" x="346.5" y="-7.5" font-family="Helvetica,sans-Serif" font-size="10.00">points_vertex</text>
</a>
</g>
</g>
<!-- Node1&#45;&gt;Node3 -->
<g id="edge3" class="edge">
<title>Node1&#45;&gt;Node3</title>
<path fill="none" stroke="midnightblue" d="M120.29,-10C171.83,-10 245.71,-10 294.61,-10"/>
<polygon fill="midnightblue" stroke="midnightblue" points="294.65,-13.5 304.65,-10 294.65,-6.5 294.65,-13.5"/>
</g>
<!-- Node2&#45;&gt;Node3 -->
<g id="edge2" class="edge">
<title>Node2&#45;&gt;Node3</title>
<path fill="none" stroke="midnightblue" d="M269.1,-21C277.61,-19.77 286.37,-18.51 294.77,-17.3"/>
<polygon fill="midnightblue" stroke="midnightblue" points="295.41,-20.75 304.81,-15.86 294.41,-13.82 295.41,-20.75"/>
</g>
</g>
</svg>
