<?xml version="1.0" encoding="UTF-8" standalone="no"?>
<!DOCTYPE svg PUBLIC "-//W3C//DTD SVG 1.1//EN"
 "http://www.w3.org/Graphics/SVG/1.1/DTD/svg11.dtd">
<!-- Generated by graphviz version 3.0.0 (0)
 -->
<!-- Title: operations_push_groups Pages: 1 -->
<svg width="915pt" height="72pt"
 viewBox="0.00 0.00 915.00 71.50" xmlns="http://www.w3.org/2000/svg" xmlns:xlink="http://www.w3.org/1999/xlink">
<g id="graph0" class="graph" transform="scale(1 1) rotate(0) translate(4 67.5)">
<title>operations_push_groups</title>
<polygon fill="white" stroke="transparent" points="-4,4 -4,-67.5 911,-67.5 911,4 -4,4"/>
<!-- Node1 -->
<g id="node1" class="node">
<title>Node1</title>
<g id="a_node1"><a xlink:title=" ">
<polygon fill="#bfbfbf" stroke="black" points="0,-25 0,-44 135,-44 135,-25 0,-25"/>
<text text-anchor="middle" x="67.5" y="-32" font-family="Helvetica,sans-Serif" font-size="10.00">operations_push_groups</text>
</a>
</g>
</g>
<!-- Node1&#45;&gt;Node1 -->
<g id="edge1" class="edge">
<title>Node1&#45;&gt;Node1</title>
<path fill="none" stroke="midnightblue" d="M39.76,-44.26C26.26,-53.07 35.51,-62.5 67.5,-62.5 89.49,-62.5 100.74,-58.04 101.23,-52.39"/>
<polygon fill="midnightblue" stroke="midnightblue" points="103.99,-50.23 95.24,-44.26 98.35,-54.38 103.99,-50.23"/>
</g>
<!-- Node2 -->
<g id="node2" class="node">
<title>Node2</title>
<g id="a_node2"><a xlink:href="group___models.html#gaca17d77a06e750f5cd95c1b79e1a8a30" target="_top" xlink:title=" ">
<polygon fill="white" stroke="black" points="179.5,-44 179.5,-63 317.5,-63 317.5,-44 179.5,-44"/>
<text text-anchor="middle" x="248.5" y="-51" font-family="Helvetica,sans-Serif" font-size="10.00">operations_push_models</text>
</a>
</g>
</g>
<!-- Node1&#45;&gt;Node2 -->
<g id="edge2" class="edge">
<title>Node1&#45;&gt;Node2</title>
<path fill="none" stroke="midnightblue" d="M135.15,-41.57C146.19,-42.75 157.72,-43.97 169.01,-45.17"/>
<polygon fill="midnightblue" stroke="midnightblue" points="168.98,-48.69 179.3,-46.26 169.72,-41.72 168.98,-48.69"/>
</g>
<!-- Node4 -->
<g id="node4" class="node">
<title>Node4</title>
<g id="a_node4"><a xlink:href="group___transforms.html#gaaa78b92f0257bb4755731622692de0cb" target="_top" xlink:title=" ">
<polygon fill="white" stroke="black" points="171,-6 171,-25 326,-25 326,-6 171,-6"/>
<text text-anchor="middle" x="248.5" y="-13" font-family="Helvetica,sans-Serif" font-size="10.00">operations_push_transforms</text>
</a>
</g>
</g>
<!-- Node1&#45;&gt;Node4 -->
<g id="edge4" class="edge">
<title>Node1&#45;&gt;Node4</title>
<path fill="none" stroke="midnightblue" d="M135.15,-27.43C143.51,-26.54 152.16,-25.62 160.77,-24.71"/>
<polygon fill="midnightblue" stroke="midnightblue" points="161.26,-28.17 170.84,-23.64 160.52,-21.21 161.26,-28.17"/>
</g>
<!-- Node3 -->
<g id="node3" class="node">
<title>Node3</title>
<g id="a_node3"><a xlink:href="group___models.html#ga5dc84f3f40c0bb6ad63dc2da3793ddd9" target="_top" xlink:title=" ">
<polygon fill="white" stroke="black" points="383,-44 383,-63 516,-63 516,-44 383,-44"/>
<text text-anchor="middle" x="449.5" y="-51" font-family="Helvetica,sans-Serif" font-size="10.00">operations_push_model</text>
</a>
</g>
</g>
<!-- Node2&#45;&gt;Node3 -->
<g id="edge3" class="edge">
<title>Node2&#45;&gt;Node3</title>
<path fill="none" stroke="midnightblue" d="M317.71,-53.5C335.38,-53.5 354.51,-53.5 372.55,-53.5"/>
<polygon fill="midnightblue" stroke="midnightblue" points="372.74,-57 382.74,-53.5 372.74,-50 372.74,-57"/>
</g>
<!-- Node5 -->
<g id="node5" class="node">
<title>Node5</title>
<g id="a_node5"><a xlink:href="group___transforms.html#ga3ceb952cabab7fc6918d4a676d53508d" target="_top" xlink:title=" ">
<polygon fill="white" stroke="black" points="362,-6 362,-25 537,-25 537,-6 362,-6"/>
<text text-anchor="middle" x="449.5" y="-13" font-family="Helvetica,sans-Serif" font-size="10.00">operations_push_transformation</text>
</a>
</g>
</g>
<!-- Node4&#45;&gt;Node5 -->
<g id="edge5" class="edge">
<title>Node4&#45;&gt;Node5</title>
<path fill="none" stroke="midnightblue" d="M326.15,-15.5C334.57,-15.5 343.23,-15.5 351.85,-15.5"/>
<polygon fill="midnightblue" stroke="midnightblue" points="351.94,-19 361.94,-15.5 351.94,-12 351.94,-19"/>
</g>
<!-- Node6 -->
<g id="node6" class="node">
<title>Node6</title>
<g id="a_node6"><a xlink:href="group___transforms.html#ga5078bb9f7411d7f9f26c535a52ae7c6b" target="_top" xlink:title=" ">
<polygon fill="white" stroke="black" points="573,-22.5 573,-52.5 721,-52.5 721,-22.5 573,-22.5"/>
<text text-anchor="start" x="581" y="-40.5" font-family="Helvetica,sans-Serif" font-size="10.00">operations_push_extended</text>
<text text-anchor="middle" x="647" y="-29.5" font-family="Helvetica,sans-Serif" font-size="10.00">_translate_attributes</text>
</a>
</g>
</g>
<!-- Node5&#45;&gt;Node6 -->
<g id="edge6" class="edge">
<title>Node5&#45;&gt;Node6</title>
<path fill="none" stroke="midnightblue" d="M535.11,-25.02C544.26,-26.05 553.56,-27.1 562.69,-28.13"/>
<polygon fill="midnightblue" stroke="midnightblue" points="562.59,-31.64 572.91,-29.28 563.37,-24.68 562.59,-31.64"/>
</g>
<!-- Node7 -->
<g id="node7" class="node">
<title>Node7</title>
<g id="a_node7"><a xlink:href="group___transforms.html#gaa15fe56d7980e7877845f3bc09125017" target="_top" xlink:title=" ">
<polygon fill="white" stroke="black" points="757,-0.5 757,-30.5 907,-30.5 907,-0.5 757,-0.5"/>
<text text-anchor="start" x="765" y="-18.5" font-family="Helvetica,sans-Serif" font-size="10.00">operations_push_transform</text>
<text text-anchor="middle" x="832" y="-7.5" font-family="Helvetica,sans-Serif" font-size="10.00">_attributes</text>
</a>
</g>
</g>
<!-- Node5&#45;&gt;Node7 -->
<g id="edge8" class="edge">
<title>Node5&#45;&gt;Node7</title>
<path fill="none" stroke="midnightblue" d="M537.16,-13.11C549.2,-12.86 561.41,-12.64 573,-12.5 638.77,-11.69 655.23,-11.6 721,-12.5 729.31,-12.61 737.97,-12.77 746.62,-12.96"/>
<polygon fill="midnightblue" stroke="midnightblue" points="746.67,-16.47 756.75,-13.2 746.83,-9.47 746.67,-16.47"/>
</g>
<!-- Node6&#45;&gt;Node7 -->
<g id="edge7" class="edge">
<title>Node6&#45;&gt;Node7</title>
<path fill="none" stroke="midnightblue" d="M721.12,-28.71C729.56,-27.7 738.22,-26.65 746.8,-25.62"/>
<polygon fill="midnightblue" stroke="midnightblue" points="747.29,-29.09 756.8,-24.42 746.46,-22.14 747.29,-29.09"/>
</g>
</g>
</svg>
