<?xml version="1.0" encoding="UTF-8" standalone="no"?>
<!DOCTYPE svg PUBLIC "-//W3C//DTD SVG 1.1//EN"
 "http://www.w3.org/Graphics/SVG/1.1/DTD/svg11.dtd">
<!-- Generated by graphviz version 3.0.0 (0)
 -->
<!-- Title: operations_push_transform_attributes Pages: 1 -->
<!--zoomable 82 -->
<svg id="main" version="1.1" xmlns="http://www.w3.org/2000/svg" xmlns:xlink="http://www.w3.org/1999/xlink" xml:space="preserve" onload="init(evt)">
<style type="text/css"><![CDATA[
.edge:hover path { stroke: red; }
.edge:hover polygon { stroke: red; fill: red; }
]]></style>
<script type="text/javascript"><![CDATA[
var edges = document.getElementsByTagName('g');
if (edges && edges.length) {
  for (var i=0;i<edges.length;i++) {
    if (edges[i].id.substr(0,4)=='edge') {
      edges[i].setAttribute('class','edge');
    }
  }
}
]]></script>
        <defs>
                <circle id="rim" cx="0" cy="0" r="7"/>
                <circle id="rim2" cx="0" cy="0" r="3.5"/>
                <g id="zoomPlus">
                        <use xlink:href="#rim" fill="#404040">
                                <set attributeName="fill" to="#808080" begin="zoomplus.mouseover" end="zoomplus.mouseout"/>
                        </use>
                        <path d="M-4,0h8M0,-4v8" fill="none" stroke="white" stroke-width="1.5" pointer-events="none"/>
                </g>
                <g id="zoomMin">
                        <use xlink:href="#rim" fill="#404040">
                                <set attributeName="fill" to="#808080" begin="zoomminus.mouseover" end="zoomminus.mouseout"/>
                        </use>
                        <path d="M-4,0h8" fill="none" stroke="white" stroke-width="1.5" pointer-events="none"/>
                </g>
                <g id="dirArrow">
                        <path fill="none" stroke="white" stroke-width="1.5" d="M0,-3.0v7 M-2.5,-0.5L0,-3.0L2.5,-0.5"/>
                </g>
               <g id="resetDef">
                       <use xlink:href="#rim2" fill="#404040">
                               <set attributeName="fill" to="#808080" begin="reset.mouseover" end="reset.mouseout"/>
                       </use>
               </g>
        </defs>

<script type="text/javascript">
var viewWidth = 1418;
var viewHeight = 82;
var sectionId = 'dynsection-3';
</script>
<script xlink:href="svgpan.js"/>
<svg id="graph" class="graph">
<g id="viewport">
<title>operations_push_transform_attributes</title>
<polygon fill="white" stroke="transparent" points="-4,4 -4,-77.98 1414,-77.98 1414,4 -4,4"/>
<!-- Node1 -->
<g id="node1" class="node">
<title>Node1</title>
<g id="a_node1"><a xlink:title=" ">
<polygon fill="#bfbfbf" stroke="black" points="1260,-13.98 1260,-43.98 1410,-43.98 1410,-13.98 1260,-13.98"/>
<text text-anchor="start" x="1268" y="-31.98" font-family="Helvetica,sans-Serif" font-size="10.00">operations_push_transform</text>
<text text-anchor="middle" x="1335" y="-20.98" font-family="Helvetica,sans-Serif" font-size="10.00">_attributes</text>
</a>
</g>
</g>
<!-- Node2 -->
<g id="node2" class="node">
<title>Node2</title>
<g id="a_node2"><a xlink:href="group__xml.html#gac937a83a82258806ef77b02f97ef0834" target="_top" xlink:title=" ">
<polygon fill="white" stroke="black" points="348,-35.48 348,-54.48 467,-54.48 467,-35.48 348,-35.48"/>
<text text-anchor="middle" x="407.5" y="-42.48" font-family="Helvetica,sans-Serif" font-size="10.00">operations_load_xml</text>
</a>
</g>
</g>
<!-- Node1&#45;&gt;Node2 -->
<g id="edge1" class="edge">
<title>Node1&#45;&gt;Node2</title>
<path fill="none" stroke="midnightblue" d="M1262.26,-46.16C1249.57,-48.76 1236.44,-51.18 1224,-52.98 1104.7,-70.32 1074.05,-72.98 953.5,-72.98 953.5,-72.98 953.5,-72.98 750.5,-72.98 650.71,-72.98 535.1,-61 467.08,-52.71"/>
<polygon fill="midnightblue" stroke="midnightblue" points="1263.26,-49.53 1272.32,-44.04 1261.82,-42.68 1263.26,-49.53"/>
</g>
<!-- Node8 -->
<g id="node8" class="node">
<title>Node8</title>
<g id="a_node8"><a xlink:href="group___transforms.html#ga5078bb9f7411d7f9f26c535a52ae7c6b" target="_top" xlink:title=" ">
<polygon fill="white" stroke="black" points="1076,-13.98 1076,-43.98 1224,-43.98 1224,-13.98 1076,-13.98"/>
<text text-anchor="start" x="1084" y="-31.98" font-family="Helvetica,sans-Serif" font-size="10.00">operations_push_extended</text>
<text text-anchor="middle" x="1150" y="-20.98" font-family="Helvetica,sans-Serif" font-size="10.00">_translate_attributes</text>
</a>
</g>
</g>
<!-- Node1&#45;&gt;Node8 -->
<g id="edge7" class="edge">
<title>Node1&#45;&gt;Node8</title>
<path fill="none" stroke="midnightblue" d="M1249.81,-28.98C1241.22,-28.98 1232.54,-28.98 1224.09,-28.98"/>
<polygon fill="midnightblue" stroke="midnightblue" points="1249.83,-32.48 1259.83,-28.98 1249.83,-25.48 1249.83,-32.48"/>
</g>
<!-- Node9 -->
<g id="node9" class="node">
<title>Node9</title>
<g id="a_node9"><a xlink:href="group___transforms.html#ga3ceb952cabab7fc6918d4a676d53508d" target="_top" xlink:title=" ">
<polygon fill="white" stroke="black" points="865,-7.48 865,-26.48 1040,-26.48 1040,-7.48 865,-7.48"/>
<text text-anchor="middle" x="952.5" y="-14.48" font-family="Helvetica,sans-Serif" font-size="10.00">operations_push_transformation</text>
</a>
</g>
</g>
<!-- Node1&#45;&gt;Node9 -->
<g id="edge13" class="edge">
<title>Node1&#45;&gt;Node9</title>
<path fill="none" stroke="midnightblue" d="M1269.01,-11.69C1254.31,-8.49 1238.71,-5.63 1224,-3.98 1156.25,3.62 1078.47,-1.56 1023.75,-7.48"/>
<polygon fill="midnightblue" stroke="midnightblue" points="1268.49,-15.16 1279.02,-13.95 1270.04,-8.33 1268.49,-15.16"/>
</g>
<!-- Node3 -->
<g id="node3" class="node">
<title>Node3</title>
<g id="a_node3"><a xlink:href="parsing_8cpp.html#a46d5190ea0181cc625329b5221e9dce9" target="_top" xlink:title=" ">
<polygon fill="white" stroke="black" points="215.5,-54.48 215.5,-73.48 280.5,-73.48 280.5,-54.48 215.5,-54.48"/>
<text text-anchor="middle" x="248" y="-61.48" font-family="Helvetica,sans-Serif" font-size="10.00">example1</text>
</a>
</g>
</g>
<!-- Node2&#45;&gt;Node3 -->
<g id="edge2" class="edge">
<title>Node2&#45;&gt;Node3</title>
<path fill="none" stroke="midnightblue" d="M337.87,-53.26C317.97,-55.66 297.2,-58.17 280.74,-60.15"/>
<polygon fill="midnightblue" stroke="midnightblue" points="338.34,-56.73 347.85,-52.06 337.51,-49.78 338.34,-56.73"/>
</g>
<!-- Node5 -->
<g id="node5" class="node">
<title>Node5</title>
<g id="a_node5"><a xlink:href="group__engine.html#ga2b6a8884687b3fe271b099a450a82d24" target="_top" xlink:title=" ">
<polygon fill="white" stroke="black" points="184,-16.48 184,-35.48 312,-35.48 312,-16.48 184,-16.48"/>
<text text-anchor="middle" x="248" y="-23.48" font-family="Helvetica,sans-Serif" font-size="10.00">xml_load_and_set_env</text>
</a>
</g>
</g>
<!-- Node2&#45;&gt;Node5 -->
<g id="edge4" class="edge">
<title>Node2&#45;&gt;Node5</title>
<path fill="none" stroke="midnightblue" d="M337.91,-36.71C329.36,-35.68 320.65,-34.63 312.19,-33.61"/>
<polygon fill="midnightblue" stroke="midnightblue" points="337.51,-40.19 347.85,-37.91 338.34,-33.24 337.51,-40.19"/>
</g>
<!-- Node4 -->
<g id="node4" class="node">
<title>Node4</title>
<g id="a_node4"><a xlink:href="parsing_8cpp.html#a75c2e94360fa8e46050b4f66fe444d6b" target="_top" xlink:title=" ">
<polygon fill="white" stroke="black" points="89,-54.48 89,-73.48 136,-73.48 136,-54.48 89,-54.48"/>
<text text-anchor="middle" x="112.5" y="-61.48" font-family="Helvetica,sans-Serif" font-size="10.00">main2</text>
</a>
</g>
</g>
<!-- Node3&#45;&gt;Node4 -->
<g id="edge3" class="edge">
<title>Node3&#45;&gt;Node4</title>
<path fill="none" stroke="midnightblue" d="M205.24,-63.98C182.41,-63.98 155.02,-63.98 136.14,-63.98"/>
<polygon fill="midnightblue" stroke="midnightblue" points="205.36,-67.48 215.36,-63.98 205.36,-60.48 205.36,-67.48"/>
</g>
<!-- Node6 -->
<g id="node6" class="node">
<title>Node6</title>
<g id="a_node6"><a xlink:href="group__engine.html#ga98eaf946471acbd931de5d52ca83b3d1" target="_top" xlink:title=" ">
<polygon fill="white" stroke="black" points="77,-16.48 77,-35.48 148,-35.48 148,-16.48 77,-16.48"/>
<text text-anchor="middle" x="112.5" y="-23.48" font-family="Helvetica,sans-Serif" font-size="10.00">engine_run</text>
</a>
</g>
</g>
<!-- Node5&#45;&gt;Node6 -->
<g id="edge5" class="edge">
<title>Node5&#45;&gt;Node6</title>
<path fill="none" stroke="midnightblue" d="M173.71,-25.98C164.82,-25.98 156.09,-25.98 148.16,-25.98"/>
<polygon fill="midnightblue" stroke="midnightblue" points="173.77,-29.48 183.77,-25.98 173.77,-22.48 173.77,-29.48"/>
</g>
<!-- Node7 -->
<g id="node7" class="node">
<title>Node7</title>
<g id="a_node7"><a xlink:href="group__engine.html#ga3c04138a5bfe5d72780bb7e82a18e627" target="_top" xlink:title=" ">
<polygon fill="white" stroke="black" points="0,-16.48 0,-35.48 41,-35.48 41,-16.48 0,-16.48"/>
<text text-anchor="middle" x="20.5" y="-23.48" font-family="Helvetica,sans-Serif" font-size="10.00">main</text>
</a>
</g>
</g>
<!-- Node6&#45;&gt;Node7 -->
<g id="edge6" class="edge">
<title>Node6&#45;&gt;Node7</title>
<path fill="none" stroke="midnightblue" d="M66.88,-25.98C57.87,-25.98 48.84,-25.98 41.24,-25.98"/>
<polygon fill="midnightblue" stroke="midnightblue" points="66.96,-29.48 76.96,-25.98 66.96,-22.48 66.96,-29.48"/>
</g>
<!-- Node8&#45;&gt;Node9 -->
<g id="edge8" class="edge">
<title>Node8&#45;&gt;Node9</title>
<path fill="none" stroke="midnightblue" d="M1065.94,-23.89C1057.36,-23.36 1048.62,-22.82 1040,-22.29"/>
<polygon fill="midnightblue" stroke="midnightblue" points="1065.73,-27.38 1075.93,-24.5 1066.16,-20.39 1065.73,-27.38"/>
</g>
<!-- Node10 -->
<g id="node10" class="node">
<title>Node10</title>
<g id="a_node10"><a xlink:href="group___transforms.html#gaaa78b92f0257bb4755731622692de0cb" target="_top" xlink:title=" ">
<polygon fill="white" stroke="black" points="674,-7.48 674,-26.48 829,-26.48 829,-7.48 674,-7.48"/>
<text text-anchor="middle" x="751.5" y="-14.48" font-family="Helvetica,sans-Serif" font-size="10.00">operations_push_transforms</text>
</a>
</g>
</g>
<!-- Node9&#45;&gt;Node10 -->
<g id="edge9" class="edge">
<title>Node9&#45;&gt;Node10</title>
<path fill="none" stroke="midnightblue" d="M854.77,-16.98C846.2,-16.98 837.6,-16.98 829.24,-16.98"/>
<polygon fill="midnightblue" stroke="midnightblue" points="854.79,-20.48 864.79,-16.98 854.79,-13.48 854.79,-20.48"/>
</g>
<!-- Node11 -->
<g id="node11" class="node">
<title>Node11</title>
<g id="a_node11"><a xlink:href="group___groups.html#ga72c2d5ef943a89f829c08f6707e7669d" target="_top" xlink:title=" ">
<polygon fill="white" stroke="black" points="503,-7.48 503,-26.48 638,-26.48 638,-7.48 503,-7.48"/>
<text text-anchor="middle" x="570.5" y="-14.48" font-family="Helvetica,sans-Serif" font-size="10.00">operations_push_groups</text>
</a>
</g>
</g>
<!-- Node10&#45;&gt;Node11 -->
<g id="edge10" class="edge">
<title>Node10&#45;&gt;Node11</title>
<path fill="none" stroke="midnightblue" d="M663.75,-16.98C655.15,-16.98 646.51,-16.98 638.16,-16.98"/>
<polygon fill="midnightblue" stroke="midnightblue" points="663.81,-20.48 673.81,-16.98 663.81,-13.48 663.81,-20.48"/>
</g>
<!-- Node11&#45;&gt;Node2 -->
<g id="edge11" class="edge">
<title>Node11&#45;&gt;Node2</title>
<path fill="none" stroke="midnightblue" d="M504.67,-28.26C490.92,-30.65 476.54,-33.15 463.21,-35.47"/>
<polygon fill="midnightblue" stroke="midnightblue" points="505.29,-31.7 514.54,-26.54 504.09,-24.81 505.29,-31.7"/>
</g>
<!-- Node11&#45;&gt;Node11 -->
<g id="edge12" class="edge">
<title>Node11&#45;&gt;Node11</title>
<path fill="none" stroke="midnightblue" d="M600.81,-35.26C599.95,-40.72 589.85,-44.98 570.5,-44.98 541.71,-44.98 533.38,-35.55 545.53,-26.74"/>
<polygon fill="midnightblue" stroke="midnightblue" points="603.75,-33.35 595.47,-26.74 597.82,-37.07 603.75,-33.35"/>
</g>
</g>
</svg>
        <g id="navigator" transform="translate(0 0)" fill="#404254">
                <rect fill="#f2f5e9" fill-opacity="0.5" stroke="#606060" stroke-width=".5" x="0" y="0" width="60" height="60"/>
                <use id="zoomplus" xlink:href="#zoomPlus" x="17" y="9" onmousedown="handleZoom(evt,'in')"/>
                <use id="zoomminus" xlink:href="#zoomMin" x="42" y="9" onmousedown="handleZoom(evt,'out')"/>
                <use id="reset" xlink:href="#resetDef" x="30" y="36" onmousedown="handleReset()"/>
                <g id="arrowUp" xlink:href="#dirArrow" transform="translate(30 24)" onmousedown="handlePan(0,-1)">
                  <use xlink:href="#rim" fill="#404040">
                        <set attributeName="fill" to="#808080" begin="arrowUp.mouseover" end="arrowUp.mouseout"/>
                  </use>
                  <path fill="none" stroke="white" stroke-width="1.5" d="M0,-3.0v7 M-2.5,-0.5L0,-3.0L2.5,-0.5"/>
                </g>
                <g id="arrowRight" xlink:href="#dirArrow" transform="rotate(90) translate(36 -43)" onmousedown="handlePan(1,0)">
                  <use xlink:href="#rim" fill="#404040">
                        <set attributeName="fill" to="#808080" begin="arrowRight.mouseover" end="arrowRight.mouseout"/>
                  </use>
                  <path fill="none" stroke="white" stroke-width="1.5" d="M0,-3.0v7 M-2.5,-0.5L0,-3.0L2.5,-0.5"/>
                </g>
                <g id="arrowDown" xlink:href="#dirArrow" transform="rotate(180) translate(-30 -48)" onmousedown="handlePan(0,1)">
                  <use xlink:href="#rim" fill="#404040">
                        <set attributeName="fill" to="#808080" begin="arrowDown.mouseover" end="arrowDown.mouseout"/>
                  </use>
                  <path fill="none" stroke="white" stroke-width="1.5" d="M0,-3.0v7 M-2.5,-0.5L0,-3.0L2.5,-0.5"/>
                </g>
                <g id="arrowLeft" xlink:href="#dirArrow" transform="rotate(270) translate(-36 17)" onmousedown="handlePan(-1,0)">
                  <use xlink:href="#rim" fill="#404040">
                        <set attributeName="fill" to="#808080" begin="arrowLeft.mouseover" end="arrowLeft.mouseout"/>
                  </use>
                  <path fill="none" stroke="white" stroke-width="1.5" d="M0,-3.0v7 M-2.5,-0.5L0,-3.0L2.5,-0.5"/>
                </g>
        </g>
        <svg viewBox="0 0 15 15" width="100%" height="30px" preserveAspectRatio="xMaxYMin meet">
         <g id="arrow_out" transform="scale(0.3 0.3)">
          <a xlink:href="group___transforms_gaa15fe56d7980e7877845f3bc09125017_icgraph_org.svg" target="_base">
           <rect id="button" ry="5" rx="5" y="6" x="6" height="38" width="38"
                fill="#f2f5e9" fill-opacity="0.5" stroke="#606060" stroke-width="1.0"/>
           <path id="arrow"
             d="M 11.500037,31.436501 C 11.940474,20.09759 22.043105,11.32322 32.158766,21.979434 L 37.068811,17.246167 C 37.068811,17.246167 37.088388,32 37.088388,32 L 22.160133,31.978069 C 22.160133,31.978069 26.997745,27.140456 26.997745,27.140456 C 18.528582,18.264221 13.291696,25.230495 11.500037,31.436501 z"
             style="fill:#404040;"/>
          </a>
         </g>
        </svg>
</svg>
