<?xml version="1.0" encoding="UTF-8" standalone="no"?>
<!DOCTYPE svg PUBLIC "-//W3C//DTD SVG 1.1//EN"
 "http://www.w3.org/Graphics/SVG/1.1/DTD/svg11.dtd">
<!-- Generated by graphviz version 3.0.0 (0)
 -->
<!-- Title: get_curve Pages: 1 -->
<svg width="352pt" height="66pt"
 viewBox="0.00 0.00 352.00 66.00" xmlns="http://www.w3.org/2000/svg" xmlns:xlink="http://www.w3.org/1999/xlink">
<g id="graph0" class="graph" transform="scale(1 1) rotate(0) translate(4 62)">
<title>get_curve</title>
<polygon fill="white" stroke="transparent" points="-4,4 -4,-62 348,-62 348,4 -4,4"/>
<!-- Node1 -->
<g id="node1" class="node">
<title>Node1</title>
<g id="a_node1"><a xlink:title=" ">
<polygon fill="#bfbfbf" stroke="black" points="279,-19.5 279,-38.5 344,-38.5 344,-19.5 279,-19.5"/>
<text text-anchor="middle" x="311.5" y="-26.5" font-family="Helvetica,sans-Serif" font-size="10.00">get_curve</text>
</a>
</g>
</g>
<!-- Node2 -->
<g id="node2" class="node">
<title>Node2</title>
<g id="a_node2"><a xlink:href="group__sphere.html#gae1f2aea35fc8ca6d56097bc3b7824c07" target="_top" xlink:title=" ">
<polygon fill="white" stroke="black" points="145,-38.5 145,-57.5 243,-57.5 243,-38.5 145,-38.5"/>
<text text-anchor="middle" x="194" y="-45.5" font-family="Helvetica,sans-Serif" font-size="10.00">get_bezier_point</text>
</a>
</g>
</g>
<!-- Node1&#45;&gt;Node2 -->
<g id="edge1" class="edge">
<title>Node1&#45;&gt;Node2</title>
<path fill="none" stroke="midnightblue" d="M268.82,-35.86C260.58,-37.21 251.87,-38.64 243.44,-40.03"/>
<polygon fill="midnightblue" stroke="midnightblue" points="269.64,-39.27 278.94,-34.19 268.5,-32.36 269.64,-39.27"/>
</g>
<!-- Node4 -->
<g id="node4" class="node">
<title>Node4</title>
<g id="a_node4"><a xlink:href="group__sphere.html#ga43ee8fc382b0ea43a7da3f871d9c631e" target="_top" xlink:title=" ">
<polygon fill="white" stroke="black" points="161.5,-0.5 161.5,-19.5 226.5,-19.5 226.5,-0.5 161.5,-0.5"/>
<text text-anchor="middle" x="194" y="-7.5" font-family="Helvetica,sans-Serif" font-size="10.00">get_curve</text>
</a>
</g>
</g>
<!-- Node1&#45;&gt;Node4 -->
<g id="edge3" class="edge">
<title>Node1&#45;&gt;Node4</title>
<path fill="none" stroke="midnightblue" d="M269.04,-22.18C255.03,-19.88 239.63,-17.34 226.52,-15.19"/>
<polygon fill="midnightblue" stroke="midnightblue" points="268.5,-25.64 278.94,-23.81 269.64,-18.73 268.5,-25.64"/>
</g>
<!-- Node3 -->
<g id="node3" class="node">
<title>Node3</title>
<g id="a_node3"><a xlink:href="group__sphere.html#ga43727f23d266c85a2475ddbd478cee5d" target="_top" xlink:title=" ">
<polygon fill="white" stroke="black" points="0,-38.5 0,-57.5 109,-57.5 109,-38.5 0,-38.5"/>
<text text-anchor="middle" x="54.5" y="-45.5" font-family="Helvetica,sans-Serif" font-size="10.00">get_bezier_surface</text>
</a>
</g>
</g>
<!-- Node2&#45;&gt;Node3 -->
<g id="edge2" class="edge">
<title>Node2&#45;&gt;Node3</title>
<path fill="none" stroke="midnightblue" d="M134.79,-48C126.38,-48 117.76,-48 109.44,-48"/>
<polygon fill="midnightblue" stroke="midnightblue" points="134.91,-51.5 144.91,-48 134.91,-44.5 134.91,-51.5"/>
</g>
</g>
</svg>
