<?xml version="1.0" encoding="UTF-8" standalone="no"?>
<!DOCTYPE svg PUBLIC "-//W3C//DTD SVG 1.1//EN"
 "http://www.w3.org/Graphics/SVG/1.1/DTD/svg11.dtd">
<!-- Generated by graphviz version 3.0.0 (0)
 -->
<!-- Title: operations_load_xml Pages: 1 -->
<svg width="475pt" height="66pt"
 viewBox="0.00 0.00 475.00 66.00" xmlns="http://www.w3.org/2000/svg" xmlns:xlink="http://www.w3.org/1999/xlink">
<g id="graph0" class="graph" transform="scale(1 1) rotate(0) translate(4 62)">
<title>operations_load_xml</title>
<polygon fill="white" stroke="transparent" points="-4,4 -4,-62 471,-62 471,4 -4,4"/>
<!-- Node1 -->
<g id="node1" class="node">
<title>Node1</title>
<g id="a_node1"><a xlink:title=" ">
<polygon fill="#bfbfbf" stroke="black" points="348,-19.5 348,-38.5 467,-38.5 467,-19.5 348,-19.5"/>
<text text-anchor="middle" x="407.5" y="-26.5" font-family="Helvetica,sans-Serif" font-size="10.00">operations_load_xml</text>
</a>
</g>
</g>
<!-- Node2 -->
<g id="node2" class="node">
<title>Node2</title>
<g id="a_node2"><a xlink:href="parsing_8cpp.html#a46d5190ea0181cc625329b5221e9dce9" target="_top" xlink:title=" ">
<polygon fill="white" stroke="black" points="215.5,-38.5 215.5,-57.5 280.5,-57.5 280.5,-38.5 215.5,-38.5"/>
<text text-anchor="middle" x="248" y="-45.5" font-family="Helvetica,sans-Serif" font-size="10.00">example1</text>
</a>
</g>
</g>
<!-- Node1&#45;&gt;Node2 -->
<g id="edge1" class="edge">
<title>Node1&#45;&gt;Node2</title>
<path fill="none" stroke="midnightblue" d="M337.87,-37.28C317.97,-39.68 297.2,-42.19 280.74,-44.17"/>
<polygon fill="midnightblue" stroke="midnightblue" points="338.34,-40.75 347.85,-36.07 337.51,-33.8 338.34,-40.75"/>
</g>
<!-- Node4 -->
<g id="node4" class="node">
<title>Node4</title>
<g id="a_node4"><a xlink:href="group__engine.html#ga2b6a8884687b3fe271b099a450a82d24" target="_top" xlink:title=" ">
<polygon fill="white" stroke="black" points="184,-0.5 184,-19.5 312,-19.5 312,-0.5 184,-0.5"/>
<text text-anchor="middle" x="248" y="-7.5" font-family="Helvetica,sans-Serif" font-size="10.00">xml_load_and_set_env</text>
</a>
</g>
</g>
<!-- Node1&#45;&gt;Node4 -->
<g id="edge3" class="edge">
<title>Node1&#45;&gt;Node4</title>
<path fill="none" stroke="midnightblue" d="M337.91,-20.73C329.36,-19.69 320.65,-18.64 312.19,-17.62"/>
<polygon fill="midnightblue" stroke="midnightblue" points="337.51,-24.2 347.85,-21.93 338.34,-17.25 337.51,-24.2"/>
</g>
<!-- Node3 -->
<g id="node3" class="node">
<title>Node3</title>
<g id="a_node3"><a xlink:href="parsing_8cpp.html#a75c2e94360fa8e46050b4f66fe444d6b" target="_top" xlink:title=" ">
<polygon fill="white" stroke="black" points="89,-38.5 89,-57.5 136,-57.5 136,-38.5 89,-38.5"/>
<text text-anchor="middle" x="112.5" y="-45.5" font-family="Helvetica,sans-Serif" font-size="10.00">main2</text>
</a>
</g>
</g>
<!-- Node2&#45;&gt;Node3 -->
<g id="edge2" class="edge">
<title>Node2&#45;&gt;Node3</title>
<path fill="none" stroke="midnightblue" d="M205.24,-48C182.41,-48 155.02,-48 136.14,-48"/>
<polygon fill="midnightblue" stroke="midnightblue" points="205.36,-51.5 215.36,-48 205.36,-44.5 205.36,-51.5"/>
</g>
<!-- Node5 -->
<g id="node5" class="node">
<title>Node5</title>
<g id="a_node5"><a xlink:href="group__engine.html#ga98eaf946471acbd931de5d52ca83b3d1" target="_top" xlink:title=" ">
<polygon fill="white" stroke="black" points="77,-0.5 77,-19.5 148,-19.5 148,-0.5 77,-0.5"/>
<text text-anchor="middle" x="112.5" y="-7.5" font-family="Helvetica,sans-Serif" font-size="10.00">engine_run</text>
</a>
</g>
</g>
<!-- Node4&#45;&gt;Node5 -->
<g id="edge4" class="edge">
<title>Node4&#45;&gt;Node5</title>
<path fill="none" stroke="midnightblue" d="M173.71,-10C164.82,-10 156.09,-10 148.16,-10"/>
<polygon fill="midnightblue" stroke="midnightblue" points="173.77,-13.5 183.77,-10 173.77,-6.5 173.77,-13.5"/>
</g>
<!-- Node6 -->
<g id="node6" class="node">
<title>Node6</title>
<g id="a_node6"><a xlink:href="group__engine.html#ga3c04138a5bfe5d72780bb7e82a18e627" target="_top" xlink:title=" ">
<polygon fill="white" stroke="black" points="0,-0.5 0,-19.5 41,-19.5 41,-0.5 0,-0.5"/>
<text text-anchor="middle" x="20.5" y="-7.5" font-family="Helvetica,sans-Serif" font-size="10.00">main</text>
</a>
</g>
</g>
<!-- Node5&#45;&gt;Node6 -->
<g id="edge5" class="edge">
<title>Node5&#45;&gt;Node6</title>
<path fill="none" stroke="midnightblue" d="M66.88,-10C57.87,-10 48.84,-10 41.24,-10"/>
<polygon fill="midnightblue" stroke="midnightblue" points="66.96,-13.5 76.96,-10 66.96,-6.5 66.96,-13.5"/>
</g>
</g>
</svg>
