<?xml version="1.0" encoding="UTF-8" standalone="no"?>
<!DOCTYPE svg PUBLIC "-//W3C//DTD SVG 1.1//EN"
 "http://www.w3.org/Graphics/SVG/1.1/DTD/svg11.dtd">
<!-- Generated by graphviz version 3.0.0 (0)
 -->
<!-- Title: Generator Pages: 1 -->
<svg width="156pt" height="64pt"
 viewBox="0.00 0.00 156.00 64.00" xmlns="http://www.w3.org/2000/svg" xmlns:xlink="http://www.w3.org/1999/xlink">
<g id="graph0" class="graph" transform="scale(1 1) rotate(0) translate(4 60)">
<title>Generator</title>
<polygon fill="white" stroke="transparent" points="-4,4 -4,-60 152,-60 152,4 -4,4"/>
<!-- Node1 -->
<g id="node1" class="node">
<title>Node1</title>
<g id="a_node1"><a xlink:title=" ">
<polygon fill="#bfbfbf" stroke="black" points="65,-37 0,-37 0,-18 65,-18 65,-37"/>
<text text-anchor="middle" x="32.5" y="-25" font-family="Helvetica,sans-Serif" font-size="10.00">Generator</text>
</a>
</g>
</g>
<!-- Node3 -->
<g id="node2" class="node">
<title>Node3</title>
<g id="a_node2"><a xlink:href="group__model.html" target="_top" xlink:title=" ">
<polygon fill="white" stroke="black" points="148,-56 101,-56 101,-37 148,-37 148,-56"/>
<text text-anchor="middle" x="124.5" y="-44" font-family="Helvetica,sans-Serif" font-size="10.00">Model</text>
</a>
</g>
</g>
<!-- Node1&#45;&gt;Node3 -->
<g id="edge2" class="edge">
<title>Node1&#45;&gt;Node3</title>
<path fill="none" stroke="black" d="M75.09,-36.28C83.95,-38.15 92.98,-40.06 100.81,-41.71"/>
<polygon fill="black" stroke="black" points="75.74,-32.84 65.23,-34.2 74.29,-39.69 75.74,-32.84"/>
</g>
<!-- Node2 -->
<g id="node3" class="node">
<title>Node2</title>
<g id="a_node3"><a xlink:href="group__points.html" target="_top" xlink:title=" ">
<polygon fill="white" stroke="black" points="148,-19 101,-19 101,0 148,0 148,-19"/>
<text text-anchor="middle" x="124.5" y="-7" font-family="Helvetica,sans-Serif" font-size="10.00">Points</text>
</a>
</g>
</g>
<!-- Node1&#45;&gt;Node2 -->
<g id="edge1" class="edge">
<title>Node1&#45;&gt;Node2</title>
<path fill="none" stroke="black" d="M75.09,-19.18C83.95,-17.41 92.98,-15.6 100.81,-14.04"/>
<polygon fill="black" stroke="black" points="74.35,-15.76 65.23,-21.15 75.72,-22.62 74.35,-15.76"/>
</g>
</g>
</svg>
