<?xml version="1.0" encoding="UTF-8" standalone="no"?>
<!DOCTYPE svg PUBLIC "-//W3C//DTD SVG 1.1//EN"
 "http://www.w3.org/Graphics/SVG/1.1/DTD/svg11.dtd">
<!-- Generated by graphviz version 3.0.0 (0)
 -->
<!-- Title: Model Pages: 1 -->
<svg width="242pt" height="138pt"
 viewBox="0.00 0.00 242.00 138.00" xmlns="http://www.w3.org/2000/svg" xmlns:xlink="http://www.w3.org/1999/xlink">
<g id="graph0" class="graph" transform="scale(1 1) rotate(0) translate(4 134)">
<title>Model</title>
<polygon fill="white" stroke="transparent" points="-4,4 -4,-134 238,-134 238,4 -4,4"/>
<!-- Node5 -->
<g id="node1" class="node">
<title>Node5</title>
<g id="a_node1"><a xlink:href="group__cone.html" target="_top" xlink:title=" ">
<polygon fill="white" stroke="black" points="229.5,-130 188.5,-130 188.5,-111 229.5,-111 229.5,-130"/>
<text text-anchor="middle" x="209" y="-118" font-family="Helvetica,sans-Serif" font-size="10.00">Cone</text>
</a>
</g>
</g>
<!-- Node4 -->
<g id="node2" class="node">
<title>Node4</title>
<g id="a_node2"><a xlink:href="group__cube.html" target="_top" xlink:title=" ">
<polygon fill="white" stroke="black" points="229.5,-93 188.5,-93 188.5,-74 229.5,-74 229.5,-93"/>
<text text-anchor="middle" x="209" y="-81" font-family="Helvetica,sans-Serif" font-size="10.00">Cube</text>
</a>
</g>
</g>
<!-- Node2 -->
<g id="node3" class="node">
<title>Node2</title>
<g id="a_node3"><a xlink:href="group__generator.html" target="_top" xlink:title=" ">
<polygon fill="white" stroke="black" points="65,-74 0,-74 0,-55 65,-55 65,-74"/>
<text text-anchor="middle" x="32.5" y="-62" font-family="Helvetica,sans-Serif" font-size="10.00">Generator</text>
</a>
</g>
</g>
<!-- Node1 -->
<g id="node4" class="node">
<title>Node1</title>
<g id="a_node4"><a xlink:title=" ">
<polygon fill="#bfbfbf" stroke="black" points="148,-74 101,-74 101,-55 148,-55 148,-74"/>
<text text-anchor="middle" x="124.5" y="-62" font-family="Helvetica,sans-Serif" font-size="10.00">Model</text>
</a>
</g>
</g>
<!-- Node2&#45;&gt;Node1 -->
<g id="edge1" class="edge">
<title>Node2&#45;&gt;Node1</title>
<path fill="none" stroke="black" d="M75.37,-64.5C84.14,-64.5 93.07,-64.5 100.81,-64.5"/>
<polygon fill="black" stroke="black" points="75.23,-61 65.23,-64.5 75.23,-68 75.23,-61"/>
</g>
<!-- Node1&#45;&gt;Node5 -->
<g id="edge4" class="edge">
<title>Node1&#45;&gt;Node5</title>
<path fill="none" stroke="black" d="M148.35,-80.01C162.91,-89.89 181.31,-102.38 193.79,-110.86"/>
<polygon fill="black" stroke="black" points="150.11,-76.97 139.87,-74.25 146.18,-82.77 150.11,-76.97"/>
</g>
<!-- Node1&#45;&gt;Node4 -->
<g id="edge3" class="edge">
<title>Node1&#45;&gt;Node4</title>
<path fill="none" stroke="black" d="M157.94,-71.97C168.2,-74.33 179.21,-76.87 188.29,-78.96"/>
<polygon fill="black" stroke="black" points="158.57,-68.53 148.04,-69.69 157,-75.35 158.57,-68.53"/>
</g>
<!-- Node3 -->
<g id="node5" class="node">
<title>Node3</title>
<g id="a_node5"><a xlink:href="group__plane.html" target="_top" xlink:title=" ">
<polygon fill="white" stroke="black" points="231,-56 187,-56 187,-37 231,-37 231,-56"/>
<text text-anchor="middle" x="209" y="-44" font-family="Helvetica,sans-Serif" font-size="10.00">Plane</text>
</a>
</g>
</g>
<!-- Node1&#45;&gt;Node3 -->
<g id="edge2" class="edge">
<title>Node1&#45;&gt;Node3</title>
<path fill="none" stroke="black" d="M157.86,-57.44C167.62,-55.31 178.08,-53.03 186.9,-51.1"/>
<polygon fill="black" stroke="black" points="157.07,-54.03 148.04,-59.58 158.56,-60.87 157.07,-54.03"/>
</g>
<!-- Node6 -->
<g id="node6" class="node">
<title>Node6</title>
<g id="a_node6"><a xlink:href="group__sphere.html" target="_top" xlink:title=" ">
<polygon fill="white" stroke="black" points="234,-19 184,-19 184,0 234,0 234,-19"/>
<text text-anchor="middle" x="209" y="-7" font-family="Helvetica,sans-Serif" font-size="10.00">Sphere</text>
</a>
</g>
</g>
<!-- Node1&#45;&gt;Node6 -->
<g id="edge5" class="edge">
<title>Node1&#45;&gt;Node6</title>
<path fill="none" stroke="black" d="M148.29,-49.3C162.75,-39.67 181.02,-27.49 193.52,-19.16"/>
<polygon fill="black" stroke="black" points="146.25,-46.46 139.87,-54.92 150.13,-52.28 146.25,-46.46"/>
</g>
</g>
</svg>
