<?xml version="1.0" encoding="UTF-8" standalone="no"?>
<!DOCTYPE svg PUBLIC "-//W3C//DTD SVG 1.1//EN"
 "http://www.w3.org/Graphics/SVG/1.1/DTD/svg11.dtd">
<!-- Generated by graphviz version 3.0.0 (0)
 -->
<!-- Title: main Pages: 1 -->
<!--zoomable 408 -->
<svg id="main" version="1.1" xmlns="http://www.w3.org/2000/svg" xmlns:xlink="http://www.w3.org/1999/xlink" xml:space="preserve" onload="init(evt)">
<style type="text/css"><![CDATA[
.edge:hover path { stroke: red; }
.edge:hover polygon { stroke: red; fill: red; }
]]></style>
<script type="text/javascript"><![CDATA[
var edges = document.getElementsByTagName('g');
if (edges && edges.length) {
  for (var i=0;i<edges.length;i++) {
    if (edges[i].id.substr(0,4)=='edge') {
      edges[i].setAttribute('class','edge');
    }
  }
}
]]></script>
        <defs>
                <circle id="rim" cx="0" cy="0" r="7"/>
                <circle id="rim2" cx="0" cy="0" r="3.5"/>
                <g id="zoomPlus">
                        <use xlink:href="#rim" fill="#404040">
                                <set attributeName="fill" to="#808080" begin="zoomplus.mouseover" end="zoomplus.mouseout"/>
                        </use>
                        <path d="M-4,0h8M0,-4v8" fill="none" stroke="white" stroke-width="1.5" pointer-events="none"/>
                </g>
                <g id="zoomMin">
                        <use xlink:href="#rim" fill="#404040">
                                <set attributeName="fill" to="#808080" begin="zoomminus.mouseover" end="zoomminus.mouseout"/>
                        </use>
                        <path d="M-4,0h8" fill="none" stroke="white" stroke-width="1.5" pointer-events="none"/>
                </g>
                <g id="dirArrow">
                        <path fill="none" stroke="white" stroke-width="1.5" d="M0,-3.0v7 M-2.5,-0.5L0,-3.0L2.5,-0.5"/>
                </g>
               <g id="resetDef">
                       <use xlink:href="#rim2" fill="#404040">
                               <set attributeName="fill" to="#808080" begin="reset.mouseover" end="reset.mouseout"/>
                       </use>
               </g>
        </defs>

<script type="text/javascript">
var viewWidth = 1418;
var viewHeight = 408;
var sectionId = 'dynsection-5';
</script>
<script xlink:href="svgpan.js"/>
<svg id="graph" class="graph">
<g id="viewport">
<title>main</title>
<polygon fill="white" stroke="transparent" points="-4,4 -4,-404 1414,-404 1414,4 -4,4"/>
<!-- Node1 -->
<g id="node1" class="node">
<title>Node1</title>
<g id="a_node1"><a xlink:title=" ">
<polygon fill="#bfbfbf" stroke="black" points="0,-133.5 0,-152.5 41,-152.5 41,-133.5 0,-133.5"/>
<text text-anchor="middle" x="20.5" y="-140.5" font-family="Helvetica,sans-Serif" font-size="10.00">main</text>
</a>
</g>
</g>
<!-- Node2 -->
<g id="node2" class="node">
<title>Node2</title>
<g id="a_node2"><a xlink:href="group__engine.html#ga98eaf946471acbd931de5d52ca83b3d1" target="_top" xlink:title=" ">
<polygon fill="white" stroke="black" points="77,-133.5 77,-152.5 148,-152.5 148,-133.5 77,-133.5"/>
<text text-anchor="middle" x="112.5" y="-140.5" font-family="Helvetica,sans-Serif" font-size="10.00">engine_run</text>
</a>
</g>
</g>
<!-- Node1&#45;&gt;Node2 -->
<g id="edge1" class="edge">
<title>Node1&#45;&gt;Node2</title>
<path fill="none" stroke="midnightblue" d="M41.03,-143C48.62,-143 57.64,-143 66.66,-143"/>
<polygon fill="midnightblue" stroke="midnightblue" points="66.77,-146.5 76.77,-143 66.77,-139.5 66.77,-146.5"/>
</g>
<!-- Node3 -->
<g id="node3" class="node">
<title>Node3</title>
<g id="a_node3"><a xlink:href="group__engine.html#ga33e20b37682a0492a9e95d13bef17f02" target="_top" xlink:title=" ">
<polygon fill="white" stroke="black" points="212,-228.5 212,-247.5 284,-247.5 284,-228.5 212,-228.5"/>
<text text-anchor="middle" x="248" y="-235.5" font-family="Helvetica,sans-Serif" font-size="10.00">changeSize</text>
</a>
</g>
</g>
<!-- Node2&#45;&gt;Node3 -->
<g id="edge2" class="edge">
<title>Node2&#45;&gt;Node3</title>
<path fill="none" stroke="midnightblue" d="M119.88,-152.7C130.99,-168.84 155.45,-201.18 184,-219 189.53,-222.45 195.73,-225.31 202.02,-227.67"/>
<polygon fill="midnightblue" stroke="midnightblue" points="201.31,-231.12 211.91,-230.97 203.53,-224.48 201.31,-231.12"/>
</g>
<!-- Node4 -->
<g id="node4" class="node">
<title>Node4</title>
<g id="a_node4"><a xlink:href="group__input.html#gac7632fff72011e8c11ae504a4596a7f7" target="_top" xlink:title=" ">
<polygon fill="white" stroke="black" points="206,-152.5 206,-171.5 290,-171.5 290,-152.5 206,-152.5"/>
<text text-anchor="middle" x="248" y="-159.5" font-family="Helvetica,sans-Serif" font-size="10.00">keyboardFunc</text>
</a>
</g>
</g>
<!-- Node2&#45;&gt;Node4 -->
<g id="edge3" class="edge">
<title>Node2&#45;&gt;Node4</title>
<path fill="none" stroke="midnightblue" d="M148.23,-147.94C162.68,-150 179.75,-152.43 195.6,-154.68"/>
<polygon fill="midnightblue" stroke="midnightblue" points="195.41,-158.19 205.8,-156.14 196.4,-151.26 195.41,-158.19"/>
</g>
<!-- Node8 -->
<g id="node8" class="node">
<title>Node8</title>
<g id="a_node8"><a xlink:href="group__input.html#ga2bebb17428cb218231ad556de2a20ed6" target="_top" xlink:title=" ">
<polygon fill="white" stroke="black" points="211,-76.5 211,-95.5 285,-95.5 285,-76.5 211,-76.5"/>
<text text-anchor="middle" x="248" y="-83.5" font-family="Helvetica,sans-Serif" font-size="10.00">motionFunc</text>
</a>
</g>
</g>
<!-- Node2&#45;&gt;Node8 -->
<g id="edge7" class="edge">
<title>Node2&#45;&gt;Node8</title>
<path fill="none" stroke="midnightblue" d="M129.01,-133.46C143.01,-125.14 164.35,-113.16 184,-105 189.47,-102.73 195.32,-100.59 201.16,-98.64"/>
<polygon fill="midnightblue" stroke="midnightblue" points="202.45,-101.9 210.91,-95.52 200.32,-95.23 202.45,-101.9"/>
</g>
<!-- Node9 -->
<g id="node9" class="node">
<title>Node9</title>
<g id="a_node9"><a xlink:href="group__input.html#gad48076b61c0ddb6bd4fadf644bf59ff1" target="_top" xlink:title=" ">
<polygon fill="white" stroke="black" points="212,-38.5 212,-57.5 284,-57.5 284,-38.5 212,-38.5"/>
<text text-anchor="middle" x="248" y="-45.5" font-family="Helvetica,sans-Serif" font-size="10.00">mouseFunc</text>
</a>
</g>
</g>
<!-- Node2&#45;&gt;Node9 -->
<g id="edge9" class="edge">
<title>Node2&#45;&gt;Node9</title>
<path fill="none" stroke="midnightblue" d="M119.88,-133.3C130.99,-117.16 155.45,-84.82 184,-67 189.53,-63.55 195.73,-60.69 202.02,-58.33"/>
<polygon fill="midnightblue" stroke="midnightblue" points="203.53,-61.52 211.91,-55.03 201.31,-54.88 203.53,-61.52"/>
</g>
<!-- Node10 -->
<g id="node10" class="node">
<title>Node10</title>
<g id="a_node10"><a xlink:href="group__engine.html#ga91c42686f3245f22fb6b17ba5372d92c" target="_top" xlink:title=" ">
<polygon fill="white" stroke="black" points="209.5,-114.5 209.5,-133.5 286.5,-133.5 286.5,-114.5 209.5,-114.5"/>
<text text-anchor="middle" x="248" y="-121.5" font-family="Helvetica,sans-Serif" font-size="10.00">renderScene</text>
</a>
</g>
</g>
<!-- Node2&#45;&gt;Node10 -->
<g id="edge11" class="edge">
<title>Node2&#45;&gt;Node10</title>
<path fill="none" stroke="midnightblue" d="M148.23,-138.06C163.71,-135.85 182.2,-133.22 198.98,-130.83"/>
<polygon fill="midnightblue" stroke="midnightblue" points="199.76,-134.26 209.16,-129.38 198.77,-127.33 199.76,-134.26"/>
</g>
<!-- Node24 -->
<g id="node24" class="node">
<title>Node24</title>
<g id="a_node24"><a xlink:href="group__engine.html#ga2b6a8884687b3fe271b099a450a82d24" target="_top" xlink:title=" ">
<polygon fill="white" stroke="black" points="184,-190.5 184,-209.5 312,-209.5 312,-190.5 184,-190.5"/>
<text text-anchor="middle" x="248" y="-197.5" font-family="Helvetica,sans-Serif" font-size="10.00">xml_load_and_set_env</text>
</a>
</g>
</g>
<!-- Node2&#45;&gt;Node24 -->
<g id="edge27" class="edge">
<title>Node2&#45;&gt;Node24</title>
<path fill="none" stroke="midnightblue" d="M129.01,-152.54C143.01,-160.86 164.35,-172.84 184,-181 189.47,-183.27 195.32,-185.41 201.16,-187.36"/>
<polygon fill="midnightblue" stroke="midnightblue" points="200.32,-190.77 210.91,-190.48 202.45,-184.1 200.32,-190.77"/>
</g>
<!-- Node5 -->
<g id="node5" class="node">
<title>Node5</title>
<g id="a_node5"><a xlink:href="group__engine.html#ga8679d9b303f36964bf51dba0993caeaa" target="_top" xlink:title=" ">
<polygon fill="white" stroke="black" points="354.5,-190.5 354.5,-209.5 460.5,-209.5 460.5,-190.5 354.5,-190.5"/>
<text text-anchor="middle" x="407.5" y="-197.5" font-family="Helvetica,sans-Serif" font-size="10.00">env_load_defaults</text>
</a>
</g>
</g>
<!-- Node4&#45;&gt;Node5 -->
<g id="edge4" class="edge">
<title>Node4&#45;&gt;Node5</title>
<path fill="none" stroke="midnightblue" d="M288.74,-171.59C309.53,-176.6 335.16,-182.79 357.2,-188.11"/>
<polygon fill="midnightblue" stroke="midnightblue" points="356.5,-191.54 367.04,-190.48 358.14,-184.73 356.5,-191.54"/>
</g>
<!-- Node6 -->
<g id="node6" class="node">
<title>Node6</title>
<g id="a_node6"><a xlink:href="group__engine.html#gab9813926390dc5773baf0b20dc2ea16e" target="_top" xlink:title=" ">
<polygon fill="white" stroke="black" points="376.5,-76.5 376.5,-95.5 438.5,-95.5 438.5,-76.5 376.5,-76.5"/>
<text text-anchor="middle" x="407.5" y="-83.5" font-family="Helvetica,sans-Serif" font-size="10.00">redisplay</text>
</a>
</g>
</g>
<!-- Node4&#45;&gt;Node6 -->
<g id="edge5" class="edge">
<title>Node4&#45;&gt;Node6</title>
<path fill="none" stroke="midnightblue" d="M290.33,-152.91C297.84,-150.33 305.39,-147.08 312,-143 331.8,-130.79 328.33,-117.42 348,-105 353.76,-101.36 360.29,-98.36 366.84,-95.89"/>
<polygon fill="midnightblue" stroke="midnightblue" points="368.02,-99.19 376.37,-92.67 365.77,-92.56 368.02,-99.19"/>
</g>
<!-- Node7 -->
<g id="node7" class="node">
<title>Node7</title>
<g id="a_node7"><a xlink:href="group__spherical.html#gab5ff5216bffd1e15798677f24213213d" target="_top" xlink:title=" ">
<polygon fill="white" stroke="black" points="514,-0.5 514,-19.5 627,-19.5 627,-0.5 514,-0.5"/>
<text text-anchor="middle" x="570.5" y="-7.5" font-family="Helvetica,sans-Serif" font-size="10.00">spherical2Cartesian</text>
</a>
</g>
</g>
<!-- Node6&#45;&gt;Node7 -->
<g id="edge6" class="edge">
<title>Node6&#45;&gt;Node7</title>
<path fill="none" stroke="midnightblue" d="M421.97,-76.3C439.76,-63.86 472.43,-42.3 503,-29 508.36,-26.67 514.09,-24.53 519.85,-22.61"/>
<polygon fill="midnightblue" stroke="midnightblue" points="521.02,-25.91 529.51,-19.57 518.92,-19.23 521.02,-25.91"/>
</g>
<!-- Node8&#45;&gt;Node6 -->
<g id="edge8" class="edge">
<title>Node8&#45;&gt;Node6</title>
<path fill="none" stroke="midnightblue" d="M285.13,-86C309.29,-86 341.11,-86 366.1,-86"/>
<polygon fill="midnightblue" stroke="midnightblue" points="366.35,-89.5 376.35,-86 366.35,-82.5 366.35,-89.5"/>
</g>
<!-- Node9&#45;&gt;Node6 -->
<g id="edge10" class="edge">
<title>Node9&#45;&gt;Node6</title>
<path fill="none" stroke="midnightblue" d="M284.35,-56.53C308.66,-62.39 341,-70.2 366.29,-76.3"/>
<polygon fill="midnightblue" stroke="midnightblue" points="365.77,-79.77 376.31,-78.72 367.41,-72.97 365.77,-79.77"/>
</g>
<!-- Node10&#45;&gt;Node6 -->
<g id="edge26" class="edge">
<title>Node10&#45;&gt;Node6</title>
<path fill="none" stroke="midnightblue" d="M286.73,-114.9C310.88,-109.07 342.18,-101.52 366.73,-95.6"/>
<polygon fill="midnightblue" stroke="midnightblue" points="367.55,-99 376.45,-93.25 365.91,-92.19 367.55,-99"/>
</g>
<!-- Node11 -->
<g id="node11" class="node">
<title>Node11</title>
<g id="a_node11"><a xlink:href="engine_8cpp.html#a634dba686e70e7ff3f10c37d11f463da" target="_top" xlink:title=" ">
<polygon fill="white" stroke="black" points="373,-114.5 373,-133.5 442,-133.5 442,-114.5 373,-114.5"/>
<text text-anchor="middle" x="407.5" y="-121.5" font-family="Helvetica,sans-Serif" font-size="10.00">draw_axes</text>
</a>
</g>
</g>
<!-- Node10&#45;&gt;Node11 -->
<g id="edge12" class="edge">
<title>Node10&#45;&gt;Node11</title>
<path fill="none" stroke="midnightblue" d="M286.73,-124C309.56,-124 338.77,-124 362.63,-124"/>
<polygon fill="midnightblue" stroke="midnightblue" points="362.83,-127.5 372.83,-124 362.83,-120.5 362.83,-127.5"/>
</g>
<!-- Node12 -->
<g id="node12" class="node">
<title>Node12</title>
<g id="a_node12"><a xlink:href="group___operations.html#ga887f20c10a27832ea24178203a47fcc2" target="_top" xlink:title=" ">
<polygon fill="white" stroke="black" points="355,-152.5 355,-171.5 460,-171.5 460,-152.5 355,-152.5"/>
<text text-anchor="middle" x="407.5" y="-159.5" font-family="Helvetica,sans-Serif" font-size="10.00">operations_render</text>
</a>
</g>
</g>
<!-- Node10&#45;&gt;Node12 -->
<g id="edge13" class="edge">
<title>Node10&#45;&gt;Node12</title>
<path fill="none" stroke="midnightblue" d="M286.73,-133.1C307.81,-138.19 334.34,-144.59 357.07,-150.07"/>
<polygon fill="midnightblue" stroke="midnightblue" points="356.34,-153.5 366.88,-152.44 357.98,-146.69 356.34,-153.5"/>
</g>
<!-- Node13 -->
<g id="node13" class="node">
<title>Node13</title>
<g id="a_node13"><a xlink:href="curves_8cpp.html#af213e79ca700e91ea886085a4149a848" target="_top" xlink:title=" ">
<polygon fill="white" stroke="black" points="518.5,-228.5 518.5,-247.5 622.5,-247.5 622.5,-228.5 518.5,-228.5"/>
<text text-anchor="middle" x="570.5" y="-235.5" font-family="Helvetica,sans-Serif" font-size="10.00">advance_in_curve</text>
</a>
</g>
</g>
<!-- Node12&#45;&gt;Node13 -->
<g id="edge14" class="edge">
<title>Node12&#45;&gt;Node13</title>
<path fill="none" stroke="midnightblue" d="M447.18,-171.53C454.06,-174.06 460.95,-177.18 467,-181 486.67,-193.42 483.11,-206.93 503,-219 506.58,-221.17 510.42,-223.11 514.38,-224.82"/>
<polygon fill="midnightblue" stroke="midnightblue" points="513.19,-228.12 523.78,-228.46 515.71,-221.59 513.19,-228.12"/>
</g>
<!-- Node18 -->
<g id="node18" class="node">
<title>Node18</title>
<g id="a_node18"><a xlink:href="engine_8cpp.html#a072c434cfd125e58ac1cec9a5725688a" target="_top" xlink:title=" ">
<polygon fill="white" stroke="black" points="512.5,-190.5 512.5,-209.5 628.5,-209.5 628.5,-190.5 512.5,-190.5"/>
<text text-anchor="middle" x="570.5" y="-197.5" font-family="Helvetica,sans-Serif" font-size="10.00">advance_in_rotation</text>
</a>
</g>
</g>
<!-- Node12&#45;&gt;Node18 -->
<g id="edge19" class="edge">
<title>Node12&#45;&gt;Node18</title>
<path fill="none" stroke="midnightblue" d="M449.13,-171.59C470.47,-176.63 496.81,-182.84 519.41,-188.18"/>
<polygon fill="midnightblue" stroke="midnightblue" points="518.63,-191.59 529.17,-190.48 520.24,-184.78 518.63,-191.59"/>
</g>
<!-- Node19 -->
<g id="node19" class="node">
<title>Node19</title>
<g id="a_node19"><a xlink:href="group__model_engine.html#ga56beba311d0a6fcbda9aeb516fe67f8f" target="_top" xlink:title=" ">
<polygon fill="white" stroke="black" points="535.5,-152.5 535.5,-171.5 605.5,-171.5 605.5,-152.5 535.5,-152.5"/>
<text text-anchor="middle" x="570.5" y="-159.5" font-family="Helvetica,sans-Serif" font-size="10.00">allocModel</text>
</a>
</g>
</g>
<!-- Node12&#45;&gt;Node19 -->
<g id="edge20" class="edge">
<title>Node12&#45;&gt;Node19</title>
<path fill="none" stroke="midnightblue" d="M460.33,-162C481.15,-162 504.92,-162 524.95,-162"/>
<polygon fill="midnightblue" stroke="midnightblue" points="525.04,-165.5 535.04,-162 525.04,-158.5 525.04,-165.5"/>
</g>
<!-- Node20 -->
<g id="node20" class="node">
<title>Node20</title>
<g id="a_node20"><a xlink:href="group__spherical.html#ga2a22d15f7463ccd8f8d1aa65e7578983" target="_top" xlink:title=" ">
<polygon fill="white" stroke="black" points="514,-114.5 514,-133.5 627,-133.5 627,-114.5 514,-114.5"/>
<text text-anchor="middle" x="570.5" y="-121.5" font-family="Helvetica,sans-Serif" font-size="10.00">cartesian2Spherical</text>
</a>
</g>
</g>
<!-- Node12&#45;&gt;Node20 -->
<g id="edge21" class="edge">
<title>Node12&#45;&gt;Node20</title>
<path fill="none" stroke="midnightblue" d="M449.13,-152.41C470.47,-147.37 496.81,-141.16 519.41,-135.82"/>
<polygon fill="midnightblue" stroke="midnightblue" points="520.24,-139.22 529.17,-133.52 518.63,-132.41 520.24,-139.22"/>
</g>
<!-- Node21 -->
<g id="node21" class="node">
<title>Node21</title>
<g id="a_node21"><a xlink:href="curves_8cpp.html#ad812fc50a0384335487e258a6f61714e" target="_top" xlink:title=" ">
<polygon fill="white" stroke="black" points="713,-266.5 713,-285.5 790,-285.5 790,-266.5 713,-266.5"/>
<text text-anchor="middle" x="751.5" y="-273.5" font-family="Helvetica,sans-Serif" font-size="10.00">renderCurve</text>
</a>
</g>
</g>
<!-- Node12&#45;&gt;Node21 -->
<g id="edge22" class="edge">
<title>Node12&#45;&gt;Node21</title>
<path fill="none" stroke="midnightblue" d="M451.9,-171.57C457.37,-174.03 462.59,-177.12 467,-181 495.07,-205.68 472.21,-235.82 503,-257 562.21,-297.73 649.3,-293.46 702.82,-285.53"/>
<polygon fill="midnightblue" stroke="midnightblue" points="703.4,-288.98 712.73,-283.96 702.31,-282.07 703.4,-288.98"/>
</g>
<!-- Node22 -->
<g id="node22" class="node">
<title>Node22</title>
<g id="a_node22"><a xlink:href="group__model_engine.html#gae7de75a0850ac9069b4a3710b63a102c" target="_top" xlink:title=" ">
<polygon fill="white" stroke="black" points="531.5,-76.5 531.5,-95.5 609.5,-95.5 609.5,-76.5 531.5,-76.5"/>
<text text-anchor="middle" x="570.5" y="-83.5" font-family="Helvetica,sans-Serif" font-size="10.00">renderModel</text>
</a>
</g>
</g>
<!-- Node12&#45;&gt;Node22 -->
<g id="edge24" class="edge">
<title>Node12&#45;&gt;Node22</title>
<path fill="none" stroke="midnightblue" d="M447.18,-152.47C454.06,-149.94 460.95,-146.82 467,-143 486.67,-130.58 483.11,-117.07 503,-105 508.79,-101.48 515.26,-98.6 521.83,-96.23"/>
<polygon fill="midnightblue" stroke="midnightblue" points="523.02,-99.52 531.46,-93.12 520.87,-92.86 523.02,-99.52"/>
</g>
<!-- Node23 -->
<g id="node23" class="node">
<title>Node23</title>
<g id="a_node23"><a xlink:href="group__engine.html#ga260fbd3d70764684657bbf1a617ddf99" target="_top" xlink:title=" ">
<polygon fill="white" stroke="black" points="533.5,-38.5 533.5,-57.5 607.5,-57.5 607.5,-38.5 533.5,-38.5"/>
<text text-anchor="middle" x="570.5" y="-45.5" font-family="Helvetica,sans-Serif" font-size="10.00">vbo_indices</text>
</a>
</g>
</g>
<!-- Node12&#45;&gt;Node23 -->
<g id="edge25" class="edge">
<title>Node12&#45;&gt;Node23</title>
<path fill="none" stroke="midnightblue" d="M451.9,-152.43C457.37,-149.97 462.59,-146.88 467,-143 495.07,-118.32 474.49,-91.17 503,-67 508.92,-61.98 516.09,-58.28 523.51,-55.56"/>
<polygon fill="midnightblue" stroke="midnightblue" points="524.8,-58.82 533.31,-52.52 522.72,-52.14 524.8,-58.82"/>
</g>
<!-- Node14 -->
<g id="node14" class="node">
<title>Node14</title>
<g id="a_node14"><a xlink:href="curves_8cpp.html#aca4aaefe66ab2cbc9d44054ab8929c0d" target="_top" xlink:title=" ">
<polygon fill="white" stroke="black" points="690,-228.5 690,-247.5 813,-247.5 813,-228.5 690,-228.5"/>
<text text-anchor="middle" x="751.5" y="-235.5" font-family="Helvetica,sans-Serif" font-size="10.00">align_global_pos_mat</text>
</a>
</g>
</g>
<!-- Node13&#45;&gt;Node14 -->
<g id="edge15" class="edge">
<title>Node13&#45;&gt;Node14</title>
<path fill="none" stroke="midnightblue" d="M622.79,-238C640.48,-238 660.62,-238 679.6,-238"/>
<polygon fill="midnightblue" stroke="midnightblue" points="679.69,-241.5 689.69,-238 679.69,-234.5 679.69,-241.5"/>
</g>
<!-- Node15 -->
<g id="node15" class="node">
<title>Node15</title>
<g id="a_node15"><a xlink:href="curves_8cpp.html#abe9fa1f2a311f275f92f5b46fb2f8490" target="_top" xlink:title=" ">
<polygon fill="white" stroke="black" points="887.5,-247.5 887.5,-266.5 1017.5,-266.5 1017.5,-247.5 887.5,-247.5"/>
<text text-anchor="middle" x="952.5" y="-254.5" font-family="Helvetica,sans-Serif" font-size="10.00">get_curve_global_point</text>
</a>
</g>
</g>
<!-- Node14&#45;&gt;Node15 -->
<g id="edge16" class="edge">
<title>Node14&#45;&gt;Node15</title>
<path fill="none" stroke="midnightblue" d="M813.02,-243.78C833.26,-245.71 856.06,-247.89 877.23,-249.91"/>
<polygon fill="midnightblue" stroke="midnightblue" points="877.19,-253.42 887.47,-250.89 877.85,-246.45 877.19,-253.42"/>
</g>
<!-- Node16 -->
<g id="node16" class="node">
<title>Node16</title>
<g id="a_node16"><a xlink:href="curves_8cpp.html#af68f8da25ecf53c589aa5d47f1f8e164" target="_top" xlink:title=" ">
<polygon fill="white" stroke="black" points="1117.5,-257.5 1117.5,-276.5 1182.5,-276.5 1182.5,-257.5 1117.5,-257.5"/>
<text text-anchor="middle" x="1150" y="-264.5" font-family="Helvetica,sans-Serif" font-size="10.00">get_curve</text>
</a>
</g>
</g>
<!-- Node15&#45;&gt;Node16 -->
<g id="edge17" class="edge">
<title>Node15&#45;&gt;Node16</title>
<path fill="none" stroke="midnightblue" d="M1017.51,-260.27C1046.97,-261.78 1081.09,-263.53 1107.19,-264.86"/>
<polygon fill="midnightblue" stroke="midnightblue" points="1107.33,-268.37 1117.49,-265.39 1107.68,-261.38 1107.33,-268.37"/>
</g>
<!-- Node17 -->
<g id="node17" class="node">
<title>Node17</title>
<g id="a_node17"><a xlink:href="curves_8cpp.html#afa648d7de8c941b50b26f02755a955b9" target="_top" xlink:title=" ">
<polygon fill="white" stroke="black" points="1105.5,-219.5 1105.5,-238.5 1194.5,-238.5 1194.5,-219.5 1105.5,-219.5"/>
<text text-anchor="middle" x="1150" y="-226.5" font-family="Helvetica,sans-Serif" font-size="10.00">get_curve_info</text>
</a>
</g>
</g>
<!-- Node15&#45;&gt;Node17 -->
<g id="edge18" class="edge">
<title>Node15&#45;&gt;Node17</title>
<path fill="none" stroke="midnightblue" d="M1017.51,-247.83C1042.65,-244.23 1071.19,-240.14 1095.23,-236.7"/>
<polygon fill="midnightblue" stroke="midnightblue" points="1095.84,-240.15 1105.24,-235.27 1094.84,-233.22 1095.84,-240.15"/>
</g>
<!-- Node21&#45;&gt;Node15 -->
<g id="edge23" class="edge">
<title>Node21&#45;&gt;Node15</title>
<path fill="none" stroke="midnightblue" d="M790.4,-272.38C814.81,-270.05 847.38,-266.94 876.84,-264.13"/>
<polygon fill="midnightblue" stroke="midnightblue" points="877.49,-267.58 887.12,-263.15 876.83,-260.61 877.49,-267.58"/>
</g>
<!-- Node24&#45;&gt;Node5 -->
<g id="edge28" class="edge">
<title>Node24&#45;&gt;Node5</title>
<path fill="none" stroke="midnightblue" d="M312.15,-200C322.79,-200 333.82,-200 344.43,-200"/>
<polygon fill="midnightblue" stroke="midnightblue" points="344.44,-203.5 354.44,-200 344.44,-196.5 344.44,-203.5"/>
</g>
<!-- Node24&#45;&gt;Node12 -->
<g id="edge40" class="edge">
<title>Node24&#45;&gt;Node12</title>
<path fill="none" stroke="midnightblue" d="M288.74,-190.41C309.53,-185.4 335.16,-179.21 357.2,-173.89"/>
<polygon fill="midnightblue" stroke="midnightblue" points="358.14,-177.27 367.04,-171.52 356.5,-170.46 358.14,-177.27"/>
</g>
<!-- Node25 -->
<g id="node25" class="node">
<title>Node25</title>
<g id="a_node25"><a xlink:href="group__xml.html#gac937a83a82258806ef77b02f97ef0834" target="_top" xlink:title=" ">
<polygon fill="white" stroke="black" points="348,-304.5 348,-323.5 467,-323.5 467,-304.5 348,-304.5"/>
<text text-anchor="middle" x="407.5" y="-311.5" font-family="Helvetica,sans-Serif" font-size="10.00">operations_load_xml</text>
</a>
</g>
</g>
<!-- Node24&#45;&gt;Node25 -->
<g id="edge29" class="edge">
<title>Node24&#45;&gt;Node25</title>
<path fill="none" stroke="midnightblue" d="M291.24,-209.57C298.44,-212.07 305.63,-215.18 312,-219 346.04,-239.42 376.68,-274.82 393.34,-296.16"/>
<polygon fill="midnightblue" stroke="midnightblue" points="390.74,-298.53 399.59,-304.36 396.31,-294.29 390.74,-298.53"/>
</g>
<!-- Node26 -->
<g id="node26" class="node">
<title>Node26</title>
<g id="a_node26"><a xlink:href="group___groups.html#ga72c2d5ef943a89f829c08f6707e7669d" target="_top" xlink:title=" ">
<polygon fill="white" stroke="black" points="503,-342.5 503,-361.5 638,-361.5 638,-342.5 503,-342.5"/>
<text text-anchor="middle" x="570.5" y="-349.5" font-family="Helvetica,sans-Serif" font-size="10.00">operations_push_groups</text>
</a>
</g>
</g>
<!-- Node25&#45;&gt;Node26 -->
<g id="edge30" class="edge">
<title>Node25&#45;&gt;Node26</title>
<path fill="none" stroke="midnightblue" d="M449.13,-323.59C470.47,-328.63 496.81,-334.84 519.41,-340.18"/>
<polygon fill="midnightblue" stroke="midnightblue" points="518.63,-343.59 529.17,-342.48 520.24,-336.78 518.63,-343.59"/>
</g>
<!-- Node32 -->
<g id="node32" class="node">
<title>Node32</title>
<g id="a_node32"><a xlink:href="group___transforms.html#gaa15fe56d7980e7877845f3bc09125017" target="_top" xlink:title=" ">
<polygon fill="white" stroke="black" points="1260,-343 1260,-373 1410,-373 1410,-343 1260,-343"/>
<text text-anchor="start" x="1268" y="-361" font-family="Helvetica,sans-Serif" font-size="10.00">operations_push_transform</text>
<text text-anchor="middle" x="1335" y="-350" font-family="Helvetica,sans-Serif" font-size="10.00">_attributes</text>
</a>
</g>
</g>
<!-- Node25&#45;&gt;Node32 -->
<g id="edge39" class="edge">
<title>Node25&#45;&gt;Node32</title>
<path fill="none" stroke="midnightblue" d="M467.2,-314C535.33,-314 651.05,-314 750.5,-314 750.5,-314 750.5,-314 953.5,-314 1074.02,-314 1104.78,-315.37 1224,-333 1237.56,-335.01 1251.93,-337.78 1265.66,-340.76"/>
<polygon fill="midnightblue" stroke="midnightblue" points="1264.99,-344.2 1275.51,-342.96 1266.51,-337.37 1264.99,-344.2"/>
</g>
<!-- Node26&#45;&gt;Node26 -->
<g id="edge31" class="edge">
<title>Node26&#45;&gt;Node26</title>
<path fill="none" stroke="midnightblue" d="M545.53,-361.76C533.38,-370.57 541.71,-380 570.5,-380 589.85,-380 599.95,-375.74 600.81,-370.27"/>
<polygon fill="midnightblue" stroke="midnightblue" points="603.75,-368.37 595.47,-361.76 597.82,-372.09 603.75,-368.37"/>
</g>
<!-- Node27 -->
<g id="node27" class="node">
<title>Node27</title>
<g id="a_node27"><a xlink:href="group___models.html#gaca17d77a06e750f5cd95c1b79e1a8a30" target="_top" xlink:title=" ">
<polygon fill="white" stroke="black" points="682.5,-342.5 682.5,-361.5 820.5,-361.5 820.5,-342.5 682.5,-342.5"/>
<text text-anchor="middle" x="751.5" y="-349.5" font-family="Helvetica,sans-Serif" font-size="10.00">operations_push_models</text>
</a>
</g>
</g>
<!-- Node26&#45;&gt;Node27 -->
<g id="edge32" class="edge">
<title>Node26&#45;&gt;Node27</title>
<path fill="none" stroke="midnightblue" d="M638.15,-352C649.19,-352 660.72,-352 672.01,-352"/>
<polygon fill="midnightblue" stroke="midnightblue" points="672.3,-355.5 682.3,-352 672.3,-348.5 672.3,-355.5"/>
</g>
<!-- Node29 -->
<g id="node29" class="node">
<title>Node29</title>
<g id="a_node29"><a xlink:href="group___transforms.html#gaaa78b92f0257bb4755731622692de0cb" target="_top" xlink:title=" ">
<polygon fill="white" stroke="black" points="674,-380.5 674,-399.5 829,-399.5 829,-380.5 674,-380.5"/>
<text text-anchor="middle" x="751.5" y="-387.5" font-family="Helvetica,sans-Serif" font-size="10.00">operations_push_transforms</text>
</a>
</g>
</g>
<!-- Node26&#45;&gt;Node29 -->
<g id="edge34" class="edge">
<title>Node26&#45;&gt;Node29</title>
<path fill="none" stroke="midnightblue" d="M616.67,-361.59C640.72,-366.69 670.47,-373.01 695.82,-378.39"/>
<polygon fill="midnightblue" stroke="midnightblue" points="695.15,-381.83 705.66,-380.48 696.6,-374.98 695.15,-381.83"/>
</g>
<!-- Node28 -->
<g id="node28" class="node">
<title>Node28</title>
<g id="a_node28"><a xlink:href="group___models.html#ga5dc84f3f40c0bb6ad63dc2da3793ddd9" target="_top" xlink:title=" ">
<polygon fill="white" stroke="black" points="886,-342.5 886,-361.5 1019,-361.5 1019,-342.5 886,-342.5"/>
<text text-anchor="middle" x="952.5" y="-349.5" font-family="Helvetica,sans-Serif" font-size="10.00">operations_push_model</text>
</a>
</g>
</g>
<!-- Node27&#45;&gt;Node28 -->
<g id="edge33" class="edge">
<title>Node27&#45;&gt;Node28</title>
<path fill="none" stroke="midnightblue" d="M820.71,-352C838.38,-352 857.51,-352 875.55,-352"/>
<polygon fill="midnightblue" stroke="midnightblue" points="875.74,-355.5 885.74,-352 875.74,-348.5 875.74,-355.5"/>
</g>
<!-- Node30 -->
<g id="node30" class="node">
<title>Node30</title>
<g id="a_node30"><a xlink:href="group___transforms.html#ga3ceb952cabab7fc6918d4a676d53508d" target="_top" xlink:title=" ">
<polygon fill="white" stroke="black" points="865,-380.5 865,-399.5 1040,-399.5 1040,-380.5 865,-380.5"/>
<text text-anchor="middle" x="952.5" y="-387.5" font-family="Helvetica,sans-Serif" font-size="10.00">operations_push_transformation</text>
</a>
</g>
</g>
<!-- Node29&#45;&gt;Node30 -->
<g id="edge35" class="edge">
<title>Node29&#45;&gt;Node30</title>
<path fill="none" stroke="midnightblue" d="M829.15,-390C837.57,-390 846.23,-390 854.85,-390"/>
<polygon fill="midnightblue" stroke="midnightblue" points="854.94,-393.5 864.94,-390 854.94,-386.5 854.94,-393.5"/>
</g>
<!-- Node31 -->
<g id="node31" class="node">
<title>Node31</title>
<g id="a_node31"><a xlink:href="group___transforms.html#ga5078bb9f7411d7f9f26c535a52ae7c6b" target="_top" xlink:title=" ">
<polygon fill="white" stroke="black" points="1076,-343 1076,-373 1224,-373 1224,-343 1076,-343"/>
<text text-anchor="start" x="1084" y="-361" font-family="Helvetica,sans-Serif" font-size="10.00">operations_push_extended</text>
<text text-anchor="middle" x="1150" y="-350" font-family="Helvetica,sans-Serif" font-size="10.00">_translate_attributes</text>
</a>
</g>
</g>
<!-- Node30&#45;&gt;Node31 -->
<g id="edge36" class="edge">
<title>Node30&#45;&gt;Node31</title>
<path fill="none" stroke="midnightblue" d="M1011.63,-380.49C1028.63,-377.7 1047.55,-374.61 1065.78,-371.62"/>
<polygon fill="midnightblue" stroke="midnightblue" points="1066.52,-375.05 1075.83,-369.98 1065.39,-368.14 1066.52,-375.05"/>
</g>
<!-- Node30&#45;&gt;Node32 -->
<g id="edge38" class="edge">
<title>Node30&#45;&gt;Node32</title>
<path fill="none" stroke="midnightblue" d="M1040.02,-392.1C1093.27,-392.31 1162.82,-390.67 1224,-383 1238.37,-381.2 1253.61,-378.35 1268.03,-375.22"/>
<polygon fill="midnightblue" stroke="midnightblue" points="1268.87,-378.62 1277.85,-373.01 1267.33,-371.79 1268.87,-378.62"/>
</g>
<!-- Node31&#45;&gt;Node32 -->
<g id="edge37" class="edge">
<title>Node31&#45;&gt;Node32</title>
<path fill="none" stroke="midnightblue" d="M1224.12,-358C1232.56,-358 1241.22,-358 1249.8,-358"/>
<polygon fill="midnightblue" stroke="midnightblue" points="1249.8,-361.5 1259.8,-358 1249.8,-354.5 1249.8,-361.5"/>
</g>
</g>
</svg>
        <g id="navigator" transform="translate(0 0)" fill="#404254">
                <rect fill="#f2f5e9" fill-opacity="0.5" stroke="#606060" stroke-width=".5" x="0" y="0" width="60" height="60"/>
                <use id="zoomplus" xlink:href="#zoomPlus" x="17" y="9" onmousedown="handleZoom(evt,'in')"/>
                <use id="zoomminus" xlink:href="#zoomMin" x="42" y="9" onmousedown="handleZoom(evt,'out')"/>
                <use id="reset" xlink:href="#resetDef" x="30" y="36" onmousedown="handleReset()"/>
                <g id="arrowUp" xlink:href="#dirArrow" transform="translate(30 24)" onmousedown="handlePan(0,-1)">
                  <use xlink:href="#rim" fill="#404040">
                        <set attributeName="fill" to="#808080" begin="arrowUp.mouseover" end="arrowUp.mouseout"/>
                  </use>
                  <path fill="none" stroke="white" stroke-width="1.5" d="M0,-3.0v7 M-2.5,-0.5L0,-3.0L2.5,-0.5"/>
                </g>
                <g id="arrowRight" xlink:href="#dirArrow" transform="rotate(90) translate(36 -43)" onmousedown="handlePan(1,0)">
                  <use xlink:href="#rim" fill="#404040">
                        <set attributeName="fill" to="#808080" begin="arrowRight.mouseover" end="arrowRight.mouseout"/>
                  </use>
                  <path fill="none" stroke="white" stroke-width="1.5" d="M0,-3.0v7 M-2.5,-0.5L0,-3.0L2.5,-0.5"/>
                </g>
                <g id="arrowDown" xlink:href="#dirArrow" transform="rotate(180) translate(-30 -48)" onmousedown="handlePan(0,1)">
                  <use xlink:href="#rim" fill="#404040">
                        <set attributeName="fill" to="#808080" begin="arrowDown.mouseover" end="arrowDown.mouseout"/>
                  </use>
                  <path fill="none" stroke="white" stroke-width="1.5" d="M0,-3.0v7 M-2.5,-0.5L0,-3.0L2.5,-0.5"/>
                </g>
                <g id="arrowLeft" xlink:href="#dirArrow" transform="rotate(270) translate(-36 17)" onmousedown="handlePan(-1,0)">
                  <use xlink:href="#rim" fill="#404040">
                        <set attributeName="fill" to="#808080" begin="arrowLeft.mouseover" end="arrowLeft.mouseout"/>
                  </use>
                  <path fill="none" stroke="white" stroke-width="1.5" d="M0,-3.0v7 M-2.5,-0.5L0,-3.0L2.5,-0.5"/>
                </g>
        </g>
        <svg viewBox="0 0 15 15" width="100%" height="30px" preserveAspectRatio="xMaxYMin meet">
         <g id="arrow_out" transform="scale(0.3 0.3)">
          <a xlink:href="group__engine_ga3c04138a5bfe5d72780bb7e82a18e627_cgraph_org.svg" target="_base">
           <rect id="button" ry="5" rx="5" y="6" x="6" height="38" width="38"
                fill="#f2f5e9" fill-opacity="0.5" stroke="#606060" stroke-width="1.0"/>
           <path id="arrow"
             d="M 11.500037,31.436501 C 11.940474,20.09759 22.043105,11.32322 32.158766,21.979434 L 37.068811,17.246167 C 37.068811,17.246167 37.088388,32 37.088388,32 L 22.160133,31.978069 C 22.160133,31.978069 26.997745,27.140456 26.997745,27.140456 C 18.528582,18.264221 13.291696,25.230495 11.500037,31.436501 z"
             style="fill:#404040;"/>
          </a>
         </g>
        </svg>
</svg>
