<?xml version="1.0" encoding="UTF-8" standalone="no"?>
<!DOCTYPE svg PUBLIC "-//W3C//DTD SVG 1.1//EN"
 "http://www.w3.org/Graphics/SVG/1.1/DTD/svg11.dtd">
<!-- Generated by graphviz version 3.0.0 (0)
 -->
<!-- Title: Operations Pages: 1 -->
<svg width="185pt" height="175pt"
 viewBox="0.00 0.00 185.00 175.00" xmlns="http://www.w3.org/2000/svg" xmlns:xlink="http://www.w3.org/1999/xlink">
<g id="graph0" class="graph" transform="scale(1 1) rotate(0) translate(4 171)">
<title>Operations</title>
<polygon fill="white" stroke="transparent" points="-4,4 -4,-171 181,-171 181,4 -4,4"/>
<!-- Node4 -->
<g id="node1" class="node">
<title>Node4</title>
<g id="a_node1"><a xlink:href="group___groups.html" target="_top" xlink:title=" ">
<polygon fill="white" stroke="black" points="167,-167 116,-167 116,-148 167,-148 167,-167"/>
<text text-anchor="middle" x="141.5" y="-155" font-family="Helvetica,sans-Serif" font-size="10.00">Groups</text>
</a>
</g>
</g>
<!-- Node3 -->
<g id="node2" class="node">
<title>Node3</title>
<g id="a_node2"><a xlink:href="group___models.html" target="_top" xlink:title=" ">
<polygon fill="white" stroke="black" points="167.5,-130 115.5,-130 115.5,-111 167.5,-111 167.5,-130"/>
<text text-anchor="middle" x="141.5" y="-118" font-family="Helvetica,sans-Serif" font-size="10.00">Models</text>
</a>
</g>
</g>
<!-- Node1 -->
<g id="node3" class="node">
<title>Node1</title>
<g id="a_node3"><a xlink:title=" ">
<polygon fill="#bfbfbf" stroke="black" points="70,-93 0,-93 0,-74 70,-74 70,-93"/>
<text text-anchor="middle" x="35" y="-81" font-family="Helvetica,sans-Serif" font-size="10.00">Operations</text>
</a>
</g>
</g>
<!-- Node1&#45;&gt;Node4 -->
<g id="edge3" class="edge">
<title>Node1&#45;&gt;Node4</title>
<path fill="none" stroke="black" d="M54.62,-100.05C68.31,-111.79 87.65,-127.53 106,-139.5 110.53,-142.45 115.59,-145.32 120.42,-147.86"/>
<polygon fill="black" stroke="black" points="56.73,-97.24 46.89,-93.32 52.14,-102.52 56.73,-97.24"/>
</g>
<!-- Node1&#45;&gt;Node3 -->
<g id="edge2" class="edge">
<title>Node1&#45;&gt;Node3</title>
<path fill="none" stroke="black" d="M72.42,-96.4C86.64,-101.43 102.59,-107.08 115.47,-111.64"/>
<polygon fill="black" stroke="black" points="73.51,-93.07 62.91,-93.03 71.17,-99.67 73.51,-93.07"/>
</g>
<!-- Node6 -->
<g id="node4" class="node">
<title>Node6</title>
<g id="a_node4"><a xlink:href="group___printing.html" target="_top" xlink:title=" ">
<polygon fill="white" stroke="black" points="168.5,-93 114.5,-93 114.5,-74 168.5,-74 168.5,-93"/>
<text text-anchor="middle" x="141.5" y="-81" font-family="Helvetica,sans-Serif" font-size="10.00">Printing</text>
</a>
</g>
</g>
<!-- Node1&#45;&gt;Node6 -->
<g id="edge5" class="edge">
<title>Node1&#45;&gt;Node6</title>
<path fill="none" stroke="black" d="M80.27,-83.5C91.93,-83.5 104.14,-83.5 114.5,-83.5"/>
<polygon fill="black" stroke="black" points="80.22,-80 70.22,-83.5 80.22,-87 80.22,-80"/>
</g>
<!-- Node2 -->
<g id="node5" class="node">
<title>Node2</title>
<g id="a_node5"><a xlink:href="group___transforms.html" target="_top" xlink:title=" ">
<polygon fill="white" stroke="black" points="177,-56 106,-56 106,-37 177,-37 177,-56"/>
<text text-anchor="middle" x="141.5" y="-44" font-family="Helvetica,sans-Serif" font-size="10.00">Transforms</text>
</a>
</g>
</g>
<!-- Node1&#45;&gt;Node2 -->
<g id="edge1" class="edge">
<title>Node1&#45;&gt;Node2</title>
<path fill="none" stroke="black" d="M72.37,-70.62C85.82,-65.86 100.82,-60.55 113.32,-56.12"/>
<polygon fill="black" stroke="black" points="71.17,-67.33 62.91,-73.97 73.51,-73.93 71.17,-67.33"/>
</g>
<!-- Node5 -->
<g id="node6" class="node">
<title>Node5</title>
<g id="a_node6"><a xlink:href="group__xml.html" target="_top" xlink:title=" ">
<polygon fill="white" stroke="black" points="159.5,-19 123.5,-19 123.5,0 159.5,0 159.5,-19"/>
<text text-anchor="middle" x="141.5" y="-7" font-family="Helvetica,sans-Serif" font-size="10.00">Xml</text>
</a>
</g>
</g>
<!-- Node1&#45;&gt;Node5 -->
<g id="edge4" class="edge">
<title>Node1&#45;&gt;Node5</title>
<path fill="none" stroke="black" d="M54.75,-67.4C68.5,-55.94 87.86,-40.51 106,-28.5 111.47,-24.88 117.69,-21.3 123.33,-18.24"/>
<polygon fill="black" stroke="black" points="52.36,-64.84 46.97,-73.96 56.88,-70.19 52.36,-64.84"/>
</g>
</g>
</svg>
