<?xml version="1.0" encoding="UTF-8" standalone="no"?>
<!DOCTYPE svg PUBLIC "-//W3C//DTD SVG 1.1//EN"
 "http://www.w3.org/Graphics/SVG/1.1/DTD/svg11.dtd">
<!-- Generated by graphviz version 3.0.0 (0)
 -->
<!-- Title: spherical2Cartesian Pages: 1 -->
<svg width="523pt" height="142pt"
 viewBox="0.00 0.00 523.00 142.00" xmlns="http://www.w3.org/2000/svg" xmlns:xlink="http://www.w3.org/1999/xlink">
<g id="graph0" class="graph" transform="scale(1 1) rotate(0) translate(4 138)">
<title>spherical2Cartesian</title>
<polygon fill="white" stroke="transparent" points="-4,4 -4,-138 519,-138 519,4 -4,4"/>
<!-- Node1 -->
<g id="node1" class="node">
<title>Node1</title>
<g id="a_node1"><a xlink:title=" ">
<polygon fill="#bfbfbf" stroke="black" points="402,-57.5 402,-76.5 515,-76.5 515,-57.5 402,-57.5"/>
<text text-anchor="middle" x="458.5" y="-64.5" font-family="Helvetica,sans-Serif" font-size="10.00">spherical2Cartesian</text>
</a>
</g>
</g>
<!-- Node2 -->
<g id="node2" class="node">
<title>Node2</title>
<g id="a_node2"><a xlink:href="group__engine.html#gab9813926390dc5773baf0b20dc2ea16e" target="_top" xlink:title=" ">
<polygon fill="white" stroke="black" points="304,-57.5 304,-76.5 366,-76.5 366,-57.5 304,-57.5"/>
<text text-anchor="middle" x="335" y="-64.5" font-family="Helvetica,sans-Serif" font-size="10.00">redisplay</text>
</a>
</g>
</g>
<!-- Node1&#45;&gt;Node2 -->
<g id="edge1" class="edge">
<title>Node1&#45;&gt;Node2</title>
<path fill="none" stroke="midnightblue" d="M391.68,-67C382.8,-67 374.06,-67 366.23,-67"/>
<polygon fill="midnightblue" stroke="midnightblue" points="391.73,-70.5 401.73,-67 391.73,-63.5 391.73,-70.5"/>
</g>
<!-- Node3 -->
<g id="node3" class="node">
<title>Node3</title>
<g id="a_node3"><a xlink:href="group__input.html#gac7632fff72011e8c11ae504a4596a7f7" target="_top" xlink:title=" ">
<polygon fill="white" stroke="black" points="184,-114.5 184,-133.5 268,-133.5 268,-114.5 184,-114.5"/>
<text text-anchor="middle" x="226" y="-121.5" font-family="Helvetica,sans-Serif" font-size="10.00">keyboardFunc</text>
</a>
</g>
</g>
<!-- Node2&#45;&gt;Node3 -->
<g id="edge2" class="edge">
<title>Node2&#45;&gt;Node3</title>
<path fill="none" stroke="midnightblue" d="M309.44,-81.83C297.14,-89.08 281.94,-97.78 268,-105 261.73,-108.25 254.8,-111.56 248.45,-114.49"/>
<polygon fill="midnightblue" stroke="midnightblue" points="311.41,-84.73 318.22,-76.62 307.83,-78.72 311.41,-84.73"/>
</g>
<!-- Node6 -->
<g id="node6" class="node">
<title>Node6</title>
<g id="a_node6"><a xlink:href="group__input.html#ga2bebb17428cb218231ad556de2a20ed6" target="_top" xlink:title=" ">
<polygon fill="white" stroke="black" points="189,-76.5 189,-95.5 263,-95.5 263,-76.5 189,-76.5"/>
<text text-anchor="middle" x="226" y="-83.5" font-family="Helvetica,sans-Serif" font-size="10.00">motionFunc</text>
</a>
</g>
</g>
<!-- Node2&#45;&gt;Node6 -->
<g id="edge5" class="edge">
<title>Node2&#45;&gt;Node6</title>
<path fill="none" stroke="midnightblue" d="M293.79,-74.14C283.79,-75.92 273.12,-77.81 263.32,-79.55"/>
<polygon fill="midnightblue" stroke="midnightblue" points="294.68,-77.54 303.91,-72.34 293.45,-70.65 294.68,-77.54"/>
</g>
<!-- Node7 -->
<g id="node7" class="node">
<title>Node7</title>
<g id="a_node7"><a xlink:href="group__input.html#gad48076b61c0ddb6bd4fadf644bf59ff1" target="_top" xlink:title=" ">
<polygon fill="white" stroke="black" points="190,-38.5 190,-57.5 262,-57.5 262,-38.5 190,-38.5"/>
<text text-anchor="middle" x="226" y="-45.5" font-family="Helvetica,sans-Serif" font-size="10.00">mouseFunc</text>
</a>
</g>
</g>
<!-- Node2&#45;&gt;Node7 -->
<g id="edge7" class="edge">
<title>Node2&#45;&gt;Node7</title>
<path fill="none" stroke="midnightblue" d="M293.81,-59.86C283.4,-58.02 272.28,-56.04 262.16,-54.24"/>
<polygon fill="midnightblue" stroke="midnightblue" points="293.45,-63.35 303.91,-61.66 294.68,-56.46 293.45,-63.35"/>
</g>
<!-- Node8 -->
<g id="node8" class="node">
<title>Node8</title>
<g id="a_node8"><a xlink:href="group__engine.html#ga91c42686f3245f22fb6b17ba5372d92c" target="_top" xlink:title=" ">
<polygon fill="white" stroke="black" points="187.5,-0.5 187.5,-19.5 264.5,-19.5 264.5,-0.5 187.5,-0.5"/>
<text text-anchor="middle" x="226" y="-7.5" font-family="Helvetica,sans-Serif" font-size="10.00">renderScene</text>
</a>
</g>
</g>
<!-- Node2&#45;&gt;Node8 -->
<g id="edge9" class="edge">
<title>Node2&#45;&gt;Node8</title>
<path fill="none" stroke="midnightblue" d="M309.44,-52.17C297.14,-44.92 281.94,-36.22 268,-29 261.73,-25.75 254.8,-22.44 248.45,-19.51"/>
<polygon fill="midnightblue" stroke="midnightblue" points="307.83,-55.28 318.22,-57.38 311.41,-49.27 307.83,-55.28"/>
</g>
<!-- Node4 -->
<g id="node4" class="node">
<title>Node4</title>
<g id="a_node4"><a xlink:href="group__engine.html#ga98eaf946471acbd931de5d52ca83b3d1" target="_top" xlink:title=" ">
<polygon fill="white" stroke="black" points="77,-57.5 77,-76.5 148,-76.5 148,-57.5 77,-57.5"/>
<text text-anchor="middle" x="112.5" y="-64.5" font-family="Helvetica,sans-Serif" font-size="10.00">engine_run</text>
</a>
</g>
</g>
<!-- Node3&#45;&gt;Node4 -->
<g id="edge3" class="edge">
<title>Node3&#45;&gt;Node4</title>
<path fill="none" stroke="midnightblue" d="M194.41,-110.07C190.89,-108.39 187.35,-106.68 184,-105 165.47,-95.73 144.63,-84.37 130.44,-76.51"/>
<polygon fill="midnightblue" stroke="midnightblue" points="193.06,-113.31 203.6,-114.38 196.03,-106.97 193.06,-113.31"/>
</g>
<!-- Node5 -->
<g id="node5" class="node">
<title>Node5</title>
<g id="a_node5"><a xlink:href="group__engine.html#ga3c04138a5bfe5d72780bb7e82a18e627" target="_top" xlink:title=" ">
<polygon fill="white" stroke="black" points="0,-57.5 0,-76.5 41,-76.5 41,-57.5 0,-57.5"/>
<text text-anchor="middle" x="20.5" y="-64.5" font-family="Helvetica,sans-Serif" font-size="10.00">main</text>
</a>
</g>
</g>
<!-- Node4&#45;&gt;Node5 -->
<g id="edge4" class="edge">
<title>Node4&#45;&gt;Node5</title>
<path fill="none" stroke="midnightblue" d="M66.88,-67C57.87,-67 48.84,-67 41.24,-67"/>
<polygon fill="midnightblue" stroke="midnightblue" points="66.96,-70.5 76.96,-67 66.96,-63.5 66.96,-70.5"/>
</g>
<!-- Node6&#45;&gt;Node4 -->
<g id="edge6" class="edge">
<title>Node6&#45;&gt;Node4</title>
<path fill="none" stroke="midnightblue" d="M178.72,-78.11C168.44,-76.36 157.71,-74.53 148,-72.88"/>
<polygon fill="midnightblue" stroke="midnightblue" points="178.35,-81.6 188.8,-79.83 179.53,-74.7 178.35,-81.6"/>
</g>
<!-- Node7&#45;&gt;Node4 -->
<g id="edge8" class="edge">
<title>Node7&#45;&gt;Node4</title>
<path fill="none" stroke="midnightblue" d="M179.81,-55.7C169.26,-57.5 158.18,-59.39 148.17,-61.09"/>
<polygon fill="midnightblue" stroke="midnightblue" points="180.45,-59.14 189.72,-54.01 179.27,-52.24 180.45,-59.14"/>
</g>
<!-- Node8&#45;&gt;Node4 -->
<g id="edge10" class="edge">
<title>Node8&#45;&gt;Node4</title>
<path fill="none" stroke="midnightblue" d="M194.41,-23.93C190.89,-25.61 187.35,-27.32 184,-29 165.47,-38.27 144.63,-49.63 130.44,-57.49"/>
<polygon fill="midnightblue" stroke="midnightblue" points="196.03,-27.03 203.6,-19.62 193.06,-20.69 196.03,-27.03"/>
</g>
</g>
</svg>
