<?xml version="1.0" encoding="UTF-8" standalone="no"?>
<!DOCTYPE svg PUBLIC "-//W3C//DTD SVG 1.1//EN"
 "http://www.w3.org/Graphics/SVG/1.1/DTD/svg11.dtd">
<!-- Generated by graphviz version 3.0.0 (0)
 -->
<!-- Title: model_bezier_write Pages: 1 -->
<svg width="637pt" height="104pt"
 viewBox="0.00 0.00 637.00 104.00" xmlns="http://www.w3.org/2000/svg" xmlns:xlink="http://www.w3.org/1999/xlink">
<g id="graph0" class="graph" transform="scale(1 1) rotate(0) translate(4 100)">
<title>model_bezier_write</title>
<polygon fill="white" stroke="transparent" points="-4,4 -4,-100 633,-100 633,4 -4,4"/>
<!-- Node1 -->
<g id="node1" class="node">
<title>Node1</title>
<g id="a_node1"><a xlink:title=" ">
<polygon fill="#bfbfbf" stroke="black" points="0,-38.5 0,-57.5 113,-57.5 113,-38.5 0,-38.5"/>
<text text-anchor="middle" x="56.5" y="-45.5" font-family="Helvetica,sans-Serif" font-size="10.00">model_bezier_write</text>
</a>
</g>
</g>
<!-- Node2 -->
<g id="node2" class="node">
<title>Node2</title>
<g id="a_node2"><a xlink:href="curves_8cpp.html#ad80a7305d57dbb5359a411d6e7a9e307" target="_top" xlink:title=" ">
<polygon fill="white" stroke="black" points="149,-76.5 149,-95.5 258,-95.5 258,-76.5 149,-76.5"/>
<text text-anchor="middle" x="203.5" y="-83.5" font-family="Helvetica,sans-Serif" font-size="10.00">get_bezier_surface</text>
</a>
</g>
</g>
<!-- Node1&#45;&gt;Node2 -->
<g id="edge1" class="edge">
<title>Node1&#45;&gt;Node2</title>
<path fill="none" stroke="midnightblue" d="M94.09,-57.59C112.97,-62.54 136.19,-68.62 156.29,-73.89"/>
<polygon fill="midnightblue" stroke="midnightblue" points="155.61,-77.33 166.17,-76.48 157.39,-70.56 155.61,-77.33"/>
</g>
<!-- Node6 -->
<g id="node6" class="node">
<title>Node6</title>
<g id="a_node6"><a xlink:href="group__points.html#gab0ec2dac46ec7ee44911b8bcf1e9dad0" target="_top" xlink:title=" ">
<polygon fill="white" stroke="black" points="165,-38.5 165,-57.5 242,-57.5 242,-38.5 165,-38.5"/>
<text text-anchor="middle" x="203.5" y="-45.5" font-family="Helvetica,sans-Serif" font-size="10.00">points_write</text>
</a>
</g>
</g>
<!-- Node1&#45;&gt;Node6 -->
<g id="edge5" class="edge">
<title>Node1&#45;&gt;Node6</title>
<path fill="none" stroke="midnightblue" d="M113.15,-48C126.76,-48 141.21,-48 154.43,-48"/>
<polygon fill="midnightblue" stroke="midnightblue" points="154.73,-51.5 164.73,-48 154.73,-44.5 154.73,-51.5"/>
</g>
<!-- Node7 -->
<g id="node7" class="node">
<title>Node7</title>
<g id="a_node7"><a xlink:href="group__sphere.html#gaea877a3a75fd71b0cf07e993d4b6fe16" target="_top" xlink:title=" ">
<polygon fill="white" stroke="black" points="166.5,-0.5 166.5,-19.5 240.5,-19.5 240.5,-0.5 166.5,-0.5"/>
<text text-anchor="middle" x="203.5" y="-7.5" font-family="Helvetica,sans-Serif" font-size="10.00">read_Bezier</text>
</a>
</g>
</g>
<!-- Node1&#45;&gt;Node7 -->
<g id="edge6" class="edge">
<title>Node1&#45;&gt;Node7</title>
<path fill="none" stroke="midnightblue" d="M94.09,-38.41C113.04,-33.45 136.36,-27.33 156.52,-22.05"/>
<polygon fill="midnightblue" stroke="midnightblue" points="157.64,-25.38 166.42,-19.45 155.86,-18.6 157.64,-25.38"/>
</g>
<!-- Node3 -->
<g id="node3" class="node">
<title>Node3</title>
<g id="a_node3"><a xlink:href="curves_8cpp.html#acd318fe2ec3011922c3f4d9d7590b168" target="_top" xlink:title=" ">
<polygon fill="white" stroke="black" points="294,-76.5 294,-95.5 394,-95.5 394,-76.5 294,-76.5"/>
<text text-anchor="middle" x="344" y="-83.5" font-family="Helvetica,sans-Serif" font-size="10.00">get_bezier_patch</text>
</a>
</g>
</g>
<!-- Node2&#45;&gt;Node3 -->
<g id="edge2" class="edge">
<title>Node2&#45;&gt;Node3</title>
<path fill="none" stroke="midnightblue" d="M258.05,-86C266.38,-86 275.04,-86 283.49,-86"/>
<polygon fill="midnightblue" stroke="midnightblue" points="283.67,-89.5 293.67,-86 283.67,-82.5 283.67,-89.5"/>
</g>
<!-- Node4 -->
<g id="node4" class="node">
<title>Node4</title>
<g id="a_node4"><a xlink:href="curves_8cpp.html#ae1f2aea35fc8ca6d56097bc3b7824c07" target="_top" xlink:title=" ">
<polygon fill="white" stroke="black" points="430,-76.5 430,-95.5 528,-95.5 528,-76.5 430,-76.5"/>
<text text-anchor="middle" x="479" y="-83.5" font-family="Helvetica,sans-Serif" font-size="10.00">get_bezier_point</text>
</a>
</g>
</g>
<!-- Node3&#45;&gt;Node4 -->
<g id="edge3" class="edge">
<title>Node3&#45;&gt;Node4</title>
<path fill="none" stroke="midnightblue" d="M394.15,-86C402.46,-86 411.16,-86 419.68,-86"/>
<polygon fill="midnightblue" stroke="midnightblue" points="419.94,-89.5 429.94,-86 419.94,-82.5 419.94,-89.5"/>
</g>
<!-- Node5 -->
<g id="node5" class="node">
<title>Node5</title>
<g id="a_node5"><a xlink:href="curves_8cpp.html#af68f8da25ecf53c589aa5d47f1f8e164" target="_top" xlink:title=" ">
<polygon fill="white" stroke="black" points="564,-76.5 564,-95.5 629,-95.5 629,-76.5 564,-76.5"/>
<text text-anchor="middle" x="596.5" y="-83.5" font-family="Helvetica,sans-Serif" font-size="10.00">get_curve</text>
</a>
</g>
</g>
<!-- Node4&#45;&gt;Node5 -->
<g id="edge4" class="edge">
<title>Node4&#45;&gt;Node5</title>
<path fill="none" stroke="midnightblue" d="M528.31,-86C536.75,-86 545.45,-86 553.69,-86"/>
<polygon fill="midnightblue" stroke="midnightblue" points="553.82,-89.5 563.82,-86 553.82,-82.5 553.82,-89.5"/>
</g>
</g>
</svg>
