<?xml version="1.0" encoding="UTF-8" standalone="no"?>
<!DOCTYPE svg PUBLIC "-//W3C//DTD SVG 1.1//EN"
 "http://www.w3.org/Graphics/SVG/1.1/DTD/svg11.dtd">
<!-- Generated by graphviz version 3.0.0 (0)
 -->
<!-- Title: model_plane_write Pages: 1 -->
<svg width="404pt" height="104pt"
 viewBox="0.00 0.00 404.00 104.00" xmlns="http://www.w3.org/2000/svg" xmlns:xlink="http://www.w3.org/1999/xlink">
<g id="graph0" class="graph" transform="scale(1 1) rotate(0) translate(4 100)">
<title>model_plane_write</title>
<polygon fill="white" stroke="transparent" points="-4,4 -4,-100 400,-100 400,4 -4,4"/>
<!-- Node1 -->
<g id="node1" class="node">
<title>Node1</title>
<g id="a_node1"><a xlink:title=" ">
<polygon fill="#bfbfbf" stroke="black" points="0,-38.5 0,-57.5 110,-57.5 110,-38.5 0,-38.5"/>
<text text-anchor="middle" x="55" y="-45.5" font-family="Helvetica,sans-Serif" font-size="10.00">model_plane_write</text>
</a>
</g>
</g>
<!-- Node2 -->
<g id="node2" class="node">
<title>Node2</title>
<g id="a_node2"><a xlink:href="group__plane.html#ga2dc797b7bd5ac0ed0f270d481d977a55" target="_top" xlink:title=" ">
<polygon fill="white" stroke="black" points="146,-76.5 146,-95.5 277,-95.5 277,-76.5 146,-76.5"/>
<text text-anchor="middle" x="211.5" y="-83.5" font-family="Helvetica,sans-Serif" font-size="10.00">model_plane_nVertices</text>
</a>
</g>
</g>
<!-- Node1&#45;&gt;Node2 -->
<g id="edge1" class="edge">
<title>Node1&#45;&gt;Node2</title>
<path fill="none" stroke="midnightblue" d="M94.99,-57.59C115.28,-62.58 140.29,-68.73 161.85,-74.03"/>
<polygon fill="midnightblue" stroke="midnightblue" points="161.25,-77.49 171.79,-76.48 162.92,-70.69 161.25,-77.49"/>
</g>
<!-- Node3 -->
<g id="node3" class="node">
<title>Node3</title>
<g id="a_node3"><a xlink:href="group__plane.html#ga2860798c8a53cfdf27dcecdfb1616940" target="_top" xlink:title=" ">
<polygon fill="white" stroke="black" points="149.5,-38.5 149.5,-57.5 273.5,-57.5 273.5,-38.5 149.5,-38.5"/>
<text text-anchor="middle" x="211.5" y="-45.5" font-family="Helvetica,sans-Serif" font-size="10.00">model_plane_vertices</text>
</a>
</g>
</g>
<!-- Node1&#45;&gt;Node3 -->
<g id="edge2" class="edge">
<title>Node1&#45;&gt;Node3</title>
<path fill="none" stroke="midnightblue" d="M110.04,-48C119.47,-48 129.4,-48 139.21,-48"/>
<polygon fill="midnightblue" stroke="midnightblue" points="139.36,-51.5 149.36,-48 139.36,-44.5 139.36,-51.5"/>
</g>
<!-- Node5 -->
<g id="node5" class="node">
<title>Node5</title>
<g id="a_node5"><a xlink:href="group__points.html#gab0ec2dac46ec7ee44911b8bcf1e9dad0" target="_top" xlink:title=" ">
<polygon fill="white" stroke="black" points="173,-0.5 173,-19.5 250,-19.5 250,-0.5 173,-0.5"/>
<text text-anchor="middle" x="211.5" y="-7.5" font-family="Helvetica,sans-Serif" font-size="10.00">points_write</text>
</a>
</g>
</g>
<!-- Node1&#45;&gt;Node5 -->
<g id="edge4" class="edge">
<title>Node1&#45;&gt;Node5</title>
<path fill="none" stroke="midnightblue" d="M94.99,-38.41C115.68,-33.32 141.29,-27.02 163.12,-21.65"/>
<polygon fill="midnightblue" stroke="midnightblue" points="163.98,-25.05 172.86,-19.26 162.31,-18.25 163.98,-25.05"/>
</g>
<!-- Node4 -->
<g id="node4" class="node">
<title>Node4</title>
<g id="a_node4"><a xlink:href="group__points.html#ga127fb8e56ec1e38505cdd9ea6efa2cf6" target="_top" xlink:title=" ">
<polygon fill="white" stroke="black" points="313,-38.5 313,-57.5 396,-57.5 396,-38.5 313,-38.5"/>
<text text-anchor="middle" x="354.5" y="-45.5" font-family="Helvetica,sans-Serif" font-size="10.00">points_vertex</text>
</a>
</g>
</g>
<!-- Node3&#45;&gt;Node4 -->
<g id="edge3" class="edge">
<title>Node3&#45;&gt;Node4</title>
<path fill="none" stroke="midnightblue" d="M273.52,-48C283.25,-48 293.23,-48 302.69,-48"/>
<polygon fill="midnightblue" stroke="midnightblue" points="302.72,-51.5 312.72,-48 302.72,-44.5 302.72,-51.5"/>
</g>
</g>
</svg>
