<?xml version="1.0" encoding="UTF-8" standalone="no"?>
<!DOCTYPE svg PUBLIC "-//W3C//DTD SVG 1.1//EN"
 "http://www.w3.org/Graphics/SVG/1.1/DTD/svg11.dtd">
<!-- Generated by graphviz version 3.0.0 (0)
 -->
<!-- Title: model_cube_write Pages: 1 -->
<svg width="396pt" height="104pt"
 viewBox="0.00 0.00 396.00 104.00" xmlns="http://www.w3.org/2000/svg" xmlns:xlink="http://www.w3.org/1999/xlink">
<g id="graph0" class="graph" transform="scale(1 1) rotate(0) translate(4 100)">
<title>model_cube_write</title>
<polygon fill="white" stroke="transparent" points="-4,4 -4,-100 392,-100 392,4 -4,4"/>
<!-- Node1 -->
<g id="node1" class="node">
<title>Node1</title>
<g id="a_node1"><a xlink:title=" ">
<polygon fill="#bfbfbf" stroke="black" points="0,-38.5 0,-57.5 106,-57.5 106,-38.5 0,-38.5"/>
<text text-anchor="middle" x="53" y="-45.5" font-family="Helvetica,sans-Serif" font-size="10.00">model_cube_write</text>
</a>
</g>
</g>
<!-- Node2 -->
<g id="node2" class="node">
<title>Node2</title>
<g id="a_node2"><a xlink:href="group__cube.html#ga029b7906dd04b97c96cca5dd9a9db601" target="_top" xlink:title=" ">
<polygon fill="white" stroke="black" points="142,-76.5 142,-95.5 269,-95.5 269,-76.5 142,-76.5"/>
<text text-anchor="middle" x="205.5" y="-83.5" font-family="Helvetica,sans-Serif" font-size="10.00">model_cube_nVertices</text>
</a>
</g>
</g>
<!-- Node1&#45;&gt;Node2 -->
<g id="edge1" class="edge">
<title>Node1&#45;&gt;Node2</title>
<path fill="none" stroke="midnightblue" d="M91.98,-57.59C111.66,-62.56 135.89,-68.68 156.82,-73.96"/>
<polygon fill="midnightblue" stroke="midnightblue" points="156.24,-77.43 166.8,-76.48 157.96,-70.64 156.24,-77.43"/>
</g>
<!-- Node3 -->
<g id="node3" class="node">
<title>Node3</title>
<g id="a_node3"><a xlink:href="group__cube.html#ga035b5ad854abdbc786a8b78882d390c1" target="_top" xlink:title=" ">
<polygon fill="white" stroke="black" points="145.5,-38.5 145.5,-57.5 265.5,-57.5 265.5,-38.5 145.5,-38.5"/>
<text text-anchor="middle" x="205.5" y="-45.5" font-family="Helvetica,sans-Serif" font-size="10.00">model_cube_vertices</text>
</a>
</g>
</g>
<!-- Node1&#45;&gt;Node3 -->
<g id="edge2" class="edge">
<title>Node1&#45;&gt;Node3</title>
<path fill="none" stroke="midnightblue" d="M106.22,-48C115.6,-48 125.52,-48 135.3,-48"/>
<polygon fill="midnightblue" stroke="midnightblue" points="135.42,-51.5 145.42,-48 135.42,-44.5 135.42,-51.5"/>
</g>
<!-- Node5 -->
<g id="node5" class="node">
<title>Node5</title>
<g id="a_node5"><a xlink:href="group__points.html#gab0ec2dac46ec7ee44911b8bcf1e9dad0" target="_top" xlink:title=" ">
<polygon fill="white" stroke="black" points="167,-0.5 167,-19.5 244,-19.5 244,-0.5 167,-0.5"/>
<text text-anchor="middle" x="205.5" y="-7.5" font-family="Helvetica,sans-Serif" font-size="10.00">points_write</text>
</a>
</g>
</g>
<!-- Node1&#45;&gt;Node5 -->
<g id="edge4" class="edge">
<title>Node1&#45;&gt;Node5</title>
<path fill="none" stroke="midnightblue" d="M91.98,-38.41C111.66,-33.44 135.89,-27.32 156.82,-22.04"/>
<polygon fill="midnightblue" stroke="midnightblue" points="157.96,-25.36 166.8,-19.52 156.24,-18.57 157.96,-25.36"/>
</g>
<!-- Node4 -->
<g id="node4" class="node">
<title>Node4</title>
<g id="a_node4"><a xlink:href="group__points.html#ga127fb8e56ec1e38505cdd9ea6efa2cf6" target="_top" xlink:title=" ">
<polygon fill="white" stroke="black" points="305,-38.5 305,-57.5 388,-57.5 388,-38.5 305,-38.5"/>
<text text-anchor="middle" x="346.5" y="-45.5" font-family="Helvetica,sans-Serif" font-size="10.00">points_vertex</text>
</a>
</g>
</g>
<!-- Node3&#45;&gt;Node4 -->
<g id="edge3" class="edge">
<title>Node3&#45;&gt;Node4</title>
<path fill="none" stroke="midnightblue" d="M265.85,-48C275.39,-48 285.2,-48 294.52,-48"/>
<polygon fill="midnightblue" stroke="midnightblue" points="294.81,-51.5 304.81,-48 294.81,-44.5 294.81,-51.5"/>
</g>
</g>
</svg>
