<?xml version="1.0" encoding="UTF-8" standalone="no"?>
<!DOCTYPE svg PUBLIC "-//W3C//DTD SVG 1.1//EN"
 "http://www.w3.org/Graphics/SVG/1.1/DTD/svg11.dtd">
<!-- Generated by graphviz version 3.0.0 (0)
 -->
<!-- Title: xml_load_and_set_env Pages: 1 -->
<!--zoomable 382 -->
<svg id="main" version="1.1" xmlns="http://www.w3.org/2000/svg" xmlns:xlink="http://www.w3.org/1999/xlink" xml:space="preserve" onload="init(evt)">
<style type="text/css"><![CDATA[
.edge:hover path { stroke: red; }
.edge:hover polygon { stroke: red; fill: red; }
]]></style>
<script type="text/javascript"><![CDATA[
var edges = document.getElementsByTagName('g');
if (edges && edges.length) {
  for (var i=0;i<edges.length;i++) {
    if (edges[i].id.substr(0,4)=='edge') {
      edges[i].setAttribute('class','edge');
    }
  }
}
]]></script>
        <defs>
                <circle id="rim" cx="0" cy="0" r="7"/>
                <circle id="rim2" cx="0" cy="0" r="3.5"/>
                <g id="zoomPlus">
                        <use xlink:href="#rim" fill="#404040">
                                <set attributeName="fill" to="#808080" begin="zoomplus.mouseover" end="zoomplus.mouseout"/>
                        </use>
                        <path d="M-4,0h8M0,-4v8" fill="none" stroke="white" stroke-width="1.5" pointer-events="none"/>
                </g>
                <g id="zoomMin">
                        <use xlink:href="#rim" fill="#404040">
                                <set attributeName="fill" to="#808080" begin="zoomminus.mouseover" end="zoomminus.mouseout"/>
                        </use>
                        <path d="M-4,0h8" fill="none" stroke="white" stroke-width="1.5" pointer-events="none"/>
                </g>
                <g id="dirArrow">
                        <path fill="none" stroke="white" stroke-width="1.5" d="M0,-3.0v7 M-2.5,-0.5L0,-3.0L2.5,-0.5"/>
                </g>
               <g id="resetDef">
                       <use xlink:href="#rim2" fill="#404040">
                               <set attributeName="fill" to="#808080" begin="reset.mouseover" end="reset.mouseout"/>
                       </use>
               </g>
        </defs>

<script type="text/javascript">
var viewWidth = 1234;
var viewHeight = 382;
var sectionId = 'dynsection-12';
</script>
<script xlink:href="svgpan.js"/>
<svg id="graph" class="graph">
<g id="viewport">
<title>xml_load_and_set_env</title>
<polygon fill="white" stroke="transparent" points="-4,4 -4,-377.5 1230,-377.5 1230,4 -4,4"/>
<!-- Node1 -->
<g id="node1" class="node">
<title>Node1</title>
<g id="a_node1"><a xlink:title=" ">
<polygon fill="#bfbfbf" stroke="black" points="0,-266.5 0,-285.5 128,-285.5 128,-266.5 0,-266.5"/>
<text text-anchor="middle" x="64" y="-273.5" font-family="Helvetica,sans-Serif" font-size="10.00">xml_load_and_set_env</text>
</a>
</g>
</g>
<!-- Node2 -->
<g id="node2" class="node">
<title>Node2</title>
<g id="a_node2"><a xlink:href="group__engine.html#ga8679d9b303f36964bf51dba0993caeaa" target="_top" xlink:title=" ">
<polygon fill="white" stroke="black" points="170.5,-304.5 170.5,-323.5 276.5,-323.5 276.5,-304.5 170.5,-304.5"/>
<text text-anchor="middle" x="223.5" y="-311.5" font-family="Helvetica,sans-Serif" font-size="10.00">env_load_defaults</text>
</a>
</g>
</g>
<!-- Node1&#45;&gt;Node2 -->
<g id="edge1" class="edge">
<title>Node1&#45;&gt;Node2</title>
<path fill="none" stroke="midnightblue" d="M104.74,-285.59C125.53,-290.6 151.16,-296.79 173.2,-302.11"/>
<polygon fill="midnightblue" stroke="midnightblue" points="172.5,-305.54 183.04,-304.48 174.14,-298.73 172.5,-305.54"/>
</g>
<!-- Node3 -->
<g id="node3" class="node">
<title>Node3</title>
<g id="a_node3"><a xlink:href="group__xml.html#gac937a83a82258806ef77b02f97ef0834" target="_top" xlink:title=" ">
<polygon fill="white" stroke="black" points="164,-266.5 164,-285.5 283,-285.5 283,-266.5 164,-266.5"/>
<text text-anchor="middle" x="223.5" y="-273.5" font-family="Helvetica,sans-Serif" font-size="10.00">operations_load_xml</text>
</a>
</g>
</g>
<!-- Node1&#45;&gt;Node3 -->
<g id="edge2" class="edge">
<title>Node1&#45;&gt;Node3</title>
<path fill="none" stroke="midnightblue" d="M128.15,-276C136.55,-276 145.19,-276 153.68,-276"/>
<polygon fill="midnightblue" stroke="midnightblue" points="153.93,-279.5 163.93,-276 153.93,-272.5 153.93,-279.5"/>
</g>
<!-- Node11 -->
<g id="node11" class="node">
<title>Node11</title>
<g id="a_node11"><a xlink:href="group___operations.html#ga887f20c10a27832ea24178203a47fcc2" target="_top" xlink:title=" ">
<polygon fill="white" stroke="black" points="171,-133.5 171,-152.5 276,-152.5 276,-133.5 171,-133.5"/>
<text text-anchor="middle" x="223.5" y="-140.5" font-family="Helvetica,sans-Serif" font-size="10.00">operations_render</text>
</a>
</g>
</g>
<!-- Node1&#45;&gt;Node11 -->
<g id="edge13" class="edge">
<title>Node1&#45;&gt;Node11</title>
<path fill="none" stroke="midnightblue" d="M76.33,-266.43C102.99,-243.92 169.94,-187.38 203.17,-159.32"/>
<polygon fill="midnightblue" stroke="midnightblue" points="205.47,-161.96 210.85,-152.84 200.95,-156.61 205.47,-161.96"/>
</g>
<!-- Node4 -->
<g id="node4" class="node">
<title>Node4</title>
<g id="a_node4"><a xlink:href="group___groups.html#ga72c2d5ef943a89f829c08f6707e7669d" target="_top" xlink:title=" ">
<polygon fill="white" stroke="black" points="319,-304.5 319,-323.5 454,-323.5 454,-304.5 319,-304.5"/>
<text text-anchor="middle" x="386.5" y="-311.5" font-family="Helvetica,sans-Serif" font-size="10.00">operations_push_groups</text>
</a>
</g>
</g>
<!-- Node3&#45;&gt;Node4 -->
<g id="edge3" class="edge">
<title>Node3&#45;&gt;Node4</title>
<path fill="none" stroke="midnightblue" d="M265.13,-285.59C286.47,-290.63 312.81,-296.84 335.41,-302.18"/>
<polygon fill="midnightblue" stroke="midnightblue" points="334.63,-305.59 345.17,-304.48 336.24,-298.78 334.63,-305.59"/>
</g>
<!-- Node10 -->
<g id="node10" class="node">
<title>Node10</title>
<g id="a_node10"><a xlink:href="group___transforms.html#gaa15fe56d7980e7877845f3bc09125017" target="_top" xlink:title=" ">
<polygon fill="white" stroke="black" points="1076,-299 1076,-329 1226,-329 1226,-299 1076,-299"/>
<text text-anchor="start" x="1084" y="-317" font-family="Helvetica,sans-Serif" font-size="10.00">operations_push_transform</text>
<text text-anchor="middle" x="1151" y="-306" font-family="Helvetica,sans-Serif" font-size="10.00">_attributes</text>
</a>
</g>
</g>
<!-- Node3&#45;&gt;Node10 -->
<g id="edge12" class="edge">
<title>Node3&#45;&gt;Node10</title>
<path fill="none" stroke="midnightblue" d="M283.2,-276C351.33,-276 467.05,-276 566.5,-276 566.5,-276 566.5,-276 769.5,-276 871.79,-276 988.79,-289.77 1065.73,-300.73"/>
<polygon fill="midnightblue" stroke="midnightblue" points="1065.45,-304.22 1075.85,-302.18 1066.45,-297.29 1065.45,-304.22"/>
</g>
<!-- Node4&#45;&gt;Node4 -->
<g id="edge4" class="edge">
<title>Node4&#45;&gt;Node4</title>
<path fill="none" stroke="midnightblue" d="M361.53,-323.76C349.38,-332.57 357.71,-342 386.5,-342 405.85,-342 415.95,-337.74 416.81,-332.27"/>
<polygon fill="midnightblue" stroke="midnightblue" points="419.75,-330.37 411.47,-323.76 413.82,-334.09 419.75,-330.37"/>
</g>
<!-- Node5 -->
<g id="node5" class="node">
<title>Node5</title>
<g id="a_node5"><a xlink:href="group___models.html#gaca17d77a06e750f5cd95c1b79e1a8a30" target="_top" xlink:title=" ">
<polygon fill="white" stroke="black" points="498.5,-342.5 498.5,-361.5 636.5,-361.5 636.5,-342.5 498.5,-342.5"/>
<text text-anchor="middle" x="567.5" y="-349.5" font-family="Helvetica,sans-Serif" font-size="10.00">operations_push_models</text>
</a>
</g>
</g>
<!-- Node4&#45;&gt;Node5 -->
<g id="edge5" class="edge">
<title>Node4&#45;&gt;Node5</title>
<path fill="none" stroke="midnightblue" d="M432.67,-323.59C456.72,-328.69 486.47,-335.01 511.82,-340.39"/>
<polygon fill="midnightblue" stroke="midnightblue" points="511.15,-343.83 521.66,-342.48 512.6,-336.98 511.15,-343.83"/>
</g>
<!-- Node7 -->
<g id="node7" class="node">
<title>Node7</title>
<g id="a_node7"><a xlink:href="group___transforms.html#gaaa78b92f0257bb4755731622692de0cb" target="_top" xlink:title=" ">
<polygon fill="white" stroke="black" points="490,-304.5 490,-323.5 645,-323.5 645,-304.5 490,-304.5"/>
<text text-anchor="middle" x="567.5" y="-311.5" font-family="Helvetica,sans-Serif" font-size="10.00">operations_push_transforms</text>
</a>
</g>
</g>
<!-- Node4&#45;&gt;Node7 -->
<g id="edge7" class="edge">
<title>Node4&#45;&gt;Node7</title>
<path fill="none" stroke="midnightblue" d="M454.15,-314C462.51,-314 471.16,-314 479.77,-314"/>
<polygon fill="midnightblue" stroke="midnightblue" points="479.84,-317.5 489.84,-314 479.84,-310.5 479.84,-317.5"/>
</g>
<!-- Node6 -->
<g id="node6" class="node">
<title>Node6</title>
<g id="a_node6"><a xlink:href="group___models.html#ga5dc84f3f40c0bb6ad63dc2da3793ddd9" target="_top" xlink:title=" ">
<polygon fill="white" stroke="black" points="702,-342.5 702,-361.5 835,-361.5 835,-342.5 702,-342.5"/>
<text text-anchor="middle" x="768.5" y="-349.5" font-family="Helvetica,sans-Serif" font-size="10.00">operations_push_model</text>
</a>
</g>
</g>
<!-- Node5&#45;&gt;Node6 -->
<g id="edge6" class="edge">
<title>Node5&#45;&gt;Node6</title>
<path fill="none" stroke="midnightblue" d="M636.71,-352C654.38,-352 673.51,-352 691.55,-352"/>
<polygon fill="midnightblue" stroke="midnightblue" points="691.74,-355.5 701.74,-352 691.74,-348.5 691.74,-355.5"/>
</g>
<!-- Node8 -->
<g id="node8" class="node">
<title>Node8</title>
<g id="a_node8"><a xlink:href="group___transforms.html#ga3ceb952cabab7fc6918d4a676d53508d" target="_top" xlink:title=" ">
<polygon fill="white" stroke="black" points="681,-304.5 681,-323.5 856,-323.5 856,-304.5 681,-304.5"/>
<text text-anchor="middle" x="768.5" y="-311.5" font-family="Helvetica,sans-Serif" font-size="10.00">operations_push_transformation</text>
</a>
</g>
</g>
<!-- Node7&#45;&gt;Node8 -->
<g id="edge8" class="edge">
<title>Node7&#45;&gt;Node8</title>
<path fill="none" stroke="midnightblue" d="M645.15,-314C653.57,-314 662.23,-314 670.85,-314"/>
<polygon fill="midnightblue" stroke="midnightblue" points="670.94,-317.5 680.94,-314 670.94,-310.5 670.94,-317.5"/>
</g>
<!-- Node9 -->
<g id="node9" class="node">
<title>Node9</title>
<g id="a_node9"><a xlink:href="group___transforms.html#ga5078bb9f7411d7f9f26c535a52ae7c6b" target="_top" xlink:title=" ">
<polygon fill="white" stroke="black" points="892,-343 892,-373 1040,-373 1040,-343 892,-343"/>
<text text-anchor="start" x="900" y="-361" font-family="Helvetica,sans-Serif" font-size="10.00">operations_push_extended</text>
<text text-anchor="middle" x="966" y="-350" font-family="Helvetica,sans-Serif" font-size="10.00">_translate_attributes</text>
</a>
</g>
</g>
<!-- Node8&#45;&gt;Node9 -->
<g id="edge9" class="edge">
<title>Node8&#45;&gt;Node9</title>
<path fill="none" stroke="midnightblue" d="M813.52,-323.59C827.14,-326.58 842.2,-329.9 856,-333 866.99,-335.47 878.59,-338.1 889.97,-340.7"/>
<polygon fill="midnightblue" stroke="midnightblue" points="889.36,-344.15 899.89,-342.96 890.92,-337.32 889.36,-344.15"/>
</g>
<!-- Node8&#45;&gt;Node10 -->
<g id="edge11" class="edge">
<title>Node8&#45;&gt;Node10</title>
<path fill="none" stroke="midnightblue" d="M856.32,-314C919.06,-314 1003.38,-314 1065.57,-314"/>
<polygon fill="midnightblue" stroke="midnightblue" points="1065.74,-317.5 1075.74,-314 1065.74,-310.5 1065.74,-317.5"/>
</g>
<!-- Node9&#45;&gt;Node10 -->
<g id="edge10" class="edge">
<title>Node9&#45;&gt;Node10</title>
<path fill="none" stroke="midnightblue" d="M1029.47,-342.98C1044.99,-339.25 1061.75,-335.22 1077.7,-331.38"/>
<polygon fill="midnightblue" stroke="midnightblue" points="1078.6,-334.77 1087.5,-329.03 1076.96,-327.96 1078.6,-334.77"/>
</g>
<!-- Node12 -->
<g id="node12" class="node">
<title>Node12</title>
<g id="a_node12"><a xlink:href="curves_8cpp.html#af213e79ca700e91ea886085a4149a848" target="_top" xlink:title=" ">
<polygon fill="white" stroke="black" points="334.5,-228.5 334.5,-247.5 438.5,-247.5 438.5,-228.5 334.5,-228.5"/>
<text text-anchor="middle" x="386.5" y="-235.5" font-family="Helvetica,sans-Serif" font-size="10.00">advance_in_curve</text>
</a>
</g>
</g>
<!-- Node11&#45;&gt;Node12 -->
<g id="edge14" class="edge">
<title>Node11&#45;&gt;Node12</title>
<path fill="none" stroke="midnightblue" d="M233.78,-152.64C249.73,-168.69 284.04,-200.9 319,-219 323.48,-221.32 328.29,-223.39 333.19,-225.23"/>
<polygon fill="midnightblue" stroke="midnightblue" points="332.07,-228.55 342.67,-228.5 334.35,-221.93 332.07,-228.55"/>
</g>
<!-- Node17 -->
<g id="node17" class="node">
<title>Node17</title>
<g id="a_node17"><a xlink:href="engine_8cpp.html#a072c434cfd125e58ac1cec9a5725688a" target="_top" xlink:title=" ">
<polygon fill="white" stroke="black" points="328.5,-190.5 328.5,-209.5 444.5,-209.5 444.5,-190.5 328.5,-190.5"/>
<text text-anchor="middle" x="386.5" y="-197.5" font-family="Helvetica,sans-Serif" font-size="10.00">advance_in_rotation</text>
</a>
</g>
</g>
<!-- Node11&#45;&gt;Node17 -->
<g id="edge19" class="edge">
<title>Node11&#45;&gt;Node17</title>
<path fill="none" stroke="midnightblue" d="M246.4,-152.56C265.4,-160.68 293.74,-172.34 319,-181 325.56,-183.25 332.55,-185.45 339.44,-187.51"/>
<polygon fill="midnightblue" stroke="midnightblue" points="338.81,-190.98 349.39,-190.42 340.78,-184.26 338.81,-190.98"/>
</g>
<!-- Node18 -->
<g id="node18" class="node">
<title>Node18</title>
<g id="a_node18"><a xlink:href="group__model_engine.html#ga56beba311d0a6fcbda9aeb516fe67f8f" target="_top" xlink:title=" ">
<polygon fill="white" stroke="black" points="351.5,-152.5 351.5,-171.5 421.5,-171.5 421.5,-152.5 351.5,-152.5"/>
<text text-anchor="middle" x="386.5" y="-159.5" font-family="Helvetica,sans-Serif" font-size="10.00">allocModel</text>
</a>
</g>
</g>
<!-- Node11&#45;&gt;Node18 -->
<g id="edge20" class="edge">
<title>Node11&#45;&gt;Node18</title>
<path fill="none" stroke="midnightblue" d="M276.33,-149.12C297.15,-151.57 320.92,-154.38 340.95,-156.74"/>
<polygon fill="midnightblue" stroke="midnightblue" points="340.7,-160.24 351.04,-157.93 341.52,-153.29 340.7,-160.24"/>
</g>
<!-- Node19 -->
<g id="node19" class="node">
<title>Node19</title>
<g id="a_node19"><a xlink:href="group__spherical.html#ga2a22d15f7463ccd8f8d1aa65e7578983" target="_top" xlink:title=" ">
<polygon fill="white" stroke="black" points="330,-114.5 330,-133.5 443,-133.5 443,-114.5 330,-114.5"/>
<text text-anchor="middle" x="386.5" y="-121.5" font-family="Helvetica,sans-Serif" font-size="10.00">cartesian2Spherical</text>
</a>
</g>
</g>
<!-- Node11&#45;&gt;Node19 -->
<g id="edge21" class="edge">
<title>Node11&#45;&gt;Node19</title>
<path fill="none" stroke="midnightblue" d="M276.33,-136.88C290.09,-135.26 305.13,-133.48 319.53,-131.79"/>
<polygon fill="midnightblue" stroke="midnightblue" points="320.36,-135.21 329.88,-130.56 319.54,-128.26 320.36,-135.21"/>
</g>
<!-- Node20 -->
<g id="node20" class="node">
<title>Node20</title>
<g id="a_node20"><a xlink:href="curves_8cpp.html#ad812fc50a0384335487e258a6f61714e" target="_top" xlink:title=" ">
<polygon fill="white" stroke="black" points="529,-119.5 529,-138.5 606,-138.5 606,-119.5 529,-119.5"/>
<text text-anchor="middle" x="567.5" y="-126.5" font-family="Helvetica,sans-Serif" font-size="10.00">renderCurve</text>
</a>
</g>
</g>
<!-- Node11&#45;&gt;Node20 -->
<g id="edge22" class="edge">
<title>Node11&#45;&gt;Node20</title>
<path fill="none" stroke="midnightblue" d="M242.33,-133.42C260.88,-124.04 291.05,-110.41 319,-105 389.18,-91.42 472.13,-105.45 521.96,-117.05"/>
<polygon fill="midnightblue" stroke="midnightblue" points="521.23,-120.48 531.77,-119.41 522.86,-113.67 521.23,-120.48"/>
</g>
<!-- Node21 -->
<g id="node21" class="node">
<title>Node21</title>
<g id="a_node21"><a xlink:href="group__model_engine.html#gae7de75a0850ac9069b4a3710b63a102c" target="_top" xlink:title=" ">
<polygon fill="white" stroke="black" points="347.5,-38.5 347.5,-57.5 425.5,-57.5 425.5,-38.5 347.5,-38.5"/>
<text text-anchor="middle" x="386.5" y="-45.5" font-family="Helvetica,sans-Serif" font-size="10.00">renderModel</text>
</a>
</g>
</g>
<!-- Node11&#45;&gt;Node21 -->
<g id="edge24" class="edge">
<title>Node11&#45;&gt;Node21</title>
<path fill="none" stroke="midnightblue" d="M235.11,-133.33C251.87,-118.46 285.96,-89.85 319,-72 326.61,-67.89 335.06,-64.23 343.32,-61.07"/>
<polygon fill="midnightblue" stroke="midnightblue" points="344.66,-64.31 352.87,-57.61 342.27,-57.73 344.66,-64.31"/>
</g>
<!-- Node22 -->
<g id="node22" class="node">
<title>Node22</title>
<g id="a_node22"><a xlink:href="group__engine.html#ga260fbd3d70764684657bbf1a617ddf99" target="_top" xlink:title=" ">
<polygon fill="white" stroke="black" points="349.5,-0.5 349.5,-19.5 423.5,-19.5 423.5,-0.5 349.5,-0.5"/>
<text text-anchor="middle" x="386.5" y="-7.5" font-family="Helvetica,sans-Serif" font-size="10.00">vbo_indices</text>
</a>
</g>
</g>
<!-- Node11&#45;&gt;Node22 -->
<g id="edge25" class="edge">
<title>Node11&#45;&gt;Node22</title>
<path fill="none" stroke="midnightblue" d="M229.72,-133.39C242.15,-111.42 275.74,-57.25 319,-29 325.22,-24.94 332.32,-21.73 339.51,-19.2"/>
<polygon fill="midnightblue" stroke="midnightblue" points="340.78,-22.47 349.29,-16.15 338.7,-15.78 340.78,-22.47"/>
</g>
<!-- Node13 -->
<g id="node13" class="node">
<title>Node13</title>
<g id="a_node13"><a xlink:href="curves_8cpp.html#aca4aaefe66ab2cbc9d44054ab8929c0d" target="_top" xlink:title=" ">
<polygon fill="white" stroke="black" points="506,-214.5 506,-233.5 629,-233.5 629,-214.5 506,-214.5"/>
<text text-anchor="middle" x="567.5" y="-221.5" font-family="Helvetica,sans-Serif" font-size="10.00">align_global_pos_mat</text>
</a>
</g>
</g>
<!-- Node12&#45;&gt;Node13 -->
<g id="edge15" class="edge">
<title>Node12&#45;&gt;Node13</title>
<path fill="none" stroke="midnightblue" d="M438.79,-233.99C456.48,-232.6 476.62,-231.03 495.6,-229.55"/>
<polygon fill="midnightblue" stroke="midnightblue" points="496,-233.02 505.69,-228.76 495.45,-226.05 496,-233.02"/>
</g>
<!-- Node14 -->
<g id="node14" class="node">
<title>Node14</title>
<g id="a_node14"><a xlink:href="curves_8cpp.html#abe9fa1f2a311f275f92f5b46fb2f8490" target="_top" xlink:title=" ">
<polygon fill="white" stroke="black" points="703.5,-200.5 703.5,-219.5 833.5,-219.5 833.5,-200.5 703.5,-200.5"/>
<text text-anchor="middle" x="768.5" y="-207.5" font-family="Helvetica,sans-Serif" font-size="10.00">get_curve_global_point</text>
</a>
</g>
</g>
<!-- Node13&#45;&gt;Node14 -->
<g id="edge16" class="edge">
<title>Node13&#45;&gt;Node14</title>
<path fill="none" stroke="midnightblue" d="M629.02,-219.74C649.26,-218.32 672.06,-216.71 693.23,-215.23"/>
<polygon fill="midnightblue" stroke="midnightblue" points="693.74,-218.7 703.47,-214.5 693.25,-211.71 693.74,-218.7"/>
</g>
<!-- Node15 -->
<g id="node15" class="node">
<title>Node15</title>
<g id="a_node15"><a xlink:href="curves_8cpp.html#af68f8da25ecf53c589aa5d47f1f8e164" target="_top" xlink:title=" ">
<polygon fill="white" stroke="black" points="933.5,-219.5 933.5,-238.5 998.5,-238.5 998.5,-219.5 933.5,-219.5"/>
<text text-anchor="middle" x="966" y="-226.5" font-family="Helvetica,sans-Serif" font-size="10.00">get_curve</text>
</a>
</g>
</g>
<!-- Node14&#45;&gt;Node15 -->
<g id="edge17" class="edge">
<title>Node14&#45;&gt;Node15</title>
<path fill="none" stroke="midnightblue" d="M833.51,-216.22C862.97,-219.08 897.09,-222.4 923.19,-224.94"/>
<polygon fill="midnightblue" stroke="midnightblue" points="923.2,-228.45 933.49,-225.94 923.88,-221.49 923.2,-228.45"/>
</g>
<!-- Node16 -->
<g id="node16" class="node">
<title>Node16</title>
<g id="a_node16"><a xlink:href="curves_8cpp.html#afa648d7de8c941b50b26f02755a955b9" target="_top" xlink:title=" ">
<polygon fill="white" stroke="black" points="921.5,-181.5 921.5,-200.5 1010.5,-200.5 1010.5,-181.5 921.5,-181.5"/>
<text text-anchor="middle" x="966" y="-188.5" font-family="Helvetica,sans-Serif" font-size="10.00">get_curve_info</text>
</a>
</g>
</g>
<!-- Node14&#45;&gt;Node16 -->
<g id="edge18" class="edge">
<title>Node14&#45;&gt;Node16</title>
<path fill="none" stroke="midnightblue" d="M833.51,-203.78C858.65,-201.34 887.19,-198.56 911.23,-196.23"/>
<polygon fill="midnightblue" stroke="midnightblue" points="911.63,-199.7 921.24,-195.25 910.95,-192.74 911.63,-199.7"/>
</g>
<!-- Node20&#45;&gt;Node14 -->
<g id="edge23" class="edge">
<title>Node20&#45;&gt;Node14</title>
<path fill="none" stroke="midnightblue" d="M592.11,-138.61C627.49,-153.01 694.39,-180.24 734.56,-196.59"/>
<polygon fill="midnightblue" stroke="midnightblue" points="733.34,-199.87 743.92,-200.4 735.98,-193.39 733.34,-199.87"/>
</g>
</g>
</svg>
        <g id="navigator" transform="translate(0 0)" fill="#404254">
                <rect fill="#f2f5e9" fill-opacity="0.5" stroke="#606060" stroke-width=".5" x="0" y="0" width="60" height="60"/>
                <use id="zoomplus" xlink:href="#zoomPlus" x="17" y="9" onmousedown="handleZoom(evt,'in')"/>
                <use id="zoomminus" xlink:href="#zoomMin" x="42" y="9" onmousedown="handleZoom(evt,'out')"/>
                <use id="reset" xlink:href="#resetDef" x="30" y="36" onmousedown="handleReset()"/>
                <g id="arrowUp" xlink:href="#dirArrow" transform="translate(30 24)" onmousedown="handlePan(0,-1)">
                  <use xlink:href="#rim" fill="#404040">
                        <set attributeName="fill" to="#808080" begin="arrowUp.mouseover" end="arrowUp.mouseout"/>
                  </use>
                  <path fill="none" stroke="white" stroke-width="1.5" d="M0,-3.0v7 M-2.5,-0.5L0,-3.0L2.5,-0.5"/>
                </g>
                <g id="arrowRight" xlink:href="#dirArrow" transform="rotate(90) translate(36 -43)" onmousedown="handlePan(1,0)">
                  <use xlink:href="#rim" fill="#404040">
                        <set attributeName="fill" to="#808080" begin="arrowRight.mouseover" end="arrowRight.mouseout"/>
                  </use>
                  <path fill="none" stroke="white" stroke-width="1.5" d="M0,-3.0v7 M-2.5,-0.5L0,-3.0L2.5,-0.5"/>
                </g>
                <g id="arrowDown" xlink:href="#dirArrow" transform="rotate(180) translate(-30 -48)" onmousedown="handlePan(0,1)">
                  <use xlink:href="#rim" fill="#404040">
                        <set attributeName="fill" to="#808080" begin="arrowDown.mouseover" end="arrowDown.mouseout"/>
                  </use>
                  <path fill="none" stroke="white" stroke-width="1.5" d="M0,-3.0v7 M-2.5,-0.5L0,-3.0L2.5,-0.5"/>
                </g>
                <g id="arrowLeft" xlink:href="#dirArrow" transform="rotate(270) translate(-36 17)" onmousedown="handlePan(-1,0)">
                  <use xlink:href="#rim" fill="#404040">
                        <set attributeName="fill" to="#808080" begin="arrowLeft.mouseover" end="arrowLeft.mouseout"/>
                  </use>
                  <path fill="none" stroke="white" stroke-width="1.5" d="M0,-3.0v7 M-2.5,-0.5L0,-3.0L2.5,-0.5"/>
                </g>
        </g>
        <svg viewBox="0 0 15 15" width="100%" height="30px" preserveAspectRatio="xMaxYMin meet">
         <g id="arrow_out" transform="scale(0.3 0.3)">
          <a xlink:href="group__engine_ga2b6a8884687b3fe271b099a450a82d24_cgraph_org.svg" target="_base">
           <rect id="button" ry="5" rx="5" y="6" x="6" height="38" width="38"
                fill="#f2f5e9" fill-opacity="0.5" stroke="#606060" stroke-width="1.0"/>
           <path id="arrow"
             d="M 11.500037,31.436501 C 11.940474,20.09759 22.043105,11.32322 32.158766,21.979434 L 37.068811,17.246167 C 37.068811,17.246167 37.088388,32 37.088388,32 L 22.160133,31.978069 C 22.160133,31.978069 26.997745,27.140456 26.997745,27.140456 C 18.528582,18.264221 13.291696,25.230495 11.500037,31.436501 z"
             style="fill:#404040;"/>
          </a>
         </g>
        </svg>
</svg>
