<?xml version="1.0" encoding="UTF-8" standalone="no"?>
<!DOCTYPE svg PUBLIC "-//W3C//DTD SVG 1.1//EN"
 "http://www.w3.org/Graphics/SVG/1.1/DTD/svg11.dtd">
<!-- Generated by graphviz version 3.0.0 (0)
 -->
<!-- Title: renderScene Pages: 1 -->
<svg width="828pt" height="294pt"
 viewBox="0.00 0.00 828.00 294.00" xmlns="http://www.w3.org/2000/svg" xmlns:xlink="http://www.w3.org/1999/xlink">
<g id="graph0" class="graph" transform="scale(1 1) rotate(0) translate(4 290)">
<title>renderScene</title>
<polygon fill="white" stroke="transparent" points="-4,4 -4,-290 824,-290 824,4 -4,4"/>
<!-- Node1 -->
<g id="node1" class="node">
<title>Node1</title>
<g id="a_node1"><a xlink:title=" ">
<polygon fill="#bfbfbf" stroke="black" points="0,-133.5 0,-152.5 77,-152.5 77,-133.5 0,-133.5"/>
<text text-anchor="middle" x="38.5" y="-140.5" font-family="Helvetica,sans-Serif" font-size="10.00">renderScene</text>
</a>
</g>
</g>
<!-- Node2 -->
<g id="node2" class="node">
<title>Node2</title>
<g id="a_node2"><a xlink:href="engine_8cpp.html#a634dba686e70e7ff3f10c37d11f463da" target="_top" xlink:title=" ">
<polygon fill="white" stroke="black" points="131,-171.5 131,-190.5 200,-190.5 200,-171.5 131,-171.5"/>
<text text-anchor="middle" x="165.5" y="-178.5" font-family="Helvetica,sans-Serif" font-size="10.00">draw_axes</text>
</a>
</g>
</g>
<!-- Node1&#45;&gt;Node2 -->
<g id="edge1" class="edge">
<title>Node1&#45;&gt;Node2</title>
<path fill="none" stroke="midnightblue" d="M71.04,-152.59C86.88,-157.4 106.27,-163.3 123.28,-168.47"/>
<polygon fill="midnightblue" stroke="midnightblue" points="122.38,-171.85 132.97,-171.41 124.42,-165.16 122.38,-171.85"/>
</g>
<!-- Node3 -->
<g id="node3" class="node">
<title>Node3</title>
<g id="a_node3"><a xlink:href="group___operations.html#ga887f20c10a27832ea24178203a47fcc2" target="_top" xlink:title=" ">
<polygon fill="white" stroke="black" points="113,-133.5 113,-152.5 218,-152.5 218,-133.5 113,-133.5"/>
<text text-anchor="middle" x="165.5" y="-140.5" font-family="Helvetica,sans-Serif" font-size="10.00">operations_render</text>
</a>
</g>
</g>
<!-- Node1&#45;&gt;Node3 -->
<g id="edge2" class="edge">
<title>Node1&#45;&gt;Node3</title>
<path fill="none" stroke="midnightblue" d="M77,-143C85.07,-143 93.8,-143 102.51,-143"/>
<polygon fill="midnightblue" stroke="midnightblue" points="102.69,-146.5 112.69,-143 102.69,-139.5 102.69,-146.5"/>
</g>
<!-- Node15 -->
<g id="node15" class="node">
<title>Node15</title>
<g id="a_node15"><a xlink:href="group__engine.html#gab9813926390dc5773baf0b20dc2ea16e" target="_top" xlink:title=" ">
<polygon fill="white" stroke="black" points="134.5,-57.5 134.5,-76.5 196.5,-76.5 196.5,-57.5 134.5,-57.5"/>
<text text-anchor="middle" x="165.5" y="-64.5" font-family="Helvetica,sans-Serif" font-size="10.00">redisplay</text>
</a>
</g>
</g>
<!-- Node1&#45;&gt;Node15 -->
<g id="edge15" class="edge">
<title>Node1&#45;&gt;Node15</title>
<path fill="none" stroke="midnightblue" d="M55.33,-133.37C76.75,-120.35 115.14,-97.01 140.22,-81.76"/>
<polygon fill="midnightblue" stroke="midnightblue" points="142.07,-84.73 148.8,-76.55 138.43,-78.75 142.07,-84.73"/>
</g>
<!-- Node4 -->
<g id="node4" class="node">
<title>Node4</title>
<g id="a_node4"><a xlink:href="curves_8cpp.html#af213e79ca700e91ea886085a4149a848" target="_top" xlink:title=" ">
<polygon fill="white" stroke="black" points="260,-266.5 260,-285.5 364,-285.5 364,-266.5 260,-266.5"/>
<text text-anchor="middle" x="312" y="-273.5" font-family="Helvetica,sans-Serif" font-size="10.00">advance_in_curve</text>
</a>
</g>
</g>
<!-- Node3&#45;&gt;Node4 -->
<g id="edge3" class="edge">
<title>Node3&#45;&gt;Node4</title>
<path fill="none" stroke="midnightblue" d="M204.22,-152.53C209.28,-155.01 214.07,-158.11 218,-162 250.07,-193.79 221.43,-225.73 254,-257 255.65,-258.59 257.44,-260.04 259.32,-261.37"/>
<polygon fill="midnightblue" stroke="midnightblue" points="257.72,-264.49 268.13,-266.47 261.23,-258.43 257.72,-264.49"/>
</g>
<!-- Node9 -->
<g id="node9" class="node">
<title>Node9</title>
<g id="a_node9"><a xlink:href="engine_8cpp.html#a072c434cfd125e58ac1cec9a5725688a" target="_top" xlink:title=" ">
<polygon fill="white" stroke="black" points="254,-228.5 254,-247.5 370,-247.5 370,-228.5 254,-228.5"/>
<text text-anchor="middle" x="312" y="-235.5" font-family="Helvetica,sans-Serif" font-size="10.00">advance_in_rotation</text>
</a>
</g>
</g>
<!-- Node3&#45;&gt;Node9 -->
<g id="edge8" class="edge">
<title>Node3&#45;&gt;Node9</title>
<path fill="none" stroke="midnightblue" d="M201.95,-152.56C207.67,-155.06 213.26,-158.16 218,-162 241.29,-180.85 230.41,-200.52 254,-219 256.31,-220.81 258.8,-222.45 261.4,-223.94"/>
<polygon fill="midnightblue" stroke="midnightblue" points="260.07,-227.18 270.59,-228.43 263.14,-220.89 260.07,-227.18"/>
</g>
<!-- Node10 -->
<g id="node10" class="node">
<title>Node10</title>
<g id="a_node10"><a xlink:href="group__model_engine.html#ga56beba311d0a6fcbda9aeb516fe67f8f" target="_top" xlink:title=" ">
<polygon fill="white" stroke="black" points="277,-190.5 277,-209.5 347,-209.5 347,-190.5 277,-190.5"/>
<text text-anchor="middle" x="312" y="-197.5" font-family="Helvetica,sans-Serif" font-size="10.00">allocModel</text>
</a>
</g>
</g>
<!-- Node3&#45;&gt;Node10 -->
<g id="edge9" class="edge">
<title>Node3&#45;&gt;Node10</title>
<path fill="none" stroke="midnightblue" d="M194.57,-152.59C202.25,-155.42 210.51,-158.66 218,-162 234.52,-169.37 237.36,-173.89 254,-181 259.04,-183.15 264.4,-185.22 269.76,-187.15"/>
<polygon fill="midnightblue" stroke="midnightblue" points="268.7,-190.49 279.3,-190.46 270.99,-183.87 268.7,-190.49"/>
</g>
<!-- Node11 -->
<g id="node11" class="node">
<title>Node11</title>
<g id="a_node11"><a xlink:href="group__spherical.html#ga2a22d15f7463ccd8f8d1aa65e7578983" target="_top" xlink:title=" ">
<polygon fill="white" stroke="black" points="255.5,-152.5 255.5,-171.5 368.5,-171.5 368.5,-152.5 255.5,-152.5"/>
<text text-anchor="middle" x="312" y="-159.5" font-family="Helvetica,sans-Serif" font-size="10.00">cartesian2Spherical</text>
</a>
</g>
</g>
<!-- Node3&#45;&gt;Node11 -->
<g id="edge10" class="edge">
<title>Node3&#45;&gt;Node11</title>
<path fill="none" stroke="midnightblue" d="M218.26,-149.81C226.97,-150.95 236.11,-152.15 245.12,-153.34"/>
<polygon fill="midnightblue" stroke="midnightblue" points="244.83,-156.83 255.2,-154.66 245.74,-149.89 244.83,-156.83"/>
</g>
<!-- Node12 -->
<g id="node12" class="node">
<title>Node12</title>
<g id="a_node12"><a xlink:href="curves_8cpp.html#ad812fc50a0384335487e258a6f61714e" target="_top" xlink:title=" ">
<polygon fill="white" stroke="black" points="429,-171.5 429,-190.5 506,-190.5 506,-171.5 429,-171.5"/>
<text text-anchor="middle" x="467.5" y="-178.5" font-family="Helvetica,sans-Serif" font-size="10.00">renderCurve</text>
</a>
</g>
</g>
<!-- Node3&#45;&gt;Node12 -->
<g id="edge11" class="edge">
<title>Node3&#45;&gt;Node12</title>
<path fill="none" stroke="midnightblue" d="M218.01,-137.73C259.45,-134.75 318.98,-133.32 370,-143 394.25,-147.6 420.21,-158.17 439.08,-167"/>
<polygon fill="midnightblue" stroke="midnightblue" points="437.73,-170.24 448.26,-171.42 440.77,-163.93 437.73,-170.24"/>
</g>
<!-- Node13 -->
<g id="node13" class="node">
<title>Node13</title>
<g id="a_node13"><a xlink:href="group__model_engine.html#gae7de75a0850ac9069b4a3710b63a102c" target="_top" xlink:title=" ">
<polygon fill="white" stroke="black" points="273,-76.5 273,-95.5 351,-95.5 351,-76.5 273,-76.5"/>
<text text-anchor="middle" x="312" y="-83.5" font-family="Helvetica,sans-Serif" font-size="10.00">renderModel</text>
</a>
</g>
</g>
<!-- Node3&#45;&gt;Node13 -->
<g id="edge13" class="edge">
<title>Node3&#45;&gt;Node13</title>
<path fill="none" stroke="midnightblue" d="M190.69,-133.46C214.34,-124.13 250.57,-109.84 277.09,-99.38"/>
<polygon fill="midnightblue" stroke="midnightblue" points="278.72,-102.5 286.74,-95.57 276.15,-95.99 278.72,-102.5"/>
</g>
<!-- Node14 -->
<g id="node14" class="node">
<title>Node14</title>
<g id="a_node14"><a xlink:href="group__engine.html#ga260fbd3d70764684657bbf1a617ddf99" target="_top" xlink:title=" ">
<polygon fill="white" stroke="black" points="275,-38.5 275,-57.5 349,-57.5 349,-38.5 275,-38.5"/>
<text text-anchor="middle" x="312" y="-45.5" font-family="Helvetica,sans-Serif" font-size="10.00">vbo_indices</text>
</a>
</g>
</g>
<!-- Node3&#45;&gt;Node14 -->
<g id="edge14" class="edge">
<title>Node3&#45;&gt;Node14</title>
<path fill="none" stroke="midnightblue" d="M175.02,-133.48C189.69,-117.6 221.32,-85.65 254,-67 257.67,-64.91 261.6,-63 265.63,-61.27"/>
<polygon fill="midnightblue" stroke="midnightblue" points="267.06,-64.47 275.1,-57.57 264.51,-57.95 267.06,-64.47"/>
</g>
<!-- Node5 -->
<g id="node5" class="node">
<title>Node5</title>
<g id="a_node5"><a xlink:href="curves_8cpp.html#aca4aaefe66ab2cbc9d44054ab8929c0d" target="_top" xlink:title=" ">
<polygon fill="white" stroke="black" points="406,-237.5 406,-256.5 529,-256.5 529,-237.5 406,-237.5"/>
<text text-anchor="middle" x="467.5" y="-244.5" font-family="Helvetica,sans-Serif" font-size="10.00">align_global_pos_mat</text>
</a>
</g>
</g>
<!-- Node4&#45;&gt;Node5 -->
<g id="edge4" class="edge">
<title>Node4&#45;&gt;Node5</title>
<path fill="none" stroke="midnightblue" d="M363.69,-266.42C377.25,-263.86 392.04,-261.07 406.07,-258.42"/>
<polygon fill="midnightblue" stroke="midnightblue" points="406.95,-261.81 416.13,-256.52 405.65,-254.93 406.95,-261.81"/>
</g>
<!-- Node6 -->
<g id="node6" class="node">
<title>Node6</title>
<g id="a_node6"><a xlink:href="curves_8cpp.html#abe9fa1f2a311f275f92f5b46fb2f8490" target="_top" xlink:title=" ">
<polygon fill="white" stroke="black" points="565,-190.5 565,-209.5 695,-209.5 695,-190.5 565,-190.5"/>
<text text-anchor="middle" x="630" y="-197.5" font-family="Helvetica,sans-Serif" font-size="10.00">get_curve_global_point</text>
</a>
</g>
</g>
<!-- Node5&#45;&gt;Node6 -->
<g id="edge5" class="edge">
<title>Node5&#45;&gt;Node6</title>
<path fill="none" stroke="midnightblue" d="M500.98,-237.49C525.59,-230.28 559.62,-220.32 586.42,-212.47"/>
<polygon fill="midnightblue" stroke="midnightblue" points="587.68,-215.75 596.29,-209.58 585.71,-209.03 587.68,-215.75"/>
</g>
<!-- Node7 -->
<g id="node7" class="node">
<title>Node7</title>
<g id="a_node7"><a xlink:href="curves_8cpp.html#af68f8da25ecf53c589aa5d47f1f8e164" target="_top" xlink:title=" ">
<polygon fill="white" stroke="black" points="743,-209.5 743,-228.5 808,-228.5 808,-209.5 743,-209.5"/>
<text text-anchor="middle" x="775.5" y="-216.5" font-family="Helvetica,sans-Serif" font-size="10.00">get_curve</text>
</a>
</g>
</g>
<!-- Node6&#45;&gt;Node7 -->
<g id="edge6" class="edge">
<title>Node6&#45;&gt;Node7</title>
<path fill="none" stroke="midnightblue" d="M695.2,-208.5C708.01,-210.2 721.15,-211.94 732.95,-213.5"/>
<polygon fill="midnightblue" stroke="midnightblue" points="732.57,-216.98 742.94,-214.82 733.48,-210.04 732.57,-216.98"/>
</g>
<!-- Node8 -->
<g id="node8" class="node">
<title>Node8</title>
<g id="a_node8"><a xlink:href="curves_8cpp.html#afa648d7de8c941b50b26f02755a955b9" target="_top" xlink:title=" ">
<polygon fill="white" stroke="black" points="731,-171.5 731,-190.5 820,-190.5 820,-171.5 731,-171.5"/>
<text text-anchor="middle" x="775.5" y="-178.5" font-family="Helvetica,sans-Serif" font-size="10.00">get_curve_info</text>
</a>
</g>
</g>
<!-- Node6&#45;&gt;Node8 -->
<g id="edge7" class="edge">
<title>Node6&#45;&gt;Node8</title>
<path fill="none" stroke="midnightblue" d="M695.2,-191.5C703.79,-190.36 712.53,-189.21 720.92,-188.09"/>
<polygon fill="midnightblue" stroke="midnightblue" points="721.48,-191.55 730.94,-186.77 720.56,-184.61 721.48,-191.55"/>
</g>
<!-- Node12&#45;&gt;Node6 -->
<g id="edge12" class="edge">
<title>Node12&#45;&gt;Node6</title>
<path fill="none" stroke="midnightblue" d="M506.13,-185.45C520.63,-187.17 537.75,-189.2 554.53,-191.18"/>
<polygon fill="midnightblue" stroke="midnightblue" points="554.56,-194.71 564.91,-192.41 555.39,-187.76 554.56,-194.71"/>
</g>
<!-- Node16 -->
<g id="node16" class="node">
<title>Node16</title>
<g id="a_node16"><a xlink:href="group__spherical.html#gab5ff5216bffd1e15798677f24213213d" target="_top" xlink:title=" ">
<polygon fill="white" stroke="black" points="255.5,-0.5 255.5,-19.5 368.5,-19.5 368.5,-0.5 255.5,-0.5"/>
<text text-anchor="middle" x="312" y="-7.5" font-family="Helvetica,sans-Serif" font-size="10.00">spherical2Cartesian</text>
</a>
</g>
</g>
<!-- Node15&#45;&gt;Node16 -->
<g id="edge16" class="edge">
<title>Node15&#45;&gt;Node16</title>
<path fill="none" stroke="midnightblue" d="M187.15,-57.42C204.75,-49.4 230.8,-37.88 254,-29 259.49,-26.9 265.33,-24.8 271.09,-22.81"/>
<polygon fill="midnightblue" stroke="midnightblue" points="272.3,-26.09 280.65,-19.57 270.06,-19.46 272.3,-26.09"/>
</g>
</g>
</svg>
