<?xml version="1.0" encoding="UTF-8" standalone="no"?>
<!DOCTYPE svg PUBLIC "-//W3C//DTD SVG 1.1//EN"
 "http://www.w3.org/Graphics/SVG/1.1/DTD/svg11.dtd">
<!-- Generated by graphviz version 3.0.0 (0)
 -->
<!-- Title: points_write Pages: 1 -->
<svg width="314pt" height="180pt"
 viewBox="0.00 0.00 314.00 180.00" xmlns="http://www.w3.org/2000/svg" xmlns:xlink="http://www.w3.org/1999/xlink">
<g id="graph0" class="graph" transform="scale(1 1) rotate(0) translate(4 176)">
<title>points_write</title>
<polygon fill="white" stroke="transparent" points="-4,4 -4,-176 310,-176 310,4 -4,4"/>
<!-- Node1 -->
<g id="node1" class="node">
<title>Node1</title>
<g id="a_node1"><a xlink:title=" ">
<polygon fill="#bfbfbf" stroke="black" points="229,-76.5 229,-95.5 306,-95.5 306,-76.5 229,-76.5"/>
<text text-anchor="middle" x="267.5" y="-83.5" font-family="Helvetica,sans-Serif" font-size="10.00">points_write</text>
</a>
</g>
</g>
<!-- Node2 -->
<g id="node2" class="node">
<title>Node2</title>
<g id="a_node2"><a xlink:href="group__sphere.html#ga6a7ebb50b44e4785bda364ba2bdb12d7" target="_top" xlink:title=" ">
<polygon fill="white" stroke="black" points="78.5,-152.5 78.5,-171.5 191.5,-171.5 191.5,-152.5 78.5,-152.5"/>
<text text-anchor="middle" x="135" y="-159.5" font-family="Helvetica,sans-Serif" font-size="10.00">model_bezier_write</text>
</a>
</g>
</g>
<!-- Node1&#45;&gt;Node2 -->
<g id="edge1" class="edge">
<title>Node1&#45;&gt;Node2</title>
<path fill="none" stroke="midnightblue" d="M248.81,-102.52C234.62,-115.04 213.72,-131.93 193,-143 186.1,-146.69 178.35,-149.84 170.84,-152.47"/>
<polygon fill="midnightblue" stroke="midnightblue" points="251.26,-105.02 256.34,-95.72 246.57,-99.82 251.26,-105.02"/>
</g>
<!-- Node4 -->
<g id="node4" class="node">
<title>Node4</title>
<g id="a_node4"><a xlink:href="group__cone.html#ga91bcf93d6d83f4837ac94093d869af78" target="_top" xlink:title=" ">
<polygon fill="white" stroke="black" points="82,-114.5 82,-133.5 188,-133.5 188,-114.5 82,-114.5"/>
<text text-anchor="middle" x="135" y="-121.5" font-family="Helvetica,sans-Serif" font-size="10.00">model_cone_write</text>
</a>
</g>
</g>
<!-- Node1&#45;&gt;Node4 -->
<g id="edge3" class="edge">
<title>Node1&#45;&gt;Node4</title>
<path fill="none" stroke="midnightblue" d="M223.95,-98.39C206.08,-103.59 185.61,-109.55 168.92,-114.41"/>
<polygon fill="midnightblue" stroke="midnightblue" points="224.95,-101.75 233.57,-95.59 222.99,-95.02 224.95,-101.75"/>
</g>
<!-- Node5 -->
<g id="node5" class="node">
<title>Node5</title>
<g id="a_node5"><a xlink:href="group__cube.html#gad6fe75a034b53925563817d6efd139a0" target="_top" xlink:title=" ">
<polygon fill="white" stroke="black" points="82,-76.5 82,-95.5 188,-95.5 188,-76.5 82,-76.5"/>
<text text-anchor="middle" x="135" y="-83.5" font-family="Helvetica,sans-Serif" font-size="10.00">model_cube_write</text>
</a>
</g>
</g>
<!-- Node1&#45;&gt;Node5 -->
<g id="edge5" class="edge">
<title>Node1&#45;&gt;Node5</title>
<path fill="none" stroke="midnightblue" d="M218.68,-86C208.77,-86 198.28,-86 188.22,-86"/>
<polygon fill="midnightblue" stroke="midnightblue" points="218.75,-89.5 228.75,-86 218.75,-82.5 218.75,-89.5"/>
</g>
<!-- Node6 -->
<g id="node6" class="node">
<title>Node6</title>
<g id="a_node6"><a xlink:href="group__plane.html#ga5e8bda3b029f10d274a294c697a622cd" target="_top" xlink:title=" ">
<polygon fill="white" stroke="black" points="80,-38.5 80,-57.5 190,-57.5 190,-38.5 80,-38.5"/>
<text text-anchor="middle" x="135" y="-45.5" font-family="Helvetica,sans-Serif" font-size="10.00">model_plane_write</text>
</a>
</g>
</g>
<!-- Node1&#45;&gt;Node6 -->
<g id="edge7" class="edge">
<title>Node1&#45;&gt;Node6</title>
<path fill="none" stroke="midnightblue" d="M223.95,-73.61C206.08,-68.41 185.61,-62.45 168.92,-57.59"/>
<polygon fill="midnightblue" stroke="midnightblue" points="222.99,-76.98 233.57,-76.41 224.95,-70.25 222.99,-76.98"/>
</g>
<!-- Node7 -->
<g id="node7" class="node">
<title>Node7</title>
<g id="a_node7"><a xlink:href="group__sphere.html#gac12b373e99ed20d69a86f42d7fbba274" target="_top" xlink:title=" ">
<polygon fill="white" stroke="black" points="77,-0.5 77,-19.5 193,-19.5 193,-0.5 77,-0.5"/>
<text text-anchor="middle" x="135" y="-7.5" font-family="Helvetica,sans-Serif" font-size="10.00">model_sphere_write</text>
</a>
</g>
</g>
<!-- Node1&#45;&gt;Node7 -->
<g id="edge9" class="edge">
<title>Node1&#45;&gt;Node7</title>
<path fill="none" stroke="midnightblue" d="M248.81,-69.48C234.62,-56.96 213.72,-40.07 193,-29 186.1,-25.31 178.35,-22.16 170.84,-19.53"/>
<polygon fill="midnightblue" stroke="midnightblue" points="246.57,-72.18 256.34,-76.28 251.26,-66.98 246.57,-72.18"/>
</g>
<!-- Node3 -->
<g id="node3" class="node">
<title>Node3</title>
<g id="a_node3"><a xlink:href="generator_8cpp.html#a0ddf1224851353fc92bfbff6f499fa97" target="_top" xlink:title=" ">
<polygon fill="white" stroke="black" points="0,-76.5 0,-95.5 41,-95.5 41,-76.5 0,-76.5"/>
<text text-anchor="middle" x="20.5" y="-83.5" font-family="Helvetica,sans-Serif" font-size="10.00">main</text>
</a>
</g>
</g>
<!-- Node2&#45;&gt;Node3 -->
<g id="edge2" class="edge">
<title>Node2&#45;&gt;Node3</title>
<path fill="none" stroke="midnightblue" d="M87.15,-148.46C83.62,-146.82 80.19,-145 77,-143 56.64,-130.23 38.32,-108.49 28.67,-95.87"/>
<polygon fill="midnightblue" stroke="midnightblue" points="86.07,-151.8 96.65,-152.41 88.76,-145.34 86.07,-151.8"/>
</g>
<!-- Node4&#45;&gt;Node3 -->
<g id="edge4" class="edge">
<title>Node4&#45;&gt;Node3</title>
<path fill="none" stroke="midnightblue" d="M95.67,-111.27C89.43,-109.18 83.03,-107.04 77,-105 65.04,-100.96 51.64,-96.37 41.01,-92.72"/>
<polygon fill="midnightblue" stroke="midnightblue" points="94.69,-114.63 105.28,-114.48 96.9,-107.99 94.69,-114.63"/>
</g>
<!-- Node5&#45;&gt;Node3 -->
<g id="edge6" class="edge">
<title>Node5&#45;&gt;Node3</title>
<path fill="none" stroke="midnightblue" d="M71.53,-86C60.49,-86 49.78,-86 41.12,-86"/>
<polygon fill="midnightblue" stroke="midnightblue" points="71.7,-89.5 81.7,-86 71.7,-82.5 71.7,-89.5"/>
</g>
<!-- Node6&#45;&gt;Node3 -->
<g id="edge8" class="edge">
<title>Node6&#45;&gt;Node3</title>
<path fill="none" stroke="midnightblue" d="M95.67,-60.73C89.43,-62.82 83.03,-64.96 77,-67 65.04,-71.04 51.64,-75.63 41.01,-79.28"/>
<polygon fill="midnightblue" stroke="midnightblue" points="96.9,-64.01 105.28,-57.52 94.69,-57.37 96.9,-64.01"/>
</g>
<!-- Node7&#45;&gt;Node3 -->
<g id="edge10" class="edge">
<title>Node7&#45;&gt;Node3</title>
<path fill="none" stroke="midnightblue" d="M87.15,-23.54C83.62,-25.18 80.19,-27 77,-29 56.64,-41.77 38.32,-63.51 28.67,-76.13"/>
<polygon fill="midnightblue" stroke="midnightblue" points="88.76,-26.66 96.65,-19.59 86.07,-20.2 88.76,-26.66"/>
</g>
</g>
</svg>
