<?xml version="1.0" encoding="UTF-8" standalone="no"?>
<!DOCTYPE svg PUBLIC "-//W3C//DTD SVG 1.1//EN"
 "http://www.w3.org/Graphics/SVG/1.1/DTD/svg11.dtd">
<!-- Generated by graphviz version 3.0.0 (0)
 -->
<!-- Title: engine_run Pages: 1 -->
<!--zoomable 408 -->
<svg id="main" version="1.1" xmlns="http://www.w3.org/2000/svg" xmlns:xlink="http://www.w3.org/1999/xlink" xml:space="preserve" onload="init(evt)">
<style type="text/css"><![CDATA[
.edge:hover path { stroke: red; }
.edge:hover polygon { stroke: red; fill: red; }
]]></style>
<script type="text/javascript"><![CDATA[
var edges = document.getElementsByTagName('g');
if (edges && edges.length) {
  for (var i=0;i<edges.length;i++) {
    if (edges[i].id.substr(0,4)=='edge') {
      edges[i].setAttribute('class','edge');
    }
  }
}
]]></script>
        <defs>
                <circle id="rim" cx="0" cy="0" r="7"/>
                <circle id="rim2" cx="0" cy="0" r="3.5"/>
                <g id="zoomPlus">
                        <use xlink:href="#rim" fill="#404040">
                                <set attributeName="fill" to="#808080" begin="zoomplus.mouseover" end="zoomplus.mouseout"/>
                        </use>
                        <path d="M-4,0h8M0,-4v8" fill="none" stroke="white" stroke-width="1.5" pointer-events="none"/>
                </g>
                <g id="zoomMin">
                        <use xlink:href="#rim" fill="#404040">
                                <set attributeName="fill" to="#808080" begin="zoomminus.mouseover" end="zoomminus.mouseout"/>
                        </use>
                        <path d="M-4,0h8" fill="none" stroke="white" stroke-width="1.5" pointer-events="none"/>
                </g>
                <g id="dirArrow">
                        <path fill="none" stroke="white" stroke-width="1.5" d="M0,-3.0v7 M-2.5,-0.5L0,-3.0L2.5,-0.5"/>
                </g>
               <g id="resetDef">
                       <use xlink:href="#rim2" fill="#404040">
                               <set attributeName="fill" to="#808080" begin="reset.mouseover" end="reset.mouseout"/>
                       </use>
               </g>
        </defs>

<script type="text/javascript">
var viewWidth = 1341;
var viewHeight = 408;
var sectionId = 'dynsection-2';
</script>
<script xlink:href="svgpan.js"/>
<svg id="graph" class="graph">
<g id="viewport">
<title>engine_run</title>
<polygon fill="white" stroke="transparent" points="-4,4 -4,-404 1337,-404 1337,4 -4,4"/>
<!-- Node1 -->
<g id="node1" class="node">
<title>Node1</title>
<g id="a_node1"><a xlink:title=" ">
<polygon fill="#bfbfbf" stroke="black" points="0,-133.5 0,-152.5 71,-152.5 71,-133.5 0,-133.5"/>
<text text-anchor="middle" x="35.5" y="-140.5" font-family="Helvetica,sans-Serif" font-size="10.00">engine_run</text>
</a>
</g>
</g>
<!-- Node2 -->
<g id="node2" class="node">
<title>Node2</title>
<g id="a_node2"><a xlink:href="group__engine.html#ga33e20b37682a0492a9e95d13bef17f02" target="_top" xlink:title=" ">
<polygon fill="white" stroke="black" points="135,-228.5 135,-247.5 207,-247.5 207,-228.5 135,-228.5"/>
<text text-anchor="middle" x="171" y="-235.5" font-family="Helvetica,sans-Serif" font-size="10.00">changeSize</text>
</a>
</g>
</g>
<!-- Node1&#45;&gt;Node2 -->
<g id="edge1" class="edge">
<title>Node1&#45;&gt;Node2</title>
<path fill="none" stroke="midnightblue" d="M42.88,-152.7C53.99,-168.84 78.45,-201.18 107,-219 112.53,-222.45 118.73,-225.31 125.02,-227.67"/>
<polygon fill="midnightblue" stroke="midnightblue" points="124.31,-231.12 134.91,-230.97 126.53,-224.48 124.31,-231.12"/>
</g>
<!-- Node3 -->
<g id="node3" class="node">
<title>Node3</title>
<g id="a_node3"><a xlink:href="group__input.html#gac7632fff72011e8c11ae504a4596a7f7" target="_top" xlink:title=" ">
<polygon fill="white" stroke="black" points="129,-152.5 129,-171.5 213,-171.5 213,-152.5 129,-152.5"/>
<text text-anchor="middle" x="171" y="-159.5" font-family="Helvetica,sans-Serif" font-size="10.00">keyboardFunc</text>
</a>
</g>
</g>
<!-- Node1&#45;&gt;Node3 -->
<g id="edge2" class="edge">
<title>Node1&#45;&gt;Node3</title>
<path fill="none" stroke="midnightblue" d="M71.23,-147.94C85.68,-150 102.75,-152.43 118.6,-154.68"/>
<polygon fill="midnightblue" stroke="midnightblue" points="118.41,-158.19 128.8,-156.14 119.4,-151.26 118.41,-158.19"/>
</g>
<!-- Node7 -->
<g id="node7" class="node">
<title>Node7</title>
<g id="a_node7"><a xlink:href="group__input.html#ga2bebb17428cb218231ad556de2a20ed6" target="_top" xlink:title=" ">
<polygon fill="white" stroke="black" points="134,-76.5 134,-95.5 208,-95.5 208,-76.5 134,-76.5"/>
<text text-anchor="middle" x="171" y="-83.5" font-family="Helvetica,sans-Serif" font-size="10.00">motionFunc</text>
</a>
</g>
</g>
<!-- Node1&#45;&gt;Node7 -->
<g id="edge6" class="edge">
<title>Node1&#45;&gt;Node7</title>
<path fill="none" stroke="midnightblue" d="M52.01,-133.46C66.01,-125.14 87.35,-113.16 107,-105 112.47,-102.73 118.32,-100.59 124.16,-98.64"/>
<polygon fill="midnightblue" stroke="midnightblue" points="125.45,-101.9 133.91,-95.52 123.32,-95.23 125.45,-101.9"/>
</g>
<!-- Node8 -->
<g id="node8" class="node">
<title>Node8</title>
<g id="a_node8"><a xlink:href="group__input.html#gad48076b61c0ddb6bd4fadf644bf59ff1" target="_top" xlink:title=" ">
<polygon fill="white" stroke="black" points="135,-38.5 135,-57.5 207,-57.5 207,-38.5 135,-38.5"/>
<text text-anchor="middle" x="171" y="-45.5" font-family="Helvetica,sans-Serif" font-size="10.00">mouseFunc</text>
</a>
</g>
</g>
<!-- Node1&#45;&gt;Node8 -->
<g id="edge8" class="edge">
<title>Node1&#45;&gt;Node8</title>
<path fill="none" stroke="midnightblue" d="M42.88,-133.3C53.99,-117.16 78.45,-84.82 107,-67 112.53,-63.55 118.73,-60.69 125.02,-58.33"/>
<polygon fill="midnightblue" stroke="midnightblue" points="126.53,-61.52 134.91,-55.03 124.31,-54.88 126.53,-61.52"/>
</g>
<!-- Node9 -->
<g id="node9" class="node">
<title>Node9</title>
<g id="a_node9"><a xlink:href="group__engine.html#ga91c42686f3245f22fb6b17ba5372d92c" target="_top" xlink:title=" ">
<polygon fill="white" stroke="black" points="132.5,-114.5 132.5,-133.5 209.5,-133.5 209.5,-114.5 132.5,-114.5"/>
<text text-anchor="middle" x="171" y="-121.5" font-family="Helvetica,sans-Serif" font-size="10.00">renderScene</text>
</a>
</g>
</g>
<!-- Node1&#45;&gt;Node9 -->
<g id="edge10" class="edge">
<title>Node1&#45;&gt;Node9</title>
<path fill="none" stroke="midnightblue" d="M71.23,-138.06C86.71,-135.85 105.2,-133.22 121.98,-130.83"/>
<polygon fill="midnightblue" stroke="midnightblue" points="122.76,-134.26 132.16,-129.38 121.77,-127.33 122.76,-134.26"/>
</g>
<!-- Node23 -->
<g id="node23" class="node">
<title>Node23</title>
<g id="a_node23"><a xlink:href="group__engine.html#ga2b6a8884687b3fe271b099a450a82d24" target="_top" xlink:title=" ">
<polygon fill="white" stroke="black" points="107,-190.5 107,-209.5 235,-209.5 235,-190.5 107,-190.5"/>
<text text-anchor="middle" x="171" y="-197.5" font-family="Helvetica,sans-Serif" font-size="10.00">xml_load_and_set_env</text>
</a>
</g>
</g>
<!-- Node1&#45;&gt;Node23 -->
<g id="edge26" class="edge">
<title>Node1&#45;&gt;Node23</title>
<path fill="none" stroke="midnightblue" d="M52.01,-152.54C66.01,-160.86 87.35,-172.84 107,-181 112.47,-183.27 118.32,-185.41 124.16,-187.36"/>
<polygon fill="midnightblue" stroke="midnightblue" points="123.32,-190.77 133.91,-190.48 125.45,-184.1 123.32,-190.77"/>
</g>
<!-- Node4 -->
<g id="node4" class="node">
<title>Node4</title>
<g id="a_node4"><a xlink:href="group__engine.html#ga8679d9b303f36964bf51dba0993caeaa" target="_top" xlink:title=" ">
<polygon fill="white" stroke="black" points="277.5,-190.5 277.5,-209.5 383.5,-209.5 383.5,-190.5 277.5,-190.5"/>
<text text-anchor="middle" x="330.5" y="-197.5" font-family="Helvetica,sans-Serif" font-size="10.00">env_load_defaults</text>
</a>
</g>
</g>
<!-- Node3&#45;&gt;Node4 -->
<g id="edge3" class="edge">
<title>Node3&#45;&gt;Node4</title>
<path fill="none" stroke="midnightblue" d="M211.74,-171.59C232.53,-176.6 258.16,-182.79 280.2,-188.11"/>
<polygon fill="midnightblue" stroke="midnightblue" points="279.5,-191.54 290.04,-190.48 281.14,-184.73 279.5,-191.54"/>
</g>
<!-- Node5 -->
<g id="node5" class="node">
<title>Node5</title>
<g id="a_node5"><a xlink:href="group__engine.html#gab9813926390dc5773baf0b20dc2ea16e" target="_top" xlink:title=" ">
<polygon fill="white" stroke="black" points="299.5,-76.5 299.5,-95.5 361.5,-95.5 361.5,-76.5 299.5,-76.5"/>
<text text-anchor="middle" x="330.5" y="-83.5" font-family="Helvetica,sans-Serif" font-size="10.00">redisplay</text>
</a>
</g>
</g>
<!-- Node3&#45;&gt;Node5 -->
<g id="edge4" class="edge">
<title>Node3&#45;&gt;Node5</title>
<path fill="none" stroke="midnightblue" d="M213.33,-152.91C220.84,-150.33 228.39,-147.08 235,-143 254.8,-130.79 251.33,-117.42 271,-105 276.76,-101.36 283.29,-98.36 289.84,-95.89"/>
<polygon fill="midnightblue" stroke="midnightblue" points="291.02,-99.19 299.37,-92.67 288.77,-92.56 291.02,-99.19"/>
</g>
<!-- Node6 -->
<g id="node6" class="node">
<title>Node6</title>
<g id="a_node6"><a xlink:href="group__spherical.html#gab5ff5216bffd1e15798677f24213213d" target="_top" xlink:title=" ">
<polygon fill="white" stroke="black" points="437,-0.5 437,-19.5 550,-19.5 550,-0.5 437,-0.5"/>
<text text-anchor="middle" x="493.5" y="-7.5" font-family="Helvetica,sans-Serif" font-size="10.00">spherical2Cartesian</text>
</a>
</g>
</g>
<!-- Node5&#45;&gt;Node6 -->
<g id="edge5" class="edge">
<title>Node5&#45;&gt;Node6</title>
<path fill="none" stroke="midnightblue" d="M344.97,-76.3C362.76,-63.86 395.43,-42.3 426,-29 431.36,-26.67 437.09,-24.53 442.85,-22.61"/>
<polygon fill="midnightblue" stroke="midnightblue" points="444.02,-25.91 452.51,-19.57 441.92,-19.23 444.02,-25.91"/>
</g>
<!-- Node7&#45;&gt;Node5 -->
<g id="edge7" class="edge">
<title>Node7&#45;&gt;Node5</title>
<path fill="none" stroke="midnightblue" d="M208.13,-86C232.29,-86 264.11,-86 289.1,-86"/>
<polygon fill="midnightblue" stroke="midnightblue" points="289.35,-89.5 299.35,-86 289.35,-82.5 289.35,-89.5"/>
</g>
<!-- Node8&#45;&gt;Node5 -->
<g id="edge9" class="edge">
<title>Node8&#45;&gt;Node5</title>
<path fill="none" stroke="midnightblue" d="M207.35,-56.53C231.66,-62.39 264,-70.2 289.29,-76.3"/>
<polygon fill="midnightblue" stroke="midnightblue" points="288.77,-79.77 299.31,-78.72 290.41,-72.97 288.77,-79.77"/>
</g>
<!-- Node9&#45;&gt;Node5 -->
<g id="edge25" class="edge">
<title>Node9&#45;&gt;Node5</title>
<path fill="none" stroke="midnightblue" d="M209.73,-114.9C233.88,-109.07 265.18,-101.52 289.73,-95.6"/>
<polygon fill="midnightblue" stroke="midnightblue" points="290.55,-99 299.45,-93.25 288.91,-92.19 290.55,-99"/>
</g>
<!-- Node10 -->
<g id="node10" class="node">
<title>Node10</title>
<g id="a_node10"><a xlink:href="engine_8cpp.html#a634dba686e70e7ff3f10c37d11f463da" target="_top" xlink:title=" ">
<polygon fill="white" stroke="black" points="296,-114.5 296,-133.5 365,-133.5 365,-114.5 296,-114.5"/>
<text text-anchor="middle" x="330.5" y="-121.5" font-family="Helvetica,sans-Serif" font-size="10.00">draw_axes</text>
</a>
</g>
</g>
<!-- Node9&#45;&gt;Node10 -->
<g id="edge11" class="edge">
<title>Node9&#45;&gt;Node10</title>
<path fill="none" stroke="midnightblue" d="M209.73,-124C232.56,-124 261.77,-124 285.63,-124"/>
<polygon fill="midnightblue" stroke="midnightblue" points="285.83,-127.5 295.83,-124 285.83,-120.5 285.83,-127.5"/>
</g>
<!-- Node11 -->
<g id="node11" class="node">
<title>Node11</title>
<g id="a_node11"><a xlink:href="group___operations.html#ga887f20c10a27832ea24178203a47fcc2" target="_top" xlink:title=" ">
<polygon fill="white" stroke="black" points="278,-152.5 278,-171.5 383,-171.5 383,-152.5 278,-152.5"/>
<text text-anchor="middle" x="330.5" y="-159.5" font-family="Helvetica,sans-Serif" font-size="10.00">operations_render</text>
</a>
</g>
</g>
<!-- Node9&#45;&gt;Node11 -->
<g id="edge12" class="edge">
<title>Node9&#45;&gt;Node11</title>
<path fill="none" stroke="midnightblue" d="M209.73,-133.1C230.81,-138.19 257.34,-144.59 280.07,-150.07"/>
<polygon fill="midnightblue" stroke="midnightblue" points="279.34,-153.5 289.88,-152.44 280.98,-146.69 279.34,-153.5"/>
</g>
<!-- Node12 -->
<g id="node12" class="node">
<title>Node12</title>
<g id="a_node12"><a xlink:href="curves_8cpp.html#af213e79ca700e91ea886085a4149a848" target="_top" xlink:title=" ">
<polygon fill="white" stroke="black" points="441.5,-228.5 441.5,-247.5 545.5,-247.5 545.5,-228.5 441.5,-228.5"/>
<text text-anchor="middle" x="493.5" y="-235.5" font-family="Helvetica,sans-Serif" font-size="10.00">advance_in_curve</text>
</a>
</g>
</g>
<!-- Node11&#45;&gt;Node12 -->
<g id="edge13" class="edge">
<title>Node11&#45;&gt;Node12</title>
<path fill="none" stroke="midnightblue" d="M370.18,-171.53C377.06,-174.06 383.95,-177.18 390,-181 409.67,-193.42 406.11,-206.93 426,-219 429.58,-221.17 433.42,-223.11 437.38,-224.82"/>
<polygon fill="midnightblue" stroke="midnightblue" points="436.19,-228.12 446.78,-228.46 438.71,-221.59 436.19,-228.12"/>
</g>
<!-- Node17 -->
<g id="node17" class="node">
<title>Node17</title>
<g id="a_node17"><a xlink:href="engine_8cpp.html#a072c434cfd125e58ac1cec9a5725688a" target="_top" xlink:title=" ">
<polygon fill="white" stroke="black" points="435.5,-190.5 435.5,-209.5 551.5,-209.5 551.5,-190.5 435.5,-190.5"/>
<text text-anchor="middle" x="493.5" y="-197.5" font-family="Helvetica,sans-Serif" font-size="10.00">advance_in_rotation</text>
</a>
</g>
</g>
<!-- Node11&#45;&gt;Node17 -->
<g id="edge18" class="edge">
<title>Node11&#45;&gt;Node17</title>
<path fill="none" stroke="midnightblue" d="M372.13,-171.59C393.47,-176.63 419.81,-182.84 442.41,-188.18"/>
<polygon fill="midnightblue" stroke="midnightblue" points="441.63,-191.59 452.17,-190.48 443.24,-184.78 441.63,-191.59"/>
</g>
<!-- Node18 -->
<g id="node18" class="node">
<title>Node18</title>
<g id="a_node18"><a xlink:href="group__model_engine.html#ga56beba311d0a6fcbda9aeb516fe67f8f" target="_top" xlink:title=" ">
<polygon fill="white" stroke="black" points="458.5,-152.5 458.5,-171.5 528.5,-171.5 528.5,-152.5 458.5,-152.5"/>
<text text-anchor="middle" x="493.5" y="-159.5" font-family="Helvetica,sans-Serif" font-size="10.00">allocModel</text>
</a>
</g>
</g>
<!-- Node11&#45;&gt;Node18 -->
<g id="edge19" class="edge">
<title>Node11&#45;&gt;Node18</title>
<path fill="none" stroke="midnightblue" d="M383.33,-162C404.15,-162 427.92,-162 447.95,-162"/>
<polygon fill="midnightblue" stroke="midnightblue" points="448.04,-165.5 458.04,-162 448.04,-158.5 448.04,-165.5"/>
</g>
<!-- Node19 -->
<g id="node19" class="node">
<title>Node19</title>
<g id="a_node19"><a xlink:href="group__spherical.html#ga2a22d15f7463ccd8f8d1aa65e7578983" target="_top" xlink:title=" ">
<polygon fill="white" stroke="black" points="437,-114.5 437,-133.5 550,-133.5 550,-114.5 437,-114.5"/>
<text text-anchor="middle" x="493.5" y="-121.5" font-family="Helvetica,sans-Serif" font-size="10.00">cartesian2Spherical</text>
</a>
</g>
</g>
<!-- Node11&#45;&gt;Node19 -->
<g id="edge20" class="edge">
<title>Node11&#45;&gt;Node19</title>
<path fill="none" stroke="midnightblue" d="M372.13,-152.41C393.47,-147.37 419.81,-141.16 442.41,-135.82"/>
<polygon fill="midnightblue" stroke="midnightblue" points="443.24,-139.22 452.17,-133.52 441.63,-132.41 443.24,-139.22"/>
</g>
<!-- Node20 -->
<g id="node20" class="node">
<title>Node20</title>
<g id="a_node20"><a xlink:href="curves_8cpp.html#ad812fc50a0384335487e258a6f61714e" target="_top" xlink:title=" ">
<polygon fill="white" stroke="black" points="636,-266.5 636,-285.5 713,-285.5 713,-266.5 636,-266.5"/>
<text text-anchor="middle" x="674.5" y="-273.5" font-family="Helvetica,sans-Serif" font-size="10.00">renderCurve</text>
</a>
</g>
</g>
<!-- Node11&#45;&gt;Node20 -->
<g id="edge21" class="edge">
<title>Node11&#45;&gt;Node20</title>
<path fill="none" stroke="midnightblue" d="M374.9,-171.57C380.37,-174.03 385.59,-177.12 390,-181 418.07,-205.68 395.21,-235.82 426,-257 485.21,-297.73 572.3,-293.46 625.82,-285.53"/>
<polygon fill="midnightblue" stroke="midnightblue" points="626.4,-288.98 635.73,-283.96 625.31,-282.07 626.4,-288.98"/>
</g>
<!-- Node21 -->
<g id="node21" class="node">
<title>Node21</title>
<g id="a_node21"><a xlink:href="group__model_engine.html#gae7de75a0850ac9069b4a3710b63a102c" target="_top" xlink:title=" ">
<polygon fill="white" stroke="black" points="454.5,-76.5 454.5,-95.5 532.5,-95.5 532.5,-76.5 454.5,-76.5"/>
<text text-anchor="middle" x="493.5" y="-83.5" font-family="Helvetica,sans-Serif" font-size="10.00">renderModel</text>
</a>
</g>
</g>
<!-- Node11&#45;&gt;Node21 -->
<g id="edge23" class="edge">
<title>Node11&#45;&gt;Node21</title>
<path fill="none" stroke="midnightblue" d="M370.18,-152.47C377.06,-149.94 383.95,-146.82 390,-143 409.67,-130.58 406.11,-117.07 426,-105 431.79,-101.48 438.26,-98.6 444.83,-96.23"/>
<polygon fill="midnightblue" stroke="midnightblue" points="446.02,-99.52 454.46,-93.12 443.87,-92.86 446.02,-99.52"/>
</g>
<!-- Node22 -->
<g id="node22" class="node">
<title>Node22</title>
<g id="a_node22"><a xlink:href="group__engine.html#ga260fbd3d70764684657bbf1a617ddf99" target="_top" xlink:title=" ">
<polygon fill="white" stroke="black" points="456.5,-38.5 456.5,-57.5 530.5,-57.5 530.5,-38.5 456.5,-38.5"/>
<text text-anchor="middle" x="493.5" y="-45.5" font-family="Helvetica,sans-Serif" font-size="10.00">vbo_indices</text>
</a>
</g>
</g>
<!-- Node11&#45;&gt;Node22 -->
<g id="edge24" class="edge">
<title>Node11&#45;&gt;Node22</title>
<path fill="none" stroke="midnightblue" d="M374.9,-152.43C380.37,-149.97 385.59,-146.88 390,-143 418.07,-118.32 397.49,-91.17 426,-67 431.92,-61.98 439.09,-58.28 446.51,-55.56"/>
<polygon fill="midnightblue" stroke="midnightblue" points="447.8,-58.82 456.31,-52.52 445.72,-52.14 447.8,-58.82"/>
</g>
<!-- Node13 -->
<g id="node13" class="node">
<title>Node13</title>
<g id="a_node13"><a xlink:href="curves_8cpp.html#aca4aaefe66ab2cbc9d44054ab8929c0d" target="_top" xlink:title=" ">
<polygon fill="white" stroke="black" points="613,-228.5 613,-247.5 736,-247.5 736,-228.5 613,-228.5"/>
<text text-anchor="middle" x="674.5" y="-235.5" font-family="Helvetica,sans-Serif" font-size="10.00">align_global_pos_mat</text>
</a>
</g>
</g>
<!-- Node12&#45;&gt;Node13 -->
<g id="edge14" class="edge">
<title>Node12&#45;&gt;Node13</title>
<path fill="none" stroke="midnightblue" d="M545.79,-238C563.48,-238 583.62,-238 602.6,-238"/>
<polygon fill="midnightblue" stroke="midnightblue" points="602.69,-241.5 612.69,-238 602.69,-234.5 602.69,-241.5"/>
</g>
<!-- Node14 -->
<g id="node14" class="node">
<title>Node14</title>
<g id="a_node14"><a xlink:href="curves_8cpp.html#abe9fa1f2a311f275f92f5b46fb2f8490" target="_top" xlink:title=" ">
<polygon fill="white" stroke="black" points="810.5,-247.5 810.5,-266.5 940.5,-266.5 940.5,-247.5 810.5,-247.5"/>
<text text-anchor="middle" x="875.5" y="-254.5" font-family="Helvetica,sans-Serif" font-size="10.00">get_curve_global_point</text>
</a>
</g>
</g>
<!-- Node13&#45;&gt;Node14 -->
<g id="edge15" class="edge">
<title>Node13&#45;&gt;Node14</title>
<path fill="none" stroke="midnightblue" d="M736.02,-243.78C756.26,-245.71 779.06,-247.89 800.23,-249.91"/>
<polygon fill="midnightblue" stroke="midnightblue" points="800.19,-253.42 810.47,-250.89 800.85,-246.45 800.19,-253.42"/>
</g>
<!-- Node15 -->
<g id="node15" class="node">
<title>Node15</title>
<g id="a_node15"><a xlink:href="curves_8cpp.html#af68f8da25ecf53c589aa5d47f1f8e164" target="_top" xlink:title=" ">
<polygon fill="white" stroke="black" points="1040.5,-257.5 1040.5,-276.5 1105.5,-276.5 1105.5,-257.5 1040.5,-257.5"/>
<text text-anchor="middle" x="1073" y="-264.5" font-family="Helvetica,sans-Serif" font-size="10.00">get_curve</text>
</a>
</g>
</g>
<!-- Node14&#45;&gt;Node15 -->
<g id="edge16" class="edge">
<title>Node14&#45;&gt;Node15</title>
<path fill="none" stroke="midnightblue" d="M940.51,-260.27C969.97,-261.78 1004.09,-263.53 1030.19,-264.86"/>
<polygon fill="midnightblue" stroke="midnightblue" points="1030.33,-268.37 1040.49,-265.39 1030.68,-261.38 1030.33,-268.37"/>
</g>
<!-- Node16 -->
<g id="node16" class="node">
<title>Node16</title>
<g id="a_node16"><a xlink:href="curves_8cpp.html#afa648d7de8c941b50b26f02755a955b9" target="_top" xlink:title=" ">
<polygon fill="white" stroke="black" points="1028.5,-219.5 1028.5,-238.5 1117.5,-238.5 1117.5,-219.5 1028.5,-219.5"/>
<text text-anchor="middle" x="1073" y="-226.5" font-family="Helvetica,sans-Serif" font-size="10.00">get_curve_info</text>
</a>
</g>
</g>
<!-- Node14&#45;&gt;Node16 -->
<g id="edge17" class="edge">
<title>Node14&#45;&gt;Node16</title>
<path fill="none" stroke="midnightblue" d="M940.51,-247.83C965.65,-244.23 994.19,-240.14 1018.23,-236.7"/>
<polygon fill="midnightblue" stroke="midnightblue" points="1018.84,-240.15 1028.24,-235.27 1017.84,-233.22 1018.84,-240.15"/>
</g>
<!-- Node20&#45;&gt;Node14 -->
<g id="edge22" class="edge">
<title>Node20&#45;&gt;Node14</title>
<path fill="none" stroke="midnightblue" d="M713.4,-272.38C737.81,-270.05 770.38,-266.94 799.84,-264.13"/>
<polygon fill="midnightblue" stroke="midnightblue" points="800.49,-267.58 810.12,-263.15 799.83,-260.61 800.49,-267.58"/>
</g>
<!-- Node23&#45;&gt;Node4 -->
<g id="edge27" class="edge">
<title>Node23&#45;&gt;Node4</title>
<path fill="none" stroke="midnightblue" d="M235.15,-200C245.79,-200 256.82,-200 267.43,-200"/>
<polygon fill="midnightblue" stroke="midnightblue" points="267.44,-203.5 277.44,-200 267.44,-196.5 267.44,-203.5"/>
</g>
<!-- Node23&#45;&gt;Node11 -->
<g id="edge39" class="edge">
<title>Node23&#45;&gt;Node11</title>
<path fill="none" stroke="midnightblue" d="M211.74,-190.41C232.53,-185.4 258.16,-179.21 280.2,-173.89"/>
<polygon fill="midnightblue" stroke="midnightblue" points="281.14,-177.27 290.04,-171.52 279.5,-170.46 281.14,-177.27"/>
</g>
<!-- Node24 -->
<g id="node24" class="node">
<title>Node24</title>
<g id="a_node24"><a xlink:href="group__xml.html#gac937a83a82258806ef77b02f97ef0834" target="_top" xlink:title=" ">
<polygon fill="white" stroke="black" points="271,-304.5 271,-323.5 390,-323.5 390,-304.5 271,-304.5"/>
<text text-anchor="middle" x="330.5" y="-311.5" font-family="Helvetica,sans-Serif" font-size="10.00">operations_load_xml</text>
</a>
</g>
</g>
<!-- Node23&#45;&gt;Node24 -->
<g id="edge28" class="edge">
<title>Node23&#45;&gt;Node24</title>
<path fill="none" stroke="midnightblue" d="M214.24,-209.57C221.44,-212.07 228.63,-215.18 235,-219 269.04,-239.42 299.68,-274.82 316.34,-296.16"/>
<polygon fill="midnightblue" stroke="midnightblue" points="313.74,-298.53 322.59,-304.36 319.31,-294.29 313.74,-298.53"/>
</g>
<!-- Node25 -->
<g id="node25" class="node">
<title>Node25</title>
<g id="a_node25"><a xlink:href="group___groups.html#ga72c2d5ef943a89f829c08f6707e7669d" target="_top" xlink:title=" ">
<polygon fill="white" stroke="black" points="426,-342.5 426,-361.5 561,-361.5 561,-342.5 426,-342.5"/>
<text text-anchor="middle" x="493.5" y="-349.5" font-family="Helvetica,sans-Serif" font-size="10.00">operations_push_groups</text>
</a>
</g>
</g>
<!-- Node24&#45;&gt;Node25 -->
<g id="edge29" class="edge">
<title>Node24&#45;&gt;Node25</title>
<path fill="none" stroke="midnightblue" d="M372.13,-323.59C393.47,-328.63 419.81,-334.84 442.41,-340.18"/>
<polygon fill="midnightblue" stroke="midnightblue" points="441.63,-343.59 452.17,-342.48 443.24,-336.78 441.63,-343.59"/>
</g>
<!-- Node31 -->
<g id="node31" class="node">
<title>Node31</title>
<g id="a_node31"><a xlink:href="group___transforms.html#gaa15fe56d7980e7877845f3bc09125017" target="_top" xlink:title=" ">
<polygon fill="white" stroke="black" points="1183,-343 1183,-373 1333,-373 1333,-343 1183,-343"/>
<text text-anchor="start" x="1191" y="-361" font-family="Helvetica,sans-Serif" font-size="10.00">operations_push_transform</text>
<text text-anchor="middle" x="1258" y="-350" font-family="Helvetica,sans-Serif" font-size="10.00">_attributes</text>
</a>
</g>
</g>
<!-- Node24&#45;&gt;Node31 -->
<g id="edge38" class="edge">
<title>Node24&#45;&gt;Node31</title>
<path fill="none" stroke="midnightblue" d="M390.2,-314C458.33,-314 574.05,-314 673.5,-314 673.5,-314 673.5,-314 876.5,-314 997.02,-314 1027.78,-315.37 1147,-333 1160.56,-335.01 1174.93,-337.78 1188.66,-340.76"/>
<polygon fill="midnightblue" stroke="midnightblue" points="1187.99,-344.2 1198.51,-342.96 1189.51,-337.37 1187.99,-344.2"/>
</g>
<!-- Node25&#45;&gt;Node25 -->
<g id="edge30" class="edge">
<title>Node25&#45;&gt;Node25</title>
<path fill="none" stroke="midnightblue" d="M468.53,-361.76C456.38,-370.57 464.71,-380 493.5,-380 512.85,-380 522.95,-375.74 523.81,-370.27"/>
<polygon fill="midnightblue" stroke="midnightblue" points="526.75,-368.37 518.47,-361.76 520.82,-372.09 526.75,-368.37"/>
</g>
<!-- Node26 -->
<g id="node26" class="node">
<title>Node26</title>
<g id="a_node26"><a xlink:href="group___models.html#gaca17d77a06e750f5cd95c1b79e1a8a30" target="_top" xlink:title=" ">
<polygon fill="white" stroke="black" points="605.5,-342.5 605.5,-361.5 743.5,-361.5 743.5,-342.5 605.5,-342.5"/>
<text text-anchor="middle" x="674.5" y="-349.5" font-family="Helvetica,sans-Serif" font-size="10.00">operations_push_models</text>
</a>
</g>
</g>
<!-- Node25&#45;&gt;Node26 -->
<g id="edge31" class="edge">
<title>Node25&#45;&gt;Node26</title>
<path fill="none" stroke="midnightblue" d="M561.15,-352C572.19,-352 583.72,-352 595.01,-352"/>
<polygon fill="midnightblue" stroke="midnightblue" points="595.3,-355.5 605.3,-352 595.3,-348.5 595.3,-355.5"/>
</g>
<!-- Node28 -->
<g id="node28" class="node">
<title>Node28</title>
<g id="a_node28"><a xlink:href="group___transforms.html#gaaa78b92f0257bb4755731622692de0cb" target="_top" xlink:title=" ">
<polygon fill="white" stroke="black" points="597,-380.5 597,-399.5 752,-399.5 752,-380.5 597,-380.5"/>
<text text-anchor="middle" x="674.5" y="-387.5" font-family="Helvetica,sans-Serif" font-size="10.00">operations_push_transforms</text>
</a>
</g>
</g>
<!-- Node25&#45;&gt;Node28 -->
<g id="edge33" class="edge">
<title>Node25&#45;&gt;Node28</title>
<path fill="none" stroke="midnightblue" d="M539.67,-361.59C563.72,-366.69 593.47,-373.01 618.82,-378.39"/>
<polygon fill="midnightblue" stroke="midnightblue" points="618.15,-381.83 628.66,-380.48 619.6,-374.98 618.15,-381.83"/>
</g>
<!-- Node27 -->
<g id="node27" class="node">
<title>Node27</title>
<g id="a_node27"><a xlink:href="group___models.html#ga5dc84f3f40c0bb6ad63dc2da3793ddd9" target="_top" xlink:title=" ">
<polygon fill="white" stroke="black" points="809,-342.5 809,-361.5 942,-361.5 942,-342.5 809,-342.5"/>
<text text-anchor="middle" x="875.5" y="-349.5" font-family="Helvetica,sans-Serif" font-size="10.00">operations_push_model</text>
</a>
</g>
</g>
<!-- Node26&#45;&gt;Node27 -->
<g id="edge32" class="edge">
<title>Node26&#45;&gt;Node27</title>
<path fill="none" stroke="midnightblue" d="M743.71,-352C761.38,-352 780.51,-352 798.55,-352"/>
<polygon fill="midnightblue" stroke="midnightblue" points="798.74,-355.5 808.74,-352 798.74,-348.5 798.74,-355.5"/>
</g>
<!-- Node29 -->
<g id="node29" class="node">
<title>Node29</title>
<g id="a_node29"><a xlink:href="group___transforms.html#ga3ceb952cabab7fc6918d4a676d53508d" target="_top" xlink:title=" ">
<polygon fill="white" stroke="black" points="788,-380.5 788,-399.5 963,-399.5 963,-380.5 788,-380.5"/>
<text text-anchor="middle" x="875.5" y="-387.5" font-family="Helvetica,sans-Serif" font-size="10.00">operations_push_transformation</text>
</a>
</g>
</g>
<!-- Node28&#45;&gt;Node29 -->
<g id="edge34" class="edge">
<title>Node28&#45;&gt;Node29</title>
<path fill="none" stroke="midnightblue" d="M752.15,-390C760.57,-390 769.23,-390 777.85,-390"/>
<polygon fill="midnightblue" stroke="midnightblue" points="777.94,-393.5 787.94,-390 777.94,-386.5 777.94,-393.5"/>
</g>
<!-- Node30 -->
<g id="node30" class="node">
<title>Node30</title>
<g id="a_node30"><a xlink:href="group___transforms.html#ga5078bb9f7411d7f9f26c535a52ae7c6b" target="_top" xlink:title=" ">
<polygon fill="white" stroke="black" points="999,-343 999,-373 1147,-373 1147,-343 999,-343"/>
<text text-anchor="start" x="1007" y="-361" font-family="Helvetica,sans-Serif" font-size="10.00">operations_push_extended</text>
<text text-anchor="middle" x="1073" y="-350" font-family="Helvetica,sans-Serif" font-size="10.00">_translate_attributes</text>
</a>
</g>
</g>
<!-- Node29&#45;&gt;Node30 -->
<g id="edge35" class="edge">
<title>Node29&#45;&gt;Node30</title>
<path fill="none" stroke="midnightblue" d="M934.63,-380.49C951.63,-377.7 970.55,-374.61 988.78,-371.62"/>
<polygon fill="midnightblue" stroke="midnightblue" points="989.52,-375.05 998.83,-369.98 988.39,-368.14 989.52,-375.05"/>
</g>
<!-- Node29&#45;&gt;Node31 -->
<g id="edge37" class="edge">
<title>Node29&#45;&gt;Node31</title>
<path fill="none" stroke="midnightblue" d="M963.02,-392.1C1016.27,-392.31 1085.82,-390.67 1147,-383 1161.37,-381.2 1176.61,-378.35 1191.03,-375.22"/>
<polygon fill="midnightblue" stroke="midnightblue" points="1191.87,-378.62 1200.85,-373.01 1190.33,-371.79 1191.87,-378.62"/>
</g>
<!-- Node30&#45;&gt;Node31 -->
<g id="edge36" class="edge">
<title>Node30&#45;&gt;Node31</title>
<path fill="none" stroke="midnightblue" d="M1147.12,-358C1155.56,-358 1164.22,-358 1172.8,-358"/>
<polygon fill="midnightblue" stroke="midnightblue" points="1172.8,-361.5 1182.8,-358 1172.8,-354.5 1172.8,-361.5"/>
</g>
</g>
</svg>
        <g id="navigator" transform="translate(0 0)" fill="#404254">
                <rect fill="#f2f5e9" fill-opacity="0.5" stroke="#606060" stroke-width=".5" x="0" y="0" width="60" height="60"/>
                <use id="zoomplus" xlink:href="#zoomPlus" x="17" y="9" onmousedown="handleZoom(evt,'in')"/>
                <use id="zoomminus" xlink:href="#zoomMin" x="42" y="9" onmousedown="handleZoom(evt,'out')"/>
                <use id="reset" xlink:href="#resetDef" x="30" y="36" onmousedown="handleReset()"/>
                <g id="arrowUp" xlink:href="#dirArrow" transform="translate(30 24)" onmousedown="handlePan(0,-1)">
                  <use xlink:href="#rim" fill="#404040">
                        <set attributeName="fill" to="#808080" begin="arrowUp.mouseover" end="arrowUp.mouseout"/>
                  </use>
                  <path fill="none" stroke="white" stroke-width="1.5" d="M0,-3.0v7 M-2.5,-0.5L0,-3.0L2.5,-0.5"/>
                </g>
                <g id="arrowRight" xlink:href="#dirArrow" transform="rotate(90) translate(36 -43)" onmousedown="handlePan(1,0)">
                  <use xlink:href="#rim" fill="#404040">
                        <set attributeName="fill" to="#808080" begin="arrowRight.mouseover" end="arrowRight.mouseout"/>
                  </use>
                  <path fill="none" stroke="white" stroke-width="1.5" d="M0,-3.0v7 M-2.5,-0.5L0,-3.0L2.5,-0.5"/>
                </g>
                <g id="arrowDown" xlink:href="#dirArrow" transform="rotate(180) translate(-30 -48)" onmousedown="handlePan(0,1)">
                  <use xlink:href="#rim" fill="#404040">
                        <set attributeName="fill" to="#808080" begin="arrowDown.mouseover" end="arrowDown.mouseout"/>
                  </use>
                  <path fill="none" stroke="white" stroke-width="1.5" d="M0,-3.0v7 M-2.5,-0.5L0,-3.0L2.5,-0.5"/>
                </g>
                <g id="arrowLeft" xlink:href="#dirArrow" transform="rotate(270) translate(-36 17)" onmousedown="handlePan(-1,0)">
                  <use xlink:href="#rim" fill="#404040">
                        <set attributeName="fill" to="#808080" begin="arrowLeft.mouseover" end="arrowLeft.mouseout"/>
                  </use>
                  <path fill="none" stroke="white" stroke-width="1.5" d="M0,-3.0v7 M-2.5,-0.5L0,-3.0L2.5,-0.5"/>
                </g>
        </g>
        <svg viewBox="0 0 15 15" width="100%" height="30px" preserveAspectRatio="xMaxYMin meet">
         <g id="arrow_out" transform="scale(0.3 0.3)">
          <a xlink:href="group__engine_ga98eaf946471acbd931de5d52ca83b3d1_cgraph_org.svg" target="_base">
           <rect id="button" ry="5" rx="5" y="6" x="6" height="38" width="38"
                fill="#f2f5e9" fill-opacity="0.5" stroke="#606060" stroke-width="1.0"/>
           <path id="arrow"
             d="M 11.500037,31.436501 C 11.940474,20.09759 22.043105,11.32322 32.158766,21.979434 L 37.068811,17.246167 C 37.068811,17.246167 37.088388,32 37.088388,32 L 22.160133,31.978069 C 22.160133,31.978069 26.997745,27.140456 26.997745,27.140456 C 18.528582,18.264221 13.291696,25.230495 11.500037,31.436501 z"
             style="fill:#404040;"/>
          </a>
         </g>
        </svg>
</svg>
