<?xml version="1.0" encoding="UTF-8" standalone="no"?>
<!DOCTYPE svg PUBLIC "-//W3C//DTD SVG 1.1//EN"
 "http://www.w3.org/Graphics/SVG/1.1/DTD/svg11.dtd">
<!-- Generated by graphviz version 3.0.0 (0)
 -->
<!-- Title: Camera Pages: 1 -->
<svg width="250pt" height="175pt"
 viewBox="0.00 0.00 250.00 175.00" xmlns="http://www.w3.org/2000/svg" xmlns:xlink="http://www.w3.org/1999/xlink">
<g id="graph0" class="graph" transform="scale(1 1) rotate(0) translate(4 171)">
<title>Camera</title>
<polygon fill="white" stroke="transparent" points="-4,4 -4,-171 246,-171 246,4 -4,4"/>
<!-- Node1 -->
<g id="node1" class="node">
<title>Node1</title>
<g id="a_node1"><a xlink:title=" ">
<polygon fill="#bfbfbf" stroke="black" points="141,-93 86,-93 86,-74 141,-74 141,-93"/>
<text text-anchor="middle" x="113.5" y="-81" font-family="Helvetica,sans-Serif" font-size="10.00">Camera</text>
</a>
</g>
</g>
<!-- Node4 -->
<g id="node3" class="node">
<title>Node4</title>
<g id="a_node3"><a xlink:href="group__look_at.html" target="_top" xlink:title=" ">
<polygon fill="white" stroke="black" points="234.5,-167 184.5,-167 184.5,-148 234.5,-148 234.5,-167"/>
<text text-anchor="middle" x="209.5" y="-155" font-family="Helvetica,sans-Serif" font-size="10.00">LookAt</text>
</a>
</g>
</g>
<!-- Node1&#45;&gt;Node4 -->
<g id="edge3" class="edge">
<title>Node1&#45;&gt;Node4</title>
<path fill="none" stroke="black" d="M131.32,-100.36C143.45,-112.06 160.52,-127.61 177,-139.5 181.09,-142.45 185.7,-145.31 190.1,-147.85"/>
<polygon fill="black" stroke="black" points="133.71,-97.81 124.12,-93.31 128.81,-102.81 133.71,-97.81"/>
</g>
<!-- Node3 -->
<g id="node4" class="node">
<title>Node3</title>
<g id="a_node4"><a xlink:href="group__position.html" target="_top" xlink:title=" ">
<polygon fill="white" stroke="black" points="237.5,-130 181.5,-130 181.5,-111 237.5,-111 237.5,-130"/>
<text text-anchor="middle" x="209.5" y="-118" font-family="Helvetica,sans-Serif" font-size="10.00">Position</text>
</a>
</g>
</g>
<!-- Node1&#45;&gt;Node3 -->
<g id="edge2" class="edge">
<title>Node1&#45;&gt;Node3</title>
<path fill="none" stroke="black" d="M148.28,-96.8C160.1,-101.45 173.14,-106.58 184.05,-110.88"/>
<polygon fill="black" stroke="black" points="149.29,-93.43 138.71,-93.03 146.73,-99.95 149.29,-93.43"/>
</g>
<!-- Node6 -->
<g id="node5" class="node">
<title>Node6</title>
<g id="a_node5"><a xlink:href="group__projection.html" target="_top" xlink:title=" ">
<polygon fill="white" stroke="black" points="242,-93 177,-93 177,-74 242,-74 242,-93"/>
<text text-anchor="middle" x="209.5" y="-81" font-family="Helvetica,sans-Serif" font-size="10.00">Projection</text>
</a>
</g>
</g>
<!-- Node1&#45;&gt;Node6 -->
<g id="edge5" class="edge">
<title>Node1&#45;&gt;Node6</title>
<path fill="none" stroke="black" d="M151.45,-83.5C159.82,-83.5 168.62,-83.5 176.75,-83.5"/>
<polygon fill="black" stroke="black" points="151.19,-80 141.19,-83.5 151.19,-87 151.19,-80"/>
</g>
<!-- Node7 -->
<g id="node6" class="node">
<title>Node7</title>
<g id="a_node6"><a xlink:href="group__spherical.html" target="_top" xlink:title=" ">
<polygon fill="white" stroke="black" points="240.5,-56 178.5,-56 178.5,-37 240.5,-37 240.5,-56"/>
<text text-anchor="middle" x="209.5" y="-44" font-family="Helvetica,sans-Serif" font-size="10.00">Spherical</text>
</a>
</g>
</g>
<!-- Node1&#45;&gt;Node7 -->
<g id="edge6" class="edge">
<title>Node1&#45;&gt;Node7</title>
<path fill="none" stroke="black" d="M148.28,-70.2C160.1,-65.55 173.14,-60.42 184.05,-56.12"/>
<polygon fill="black" stroke="black" points="146.73,-67.05 138.71,-73.97 149.29,-73.57 146.73,-67.05"/>
</g>
<!-- Node5 -->
<g id="node7" class="node">
<title>Node5</title>
<g id="a_node7"><a xlink:href="group__up.html" target="_top" xlink:title=" ">
<polygon fill="white" stroke="black" points="224.5,-19 194.5,-19 194.5,0 224.5,0 224.5,-19"/>
<text text-anchor="middle" x="209.5" y="-7" font-family="Helvetica,sans-Serif" font-size="10.00">Up</text>
</a>
</g>
</g>
<!-- Node1&#45;&gt;Node5 -->
<g id="edge4" class="edge">
<title>Node1&#45;&gt;Node5</title>
<path fill="none" stroke="black" d="M131.32,-66.64C143.45,-54.94 160.52,-39.39 177,-27.5 182.41,-23.59 188.75,-19.84 194.31,-16.77"/>
<polygon fill="black" stroke="black" points="128.81,-64.19 124.12,-73.69 133.71,-69.19 128.81,-64.19"/>
</g>
<!-- Node2 -->
<g id="node2" class="node">
<title>Node2</title>
<g id="a_node2"><a xlink:href="group__engine.html" target="_top" xlink:title=" ">
<polygon fill="white" stroke="black" points="50,-93 0,-93 0,-74 50,-74 50,-93"/>
<text text-anchor="middle" x="25" y="-81" font-family="Helvetica,sans-Serif" font-size="10.00">Engine</text>
</a>
</g>
</g>
<!-- Node2&#45;&gt;Node1 -->
<g id="edge1" class="edge">
<title>Node2&#45;&gt;Node1</title>
<path fill="none" stroke="black" d="M60.15,-83.5C68.68,-83.5 77.69,-83.5 85.8,-83.5"/>
<polygon fill="black" stroke="black" points="60.1,-80 50.1,-83.5 60.1,-87 60.1,-80"/>
</g>
</g>
</svg>
