<?xml version="1.0" encoding="UTF-8" standalone="no"?>
<!DOCTYPE svg PUBLIC "-//W3C//DTD SVG 1.1//EN"
 "http://www.w3.org/Graphics/SVG/1.1/DTD/svg11.dtd">
<!-- Generated by graphviz version 3.0.0 (0)
 -->
<!-- Title: render_pyramid Pages: 1 -->
<svg width="460pt" height="142pt"
 viewBox="0.00 0.00 460.00 142.00" xmlns="http://www.w3.org/2000/svg" xmlns:xlink="http://www.w3.org/1999/xlink">
<g id="graph0" class="graph" transform="scale(1 1) rotate(0) translate(4 138)">
<title>render_pyramid</title>
<polygon fill="white" stroke="transparent" points="-4,4 -4,-138 456,-138 456,4 -4,4"/>
<!-- Node1 -->
<g id="node1" class="node">
<title>Node1</title>
<g id="a_node1"><a xlink:title=" ">
<polygon fill="#bfbfbf" stroke="black" points="0,-57.5 0,-76.5 94,-76.5 94,-57.5 0,-57.5"/>
<text text-anchor="middle" x="47" y="-64.5" font-family="Helvetica,sans-Serif" font-size="10.00">render_pyramid</text>
</a>
</g>
</g>
<!-- Node2 -->
<g id="node2" class="node">
<title>Node2</title>
<g id="a_node2"><a xlink:href="main_8cpp.html#a33e20b37682a0492a9e95d13bef17f02" target="_top" xlink:title=" ">
<polygon fill="white" stroke="black" points="150.5,-114.5 150.5,-133.5 222.5,-133.5 222.5,-114.5 150.5,-114.5"/>
<text text-anchor="middle" x="186.5" y="-121.5" font-family="Helvetica,sans-Serif" font-size="10.00">changeSize</text>
</a>
</g>
</g>
<!-- Node1&#45;&gt;Node2 -->
<g id="edge1" class="edge">
<title>Node1&#45;&gt;Node2</title>
<path fill="none" stroke="midnightblue" d="M67.3,-76.64C83.76,-84.69 108.16,-96.23 130,-105 135.14,-107.06 140.6,-109.11 146.01,-111.05"/>
<polygon fill="midnightblue" stroke="midnightblue" points="145.03,-114.41 155.62,-114.41 147.34,-107.8 145.03,-114.41"/>
</g>
<!-- Node3 -->
<g id="node3" class="node">
<title>Node3</title>
<g id="a_node3"><a xlink:href="main_8cpp.html#ac7632fff72011e8c11ae504a4596a7f7" target="_top" xlink:title=" ">
<polygon fill="white" stroke="black" points="144.5,-76.5 144.5,-95.5 228.5,-95.5 228.5,-76.5 144.5,-76.5"/>
<text text-anchor="middle" x="186.5" y="-83.5" font-family="Helvetica,sans-Serif" font-size="10.00">keyboardFunc</text>
</a>
</g>
</g>
<!-- Node1&#45;&gt;Node3 -->
<g id="edge2" class="edge">
<title>Node1&#45;&gt;Node3</title>
<path fill="none" stroke="midnightblue" d="M94.17,-73.38C106.97,-75.15 120.95,-77.08 134.04,-78.89"/>
<polygon fill="midnightblue" stroke="midnightblue" points="133.92,-82.41 144.3,-80.31 134.88,-75.47 133.92,-82.41"/>
</g>
<!-- Node4 -->
<g id="node4" class="node">
<title>Node4</title>
<g id="a_node4"><a xlink:href="main_8cpp.html#a22a15e4bdf7b2b913b6cb41cc85b0b79" target="_top" xlink:title=" ">
<polygon fill="white" stroke="black" points="130,-38.5 130,-57.5 243,-57.5 243,-38.5 130,-38.5"/>
<text text-anchor="middle" x="186.5" y="-45.5" font-family="Helvetica,sans-Serif" font-size="10.00">processSpecialKeys</text>
</a>
</g>
</g>
<!-- Node1&#45;&gt;Node4 -->
<g id="edge3" class="edge">
<title>Node1&#45;&gt;Node4</title>
<path fill="none" stroke="midnightblue" d="M94.17,-60.62C102.36,-59.49 111.02,-58.29 119.63,-57.1"/>
<polygon fill="midnightblue" stroke="midnightblue" points="120.25,-60.55 129.67,-55.71 119.29,-53.62 120.25,-60.55"/>
</g>
<!-- Node5 -->
<g id="node5" class="node">
<title>Node5</title>
<g id="a_node5"><a xlink:href="main_8cpp.html#a2a96aed746d13d9b42d7888e156045f6" target="_top" xlink:title=" ">
<polygon fill="white" stroke="black" points="148,-0.5 148,-19.5 225,-19.5 225,-0.5 148,-0.5"/>
<text text-anchor="middle" x="186.5" y="-7.5" font-family="Helvetica,sans-Serif" font-size="10.00">renderScene</text>
</a>
</g>
</g>
<!-- Node1&#45;&gt;Node5 -->
<g id="edge4" class="edge">
<title>Node1&#45;&gt;Node5</title>
<path fill="none" stroke="midnightblue" d="M67.3,-57.36C83.76,-49.31 108.16,-37.77 130,-29 135.14,-26.94 140.6,-24.89 146.01,-22.95"/>
<polygon fill="midnightblue" stroke="midnightblue" points="147.34,-26.2 155.62,-19.59 145.03,-19.59 147.34,-26.2"/>
</g>
<!-- Node6 -->
<g id="node6" class="node">
<title>Node6</title>
<g id="a_node6"><a xlink:href="main_8cpp.html#ab6e5b61214cdc09a3bc74d1d3795c5f9" target="_top" xlink:title=" ">
<polygon fill="white" stroke="black" points="279,-0.5 279,-19.5 344,-19.5 344,-0.5 279,-0.5"/>
<text text-anchor="middle" x="311.5" y="-7.5" font-family="Helvetica,sans-Serif" font-size="10.00">drawCone</text>
</a>
</g>
</g>
<!-- Node5&#45;&gt;Node6 -->
<g id="edge5" class="edge">
<title>Node5&#45;&gt;Node6</title>
<path fill="none" stroke="midnightblue" d="M225.07,-10C238.94,-10 254.74,-10 268.94,-10"/>
<polygon fill="midnightblue" stroke="midnightblue" points="268.95,-13.5 278.95,-10 268.95,-6.5 268.95,-13.5"/>
</g>
<!-- Node7 -->
<g id="node7" class="node">
<title>Node7</title>
<g id="a_node7"><a xlink:href="main_8cpp.html#a808aea2b6040a6c77d4062c1f190a0f2" target="_top" xlink:title=" ">
<polygon fill="white" stroke="black" points="380,-0.5 380,-19.5 452,-19.5 452,-0.5 380,-0.5"/>
<text text-anchor="middle" x="416" y="-7.5" font-family="Helvetica,sans-Serif" font-size="10.00">coneVertex</text>
</a>
</g>
</g>
<!-- Node6&#45;&gt;Node7 -->
<g id="edge6" class="edge">
<title>Node6&#45;&gt;Node7</title>
<path fill="none" stroke="midnightblue" d="M344.09,-10C352.21,-10 361.1,-10 369.76,-10"/>
<polygon fill="midnightblue" stroke="midnightblue" points="369.76,-13.5 379.76,-10 369.76,-6.5 369.76,-13.5"/>
</g>
</g>
</svg>
