<?xml version="1.0" encoding="UTF-8" standalone="no"?>
<!DOCTYPE svg PUBLIC "-//W3C//DTD SVG 1.1//EN"
 "http://www.w3.org/Graphics/SVG/1.1/DTD/svg11.dtd">
<!-- Generated by graphviz version 3.0.0 (0)
 -->
<!-- Title: main2 Pages: 1 -->
<svg width="1254pt" height="135pt"
 viewBox="0.00 0.00 1254.00 134.50" xmlns="http://www.w3.org/2000/svg" xmlns:xlink="http://www.w3.org/1999/xlink">
<g id="graph0" class="graph" transform="scale(1 1) rotate(0) translate(4 130.5)">
<title>main2</title>
<polygon fill="white" stroke="transparent" points="-4,4 -4,-130.5 1250,-130.5 1250,4 -4,4"/>
<!-- Node1 -->
<g id="node1" class="node">
<title>Node1</title>
<g id="a_node1"><a xlink:title=" ">
<polygon fill="#bfbfbf" stroke="black" points="0,-19.5 0,-38.5 47,-38.5 47,-19.5 0,-19.5"/>
<text text-anchor="middle" x="23.5" y="-26.5" font-family="Helvetica,sans-Serif" font-size="10.00">main2</text>
</a>
</g>
</g>
<!-- Node2 -->
<g id="node2" class="node">
<title>Node2</title>
<g id="a_node2"><a xlink:href="parsing_8cpp.html#a46d5190ea0181cc625329b5221e9dce9" target="_top" xlink:title=" ">
<polygon fill="white" stroke="black" points="83,-19.5 83,-38.5 148,-38.5 148,-19.5 83,-19.5"/>
<text text-anchor="middle" x="115.5" y="-26.5" font-family="Helvetica,sans-Serif" font-size="10.00">example1</text>
</a>
</g>
</g>
<!-- Node1&#45;&gt;Node2 -->
<g id="edge1" class="edge">
<title>Node1&#45;&gt;Node2</title>
<path fill="none" stroke="midnightblue" d="M47.21,-29C55,-29 63.97,-29 72.78,-29"/>
<polygon fill="midnightblue" stroke="midnightblue" points="72.96,-32.5 82.96,-29 72.96,-25.5 72.96,-32.5"/>
</g>
<!-- Node3 -->
<g id="node3" class="node">
<title>Node3</title>
<g id="a_node3"><a xlink:href="group__xml.html#gac937a83a82258806ef77b02f97ef0834" target="_top" xlink:title=" ">
<polygon fill="white" stroke="black" points="184,-38.5 184,-57.5 303,-57.5 303,-38.5 184,-38.5"/>
<text text-anchor="middle" x="243.5" y="-45.5" font-family="Helvetica,sans-Serif" font-size="10.00">operations_load_xml</text>
</a>
</g>
</g>
<!-- Node2&#45;&gt;Node3 -->
<g id="edge2" class="edge">
<title>Node2&#45;&gt;Node3</title>
<path fill="none" stroke="midnightblue" d="M148.3,-33.79C156.13,-34.98 164.84,-36.29 173.69,-37.62"/>
<polygon fill="midnightblue" stroke="midnightblue" points="173.31,-41.11 183.72,-39.14 174.35,-34.18 173.31,-41.11"/>
</g>
<!-- Node11 -->
<g id="node11" class="node">
<title>Node11</title>
<g id="a_node11"><a xlink:href="group___printing.html#ga8ad288d2a741eb3d632a6d3e005c4347" target="_top" xlink:title=" ">
<polygon fill="white" stroke="black" points="195.5,-0.5 195.5,-19.5 291.5,-19.5 291.5,-0.5 195.5,-0.5"/>
<text text-anchor="middle" x="243.5" y="-7.5" font-family="Helvetica,sans-Serif" font-size="10.00">operations_print</text>
</a>
</g>
</g>
<!-- Node2&#45;&gt;Node11 -->
<g id="edge13" class="edge">
<title>Node2&#45;&gt;Node11</title>
<path fill="none" stroke="midnightblue" d="M148.3,-24.21C159.57,-22.51 172.63,-20.54 185.37,-18.62"/>
<polygon fill="midnightblue" stroke="midnightblue" points="186.1,-22.04 195.47,-17.09 185.06,-15.12 186.1,-22.04"/>
</g>
<!-- Node4 -->
<g id="node4" class="node">
<title>Node4</title>
<g id="a_node4"><a xlink:href="group___groups.html#ga72c2d5ef943a89f829c08f6707e7669d" target="_top" xlink:title=" ">
<polygon fill="white" stroke="black" points="339,-57.5 339,-76.5 474,-76.5 474,-57.5 339,-57.5"/>
<text text-anchor="middle" x="406.5" y="-64.5" font-family="Helvetica,sans-Serif" font-size="10.00">operations_push_groups</text>
</a>
</g>
</g>
<!-- Node3&#45;&gt;Node4 -->
<g id="edge3" class="edge">
<title>Node3&#45;&gt;Node4</title>
<path fill="none" stroke="midnightblue" d="M303.08,-54.91C311.42,-55.9 320.09,-56.92 328.71,-57.94"/>
<polygon fill="midnightblue" stroke="midnightblue" points="328.44,-61.43 338.78,-59.13 329.26,-54.48 328.44,-61.43"/>
</g>
<!-- Node10 -->
<g id="node10" class="node">
<title>Node10</title>
<g id="a_node10"><a xlink:href="group___transforms.html#gaa15fe56d7980e7877845f3bc09125017" target="_top" xlink:title=" ">
<polygon fill="white" stroke="black" points="1096,-52 1096,-82 1246,-82 1246,-52 1096,-52"/>
<text text-anchor="start" x="1104" y="-70" font-family="Helvetica,sans-Serif" font-size="10.00">operations_push_transform</text>
<text text-anchor="middle" x="1171" y="-59" font-family="Helvetica,sans-Serif" font-size="10.00">_attributes</text>
</a>
</g>
</g>
<!-- Node3&#45;&gt;Node10 -->
<g id="edge12" class="edge">
<title>Node3&#45;&gt;Node10</title>
<path fill="none" stroke="midnightblue" d="M303.15,-42.76C371.22,-37.13 486.89,-29 586.5,-29 586.5,-29 586.5,-29 789.5,-29 891.79,-29 1008.79,-42.77 1085.73,-53.73"/>
<polygon fill="midnightblue" stroke="midnightblue" points="1085.45,-57.22 1095.85,-55.18 1086.45,-50.29 1085.45,-57.22"/>
</g>
<!-- Node4&#45;&gt;Node4 -->
<g id="edge4" class="edge">
<title>Node4&#45;&gt;Node4</title>
<path fill="none" stroke="midnightblue" d="M381.53,-76.76C369.38,-85.57 377.71,-95 406.5,-95 425.85,-95 435.95,-90.74 436.81,-85.27"/>
<polygon fill="midnightblue" stroke="midnightblue" points="439.75,-83.37 431.47,-76.76 433.82,-87.09 439.75,-83.37"/>
</g>
<!-- Node5 -->
<g id="node5" class="node">
<title>Node5</title>
<g id="a_node5"><a xlink:href="group___models.html#gaca17d77a06e750f5cd95c1b79e1a8a30" target="_top" xlink:title=" ">
<polygon fill="white" stroke="black" points="518.5,-95.5 518.5,-114.5 656.5,-114.5 656.5,-95.5 518.5,-95.5"/>
<text text-anchor="middle" x="587.5" y="-102.5" font-family="Helvetica,sans-Serif" font-size="10.00">operations_push_models</text>
</a>
</g>
</g>
<!-- Node4&#45;&gt;Node5 -->
<g id="edge5" class="edge">
<title>Node4&#45;&gt;Node5</title>
<path fill="none" stroke="midnightblue" d="M452.67,-76.59C476.72,-81.69 506.47,-88.01 531.82,-93.39"/>
<polygon fill="midnightblue" stroke="midnightblue" points="531.15,-96.83 541.66,-95.48 532.6,-89.98 531.15,-96.83"/>
</g>
<!-- Node7 -->
<g id="node7" class="node">
<title>Node7</title>
<g id="a_node7"><a xlink:href="group___transforms.html#gaaa78b92f0257bb4755731622692de0cb" target="_top" xlink:title=" ">
<polygon fill="white" stroke="black" points="510,-57.5 510,-76.5 665,-76.5 665,-57.5 510,-57.5"/>
<text text-anchor="middle" x="587.5" y="-64.5" font-family="Helvetica,sans-Serif" font-size="10.00">operations_push_transforms</text>
</a>
</g>
</g>
<!-- Node4&#45;&gt;Node7 -->
<g id="edge7" class="edge">
<title>Node4&#45;&gt;Node7</title>
<path fill="none" stroke="midnightblue" d="M474.15,-67C482.51,-67 491.16,-67 499.77,-67"/>
<polygon fill="midnightblue" stroke="midnightblue" points="499.84,-70.5 509.84,-67 499.84,-63.5 499.84,-70.5"/>
</g>
<!-- Node6 -->
<g id="node6" class="node">
<title>Node6</title>
<g id="a_node6"><a xlink:href="group___models.html#ga5dc84f3f40c0bb6ad63dc2da3793ddd9" target="_top" xlink:title=" ">
<polygon fill="white" stroke="black" points="722,-95.5 722,-114.5 855,-114.5 855,-95.5 722,-95.5"/>
<text text-anchor="middle" x="788.5" y="-102.5" font-family="Helvetica,sans-Serif" font-size="10.00">operations_push_model</text>
</a>
</g>
</g>
<!-- Node5&#45;&gt;Node6 -->
<g id="edge6" class="edge">
<title>Node5&#45;&gt;Node6</title>
<path fill="none" stroke="midnightblue" d="M656.71,-105C674.38,-105 693.51,-105 711.55,-105"/>
<polygon fill="midnightblue" stroke="midnightblue" points="711.74,-108.5 721.74,-105 711.74,-101.5 711.74,-108.5"/>
</g>
<!-- Node8 -->
<g id="node8" class="node">
<title>Node8</title>
<g id="a_node8"><a xlink:href="group___transforms.html#ga3ceb952cabab7fc6918d4a676d53508d" target="_top" xlink:title=" ">
<polygon fill="white" stroke="black" points="701,-57.5 701,-76.5 876,-76.5 876,-57.5 701,-57.5"/>
<text text-anchor="middle" x="788.5" y="-64.5" font-family="Helvetica,sans-Serif" font-size="10.00">operations_push_transformation</text>
</a>
</g>
</g>
<!-- Node7&#45;&gt;Node8 -->
<g id="edge8" class="edge">
<title>Node7&#45;&gt;Node8</title>
<path fill="none" stroke="midnightblue" d="M665.15,-67C673.57,-67 682.23,-67 690.85,-67"/>
<polygon fill="midnightblue" stroke="midnightblue" points="690.94,-70.5 700.94,-67 690.94,-63.5 690.94,-70.5"/>
</g>
<!-- Node9 -->
<g id="node9" class="node">
<title>Node9</title>
<g id="a_node9"><a xlink:href="group___transforms.html#ga5078bb9f7411d7f9f26c535a52ae7c6b" target="_top" xlink:title=" ">
<polygon fill="white" stroke="black" points="912,-96 912,-126 1060,-126 1060,-96 912,-96"/>
<text text-anchor="start" x="920" y="-114" font-family="Helvetica,sans-Serif" font-size="10.00">operations_push_extended</text>
<text text-anchor="middle" x="986" y="-103" font-family="Helvetica,sans-Serif" font-size="10.00">_translate_attributes</text>
</a>
</g>
</g>
<!-- Node8&#45;&gt;Node9 -->
<g id="edge9" class="edge">
<title>Node8&#45;&gt;Node9</title>
<path fill="none" stroke="midnightblue" d="M833.52,-76.59C847.14,-79.58 862.2,-82.9 876,-86 886.99,-88.47 898.59,-91.1 909.97,-93.7"/>
<polygon fill="midnightblue" stroke="midnightblue" points="909.36,-97.15 919.89,-95.96 910.92,-90.32 909.36,-97.15"/>
</g>
<!-- Node8&#45;&gt;Node10 -->
<g id="edge11" class="edge">
<title>Node8&#45;&gt;Node10</title>
<path fill="none" stroke="midnightblue" d="M876.32,-67C939.06,-67 1023.38,-67 1085.57,-67"/>
<polygon fill="midnightblue" stroke="midnightblue" points="1085.74,-70.5 1095.74,-67 1085.74,-63.5 1085.74,-70.5"/>
</g>
<!-- Node9&#45;&gt;Node10 -->
<g id="edge10" class="edge">
<title>Node9&#45;&gt;Node10</title>
<path fill="none" stroke="midnightblue" d="M1049.47,-95.98C1064.99,-92.25 1081.75,-88.22 1097.7,-84.38"/>
<polygon fill="midnightblue" stroke="midnightblue" points="1098.6,-87.77 1107.5,-82.03 1096.96,-80.96 1098.6,-87.77"/>
</g>
</g>
</svg>
