<?xml version="1.0" encoding="UTF-8" standalone="no"?>
<!DOCTYPE svg PUBLIC "-//W3C//DTD SVG 1.1//EN"
 "http://www.w3.org/Graphics/SVG/1.1/DTD/svg11.dtd">
<!-- Generated by graphviz version 3.0.0 (0)
 -->
<!-- Title: example1 Pages: 1 -->
<svg width="1171pt" height="135pt"
 viewBox="0.00 0.00 1171.00 134.50" xmlns="http://www.w3.org/2000/svg" xmlns:xlink="http://www.w3.org/1999/xlink">
<g id="graph0" class="graph" transform="scale(1 1) rotate(0) translate(4 130.5)">
<title>example1</title>
<polygon fill="white" stroke="transparent" points="-4,4 -4,-130.5 1167,-130.5 1167,4 -4,4"/>
<!-- Node1 -->
<g id="node1" class="node">
<title>Node1</title>
<g id="a_node1"><a xlink:title=" ">
<polygon fill="#bfbfbf" stroke="black" points="0,-19.5 0,-38.5 65,-38.5 65,-19.5 0,-19.5"/>
<text text-anchor="middle" x="32.5" y="-26.5" font-family="Helvetica,sans-Serif" font-size="10.00">example1</text>
</a>
</g>
</g>
<!-- Node2 -->
<g id="node2" class="node">
<title>Node2</title>
<g id="a_node2"><a xlink:href="group__xml.html#gac937a83a82258806ef77b02f97ef0834" target="_top" xlink:title=" ">
<polygon fill="white" stroke="black" points="101,-38.5 101,-57.5 220,-57.5 220,-38.5 101,-38.5"/>
<text text-anchor="middle" x="160.5" y="-45.5" font-family="Helvetica,sans-Serif" font-size="10.00">operations_load_xml</text>
</a>
</g>
</g>
<!-- Node1&#45;&gt;Node2 -->
<g id="edge1" class="edge">
<title>Node1&#45;&gt;Node2</title>
<path fill="none" stroke="midnightblue" d="M65.3,-33.79C73.13,-34.98 81.84,-36.29 90.69,-37.62"/>
<polygon fill="midnightblue" stroke="midnightblue" points="90.31,-41.11 100.72,-39.14 91.35,-34.18 90.31,-41.11"/>
</g>
<!-- Node10 -->
<g id="node10" class="node">
<title>Node10</title>
<g id="a_node10"><a xlink:href="group___printing.html#ga8ad288d2a741eb3d632a6d3e005c4347" target="_top" xlink:title=" ">
<polygon fill="white" stroke="black" points="112.5,-0.5 112.5,-19.5 208.5,-19.5 208.5,-0.5 112.5,-0.5"/>
<text text-anchor="middle" x="160.5" y="-7.5" font-family="Helvetica,sans-Serif" font-size="10.00">operations_print</text>
</a>
</g>
</g>
<!-- Node1&#45;&gt;Node10 -->
<g id="edge12" class="edge">
<title>Node1&#45;&gt;Node10</title>
<path fill="none" stroke="midnightblue" d="M65.3,-24.21C76.57,-22.51 89.63,-20.54 102.37,-18.62"/>
<polygon fill="midnightblue" stroke="midnightblue" points="103.1,-22.04 112.47,-17.09 102.06,-15.12 103.1,-22.04"/>
</g>
<!-- Node3 -->
<g id="node3" class="node">
<title>Node3</title>
<g id="a_node3"><a xlink:href="group___groups.html#ga72c2d5ef943a89f829c08f6707e7669d" target="_top" xlink:title=" ">
<polygon fill="white" stroke="black" points="256,-57.5 256,-76.5 391,-76.5 391,-57.5 256,-57.5"/>
<text text-anchor="middle" x="323.5" y="-64.5" font-family="Helvetica,sans-Serif" font-size="10.00">operations_push_groups</text>
</a>
</g>
</g>
<!-- Node2&#45;&gt;Node3 -->
<g id="edge2" class="edge">
<title>Node2&#45;&gt;Node3</title>
<path fill="none" stroke="midnightblue" d="M220.08,-54.91C228.42,-55.9 237.09,-56.92 245.71,-57.94"/>
<polygon fill="midnightblue" stroke="midnightblue" points="245.44,-61.43 255.78,-59.13 246.26,-54.48 245.44,-61.43"/>
</g>
<!-- Node9 -->
<g id="node9" class="node">
<title>Node9</title>
<g id="a_node9"><a xlink:href="group___transforms.html#gaa15fe56d7980e7877845f3bc09125017" target="_top" xlink:title=" ">
<polygon fill="white" stroke="black" points="1013,-52 1013,-82 1163,-82 1163,-52 1013,-52"/>
<text text-anchor="start" x="1021" y="-70" font-family="Helvetica,sans-Serif" font-size="10.00">operations_push_transform</text>
<text text-anchor="middle" x="1088" y="-59" font-family="Helvetica,sans-Serif" font-size="10.00">_attributes</text>
</a>
</g>
</g>
<!-- Node2&#45;&gt;Node9 -->
<g id="edge11" class="edge">
<title>Node2&#45;&gt;Node9</title>
<path fill="none" stroke="midnightblue" d="M220.15,-42.76C288.22,-37.13 403.89,-29 503.5,-29 503.5,-29 503.5,-29 706.5,-29 808.79,-29 925.79,-42.77 1002.73,-53.73"/>
<polygon fill="midnightblue" stroke="midnightblue" points="1002.45,-57.22 1012.85,-55.18 1003.45,-50.29 1002.45,-57.22"/>
</g>
<!-- Node3&#45;&gt;Node3 -->
<g id="edge3" class="edge">
<title>Node3&#45;&gt;Node3</title>
<path fill="none" stroke="midnightblue" d="M298.53,-76.76C286.38,-85.57 294.71,-95 323.5,-95 342.85,-95 352.95,-90.74 353.81,-85.27"/>
<polygon fill="midnightblue" stroke="midnightblue" points="356.75,-83.37 348.47,-76.76 350.82,-87.09 356.75,-83.37"/>
</g>
<!-- Node4 -->
<g id="node4" class="node">
<title>Node4</title>
<g id="a_node4"><a xlink:href="group___models.html#gaca17d77a06e750f5cd95c1b79e1a8a30" target="_top" xlink:title=" ">
<polygon fill="white" stroke="black" points="435.5,-95.5 435.5,-114.5 573.5,-114.5 573.5,-95.5 435.5,-95.5"/>
<text text-anchor="middle" x="504.5" y="-102.5" font-family="Helvetica,sans-Serif" font-size="10.00">operations_push_models</text>
</a>
</g>
</g>
<!-- Node3&#45;&gt;Node4 -->
<g id="edge4" class="edge">
<title>Node3&#45;&gt;Node4</title>
<path fill="none" stroke="midnightblue" d="M369.67,-76.59C393.72,-81.69 423.47,-88.01 448.82,-93.39"/>
<polygon fill="midnightblue" stroke="midnightblue" points="448.15,-96.83 458.66,-95.48 449.6,-89.98 448.15,-96.83"/>
</g>
<!-- Node6 -->
<g id="node6" class="node">
<title>Node6</title>
<g id="a_node6"><a xlink:href="group___transforms.html#gaaa78b92f0257bb4755731622692de0cb" target="_top" xlink:title=" ">
<polygon fill="white" stroke="black" points="427,-57.5 427,-76.5 582,-76.5 582,-57.5 427,-57.5"/>
<text text-anchor="middle" x="504.5" y="-64.5" font-family="Helvetica,sans-Serif" font-size="10.00">operations_push_transforms</text>
</a>
</g>
</g>
<!-- Node3&#45;&gt;Node6 -->
<g id="edge6" class="edge">
<title>Node3&#45;&gt;Node6</title>
<path fill="none" stroke="midnightblue" d="M391.15,-67C399.51,-67 408.16,-67 416.77,-67"/>
<polygon fill="midnightblue" stroke="midnightblue" points="416.84,-70.5 426.84,-67 416.84,-63.5 416.84,-70.5"/>
</g>
<!-- Node5 -->
<g id="node5" class="node">
<title>Node5</title>
<g id="a_node5"><a xlink:href="group___models.html#ga5dc84f3f40c0bb6ad63dc2da3793ddd9" target="_top" xlink:title=" ">
<polygon fill="white" stroke="black" points="639,-95.5 639,-114.5 772,-114.5 772,-95.5 639,-95.5"/>
<text text-anchor="middle" x="705.5" y="-102.5" font-family="Helvetica,sans-Serif" font-size="10.00">operations_push_model</text>
</a>
</g>
</g>
<!-- Node4&#45;&gt;Node5 -->
<g id="edge5" class="edge">
<title>Node4&#45;&gt;Node5</title>
<path fill="none" stroke="midnightblue" d="M573.71,-105C591.38,-105 610.51,-105 628.55,-105"/>
<polygon fill="midnightblue" stroke="midnightblue" points="628.74,-108.5 638.74,-105 628.74,-101.5 628.74,-108.5"/>
</g>
<!-- Node7 -->
<g id="node7" class="node">
<title>Node7</title>
<g id="a_node7"><a xlink:href="group___transforms.html#ga3ceb952cabab7fc6918d4a676d53508d" target="_top" xlink:title=" ">
<polygon fill="white" stroke="black" points="618,-57.5 618,-76.5 793,-76.5 793,-57.5 618,-57.5"/>
<text text-anchor="middle" x="705.5" y="-64.5" font-family="Helvetica,sans-Serif" font-size="10.00">operations_push_transformation</text>
</a>
</g>
</g>
<!-- Node6&#45;&gt;Node7 -->
<g id="edge7" class="edge">
<title>Node6&#45;&gt;Node7</title>
<path fill="none" stroke="midnightblue" d="M582.15,-67C590.57,-67 599.23,-67 607.85,-67"/>
<polygon fill="midnightblue" stroke="midnightblue" points="607.94,-70.5 617.94,-67 607.94,-63.5 607.94,-70.5"/>
</g>
<!-- Node8 -->
<g id="node8" class="node">
<title>Node8</title>
<g id="a_node8"><a xlink:href="group___transforms.html#ga5078bb9f7411d7f9f26c535a52ae7c6b" target="_top" xlink:title=" ">
<polygon fill="white" stroke="black" points="829,-96 829,-126 977,-126 977,-96 829,-96"/>
<text text-anchor="start" x="837" y="-114" font-family="Helvetica,sans-Serif" font-size="10.00">operations_push_extended</text>
<text text-anchor="middle" x="903" y="-103" font-family="Helvetica,sans-Serif" font-size="10.00">_translate_attributes</text>
</a>
</g>
</g>
<!-- Node7&#45;&gt;Node8 -->
<g id="edge8" class="edge">
<title>Node7&#45;&gt;Node8</title>
<path fill="none" stroke="midnightblue" d="M750.52,-76.59C764.14,-79.58 779.2,-82.9 793,-86 803.99,-88.47 815.59,-91.1 826.97,-93.7"/>
<polygon fill="midnightblue" stroke="midnightblue" points="826.36,-97.15 836.89,-95.96 827.92,-90.32 826.36,-97.15"/>
</g>
<!-- Node7&#45;&gt;Node9 -->
<g id="edge10" class="edge">
<title>Node7&#45;&gt;Node9</title>
<path fill="none" stroke="midnightblue" d="M793.32,-67C856.06,-67 940.38,-67 1002.57,-67"/>
<polygon fill="midnightblue" stroke="midnightblue" points="1002.74,-70.5 1012.74,-67 1002.74,-63.5 1002.74,-70.5"/>
</g>
<!-- Node8&#45;&gt;Node9 -->
<g id="edge9" class="edge">
<title>Node8&#45;&gt;Node9</title>
<path fill="none" stroke="midnightblue" d="M966.47,-95.98C981.99,-92.25 998.75,-88.22 1014.7,-84.38"/>
<polygon fill="midnightblue" stroke="midnightblue" points="1015.6,-87.77 1024.5,-82.03 1013.96,-80.96 1015.6,-87.77"/>
</g>
</g>
</svg>
