<?xml version="1.0" encoding="UTF-8" standalone="no"?>
<!DOCTYPE svg PUBLIC "-//W3C//DTD SVG 1.1//EN"
 "http://www.w3.org/Graphics/SVG/1.1/DTD/svg11.dtd">
<!-- Generated by graphviz version 3.0.0 (0)
 -->
<!-- Title: src/parsing.cpp Pages: 1 -->
<svg width="311pt" height="140pt"
 viewBox="0.00 0.00 310.99 140.00" xmlns="http://www.w3.org/2000/svg" xmlns:xlink="http://www.w3.org/1999/xlink">
<g id="graph0" class="graph" transform="scale(1 1) rotate(0) translate(4 136)">
<title>src/parsing.cpp</title>
<polygon fill="white" stroke="transparent" points="-4,4 -4,-136 306.99,-136 306.99,4 -4,4"/>
<!-- Node1 -->
<g id="node1" class="node">
<title>Node1</title>
<g id="a_node1"><a xlink:title=" ">
<polygon fill="#bfbfbf" stroke="black" points="63.99,-112.5 63.99,-131.5 153.99,-131.5 153.99,-112.5 63.99,-112.5"/>
<text text-anchor="middle" x="108.99" y="-119.5" font-family="Helvetica,sans-Serif" font-size="10.00">src/parsing.cpp</text>
</a>
</g>
</g>
<!-- Node2 -->
<g id="node2" class="node">
<title>Node2</title>
<g id="a_node2"><a xlink:title=" ">
<polygon fill="white" stroke="#bfbfbf" points="105.49,-0.5 105.49,-19.5 152.49,-19.5 152.49,-0.5 105.49,-0.5"/>
<text text-anchor="middle" x="128.99" y="-7.5" font-family="Helvetica,sans-Serif" font-size="10.00">vector</text>
</a>
</g>
</g>
<!-- Node1&#45;&gt;Node2 -->
<g id="edge1" class="edge">
<title>Node1&#45;&gt;Node2</title>
<path fill="none" stroke="midnightblue" d="M68.87,-112.48C31.8,-102.66 -14.75,-84.16 4.99,-56 25.18,-27.19 65.79,-16.75 95.05,-13.01"/>
<polygon fill="midnightblue" stroke="midnightblue" points="95.68,-16.46 105.25,-11.91 94.93,-9.5 95.68,-16.46"/>
</g>
<!-- Node3 -->
<g id="node3" class="node">
<title>Node3</title>
<g id="a_node3"><a xlink:title=" ">
<polygon fill="white" stroke="#bfbfbf" points="13.99,-56.5 13.99,-75.5 63.99,-75.5 63.99,-56.5 13.99,-56.5"/>
<text text-anchor="middle" x="38.99" y="-63.5" font-family="Helvetica,sans-Serif" font-size="10.00">stdio.h</text>
</a>
</g>
</g>
<!-- Node1&#45;&gt;Node3 -->
<g id="edge2" class="edge">
<title>Node1&#45;&gt;Node3</title>
<path fill="none" stroke="midnightblue" d="M97.74,-112.32C87.19,-104.18 71.18,-91.84 58.54,-82.09"/>
<polygon fill="midnightblue" stroke="midnightblue" points="60.49,-79.17 50.44,-75.83 56.22,-84.71 60.49,-79.17"/>
</g>
<!-- Node4 -->
<g id="node4" class="node">
<title>Node4</title>
<g id="a_node4"><a xlink:title=" ">
<polygon fill="white" stroke="#bfbfbf" points="82.49,-56.5 82.49,-75.5 135.49,-75.5 135.49,-56.5 82.49,-56.5"/>
<text text-anchor="middle" x="108.99" y="-63.5" font-family="Helvetica,sans-Serif" font-size="10.00">string.h</text>
</a>
</g>
</g>
<!-- Node1&#45;&gt;Node4 -->
<g id="edge3" class="edge">
<title>Node1&#45;&gt;Node4</title>
<path fill="none" stroke="midnightblue" d="M108.99,-112.08C108.99,-105.01 108.99,-94.86 108.99,-85.99"/>
<polygon fill="midnightblue" stroke="midnightblue" points="112.49,-85.75 108.99,-75.75 105.49,-85.75 112.49,-85.75"/>
</g>
<!-- Node5 -->
<g id="node5" class="node">
<title>Node5</title>
<g id="a_node5"><a xlink:title=" ">
<polygon fill="white" stroke="#bfbfbf" points="153.49,-56.5 153.49,-75.5 222.49,-75.5 222.49,-56.5 153.49,-56.5"/>
<text text-anchor="middle" x="187.99" y="-63.5" font-family="Helvetica,sans-Serif" font-size="10.00">tinyxml2.h</text>
</a>
</g>
</g>
<!-- Node1&#45;&gt;Node5 -->
<g id="edge4" class="edge">
<title>Node1&#45;&gt;Node5</title>
<path fill="none" stroke="midnightblue" d="M121.68,-112.32C133.89,-103.98 152.56,-91.21 166.99,-81.35"/>
<polygon fill="midnightblue" stroke="midnightblue" points="169.04,-84.19 175.32,-75.65 165.09,-78.41 169.04,-84.19"/>
</g>
<!-- Node6 -->
<g id="node6" class="node">
<title>Node6</title>
<g id="a_node6"><a xlink:href="parsing_8h.html" target="_top" xlink:title=" ">
<polygon fill="white" stroke="black" points="240.99,-56.5 240.99,-75.5 302.99,-75.5 302.99,-56.5 240.99,-56.5"/>
<text text-anchor="middle" x="271.99" y="-63.5" font-family="Helvetica,sans-Serif" font-size="10.00">parsing.h</text>
</a>
</g>
</g>
<!-- Node1&#45;&gt;Node6 -->
<g id="edge5" class="edge">
<title>Node1&#45;&gt;Node6</title>
<path fill="none" stroke="midnightblue" d="M134.81,-112.44C162.23,-103.36 205.76,-88.94 236.42,-78.78"/>
<polygon fill="midnightblue" stroke="midnightblue" points="237.89,-81.98 246.28,-75.52 235.68,-75.34 237.89,-81.98"/>
</g>
<!-- Node6&#45;&gt;Node2 -->
<g id="edge6" class="edge">
<title>Node6&#45;&gt;Node2</title>
<path fill="none" stroke="midnightblue" d="M249.33,-56.44C225.58,-47.48 188.08,-33.31 161.25,-23.18"/>
<polygon fill="midnightblue" stroke="midnightblue" points="162.13,-19.77 151.54,-19.52 159.66,-26.32 162.13,-19.77"/>
</g>
</g>
</svg>
