<?xml version="1.0" encoding="UTF-8" standalone="no"?>
<!DOCTYPE svg PUBLIC "-//W3C//DTD SVG 1.1//EN"
 "http://www.w3.org/Graphics/SVG/1.1/DTD/svg11.dtd">
<!-- Generated by graphviz version 3.0.0 (0)
 -->
<!-- Title: src/parsing.h Pages: 1 -->
<svg width="204pt" height="84pt"
 viewBox="0.00 0.00 203.50 84.00" xmlns="http://www.w3.org/2000/svg" xmlns:xlink="http://www.w3.org/1999/xlink">
<g id="graph0" class="graph" transform="scale(1 1) rotate(0) translate(4 80)">
<title>src/parsing.h</title>
<polygon fill="white" stroke="transparent" points="-4,4 -4,-80 199.5,-80 199.5,4 -4,4"/>
<!-- Node1 -->
<g id="node1" class="node">
<title>Node1</title>
<g id="a_node1"><a xlink:title=" ">
<polygon fill="#bfbfbf" stroke="black" points="57,-56.5 57,-75.5 136,-75.5 136,-56.5 57,-56.5"/>
<text text-anchor="middle" x="96.5" y="-63.5" font-family="Helvetica,sans-Serif" font-size="10.00">src/parsing.h</text>
</a>
</g>
</g>
<!-- Node2 -->
<g id="node2" class="node">
<title>Node2</title>
<g id="a_node2"><a xlink:href="engine_8cpp.html" target="_top" xlink:title=" ">
<polygon fill="white" stroke="black" points="0,-0.5 0,-19.5 87,-19.5 87,-0.5 0,-0.5"/>
<text text-anchor="middle" x="43.5" y="-7.5" font-family="Helvetica,sans-Serif" font-size="10.00">src/engine.cpp</text>
</a>
</g>
</g>
<!-- Node1&#45;&gt;Node2 -->
<g id="edge1" class="edge">
<title>Node1&#45;&gt;Node2</title>
<path fill="none" stroke="midnightblue" d="M80.52,-48.72C71.18,-39.2 59.75,-27.56 52.09,-19.75"/>
<polygon fill="midnightblue" stroke="midnightblue" points="78.25,-51.4 87.75,-56.08 83.24,-46.49 78.25,-51.4"/>
</g>
<!-- Node3 -->
<g id="node3" class="node">
<title>Node3</title>
<g id="a_node3"><a xlink:href="parsing_8cpp.html" target="_top" xlink:title=" ">
<polygon fill="white" stroke="black" points="105.5,-0.5 105.5,-19.5 195.5,-19.5 195.5,-0.5 105.5,-0.5"/>
<text text-anchor="middle" x="150.5" y="-7.5" font-family="Helvetica,sans-Serif" font-size="10.00">src/parsing.cpp</text>
</a>
</g>
</g>
<!-- Node1&#45;&gt;Node3 -->
<g id="edge2" class="edge">
<title>Node1&#45;&gt;Node3</title>
<path fill="none" stroke="midnightblue" d="M112.5,-49C122.07,-39.43 133.86,-27.64 141.75,-19.75"/>
<polygon fill="midnightblue" stroke="midnightblue" points="110.01,-46.54 105.42,-56.08 114.96,-51.49 110.01,-46.54"/>
</g>
</g>
</svg>
